<?xml version="1.0" encoding="UTF-8" standalone="no"?>
<!-- Created with Inkscape (http://www.inkscape.org/) -->

<svg
   version="1.1"
   id="svg1"
   width="1000"
   height="1000"
   viewBox="0 0 1000 1000"
   sodipodi:docname="tt0.png.2023_12_13_20_25_03.0.svg"
   inkscape:version="1.3.2 (091e20e, 2023-11-25, custom)"
   xmlns:inkscape="http://www.inkscape.org/namespaces/inkscape"
   xmlns:sodipodi="http://sodipodi.sourceforge.net/DTD/sodipodi-0.dtd"
   xmlns="http://www.w3.org/2000/svg"
   xmlns:svg="http://www.w3.org/2000/svg">
  <defs
     id="defs1" />
  <sodipodi:namedview
     id="namedview1"
     pagecolor="#ffffff"
     bordercolor="#D9B166"
     borderopacity="0.25"
     inkscape:showpageshadow="2"
     inkscape:pageopacity="0.0"
     inkscape:pagecheckerboard="0"
     inkscape:deskcolor="#d1d1d1"
     inkscape:zoom="1.6588725"
     inkscape:cx="665.81367"
     inkscape:cy="331.24908"
     inkscape:window-width="3440"
     inkscape:window-height="1369"
     inkscape:window-x="-8"
     inkscape:window-y="-8"
     inkscape:window-maximized="1"
     inkscape:current-layer="g1" />
  <g
     inkscape:groupmode="layer"
     inkscape:label="Image"
     id="g1">
    <path
       style="fill:#D9B166;stroke:#D9B166;stroke-width:13.4;stroke-dasharray:none;stroke-opacity:1"
       d="m 600,968.44465 -51.5,-24.40876 -0.25188,-261.85517 -0.25187,-261.85516 -42.74813,-20.17287 c -23.51146,-11.09508 -43.08458,-20.16833 -43.49581,-20.16278 -0.41123,0.006 -0.86123,95.67469 -1,212.59809 L 460.5,805.17601 405.96067,828.07056 351.42135,850.96511 299.96067,826.63645 248.5,802.30779 248,586.72066 247.5,371.13352 195.18152,393.06676 c -62.39664,26.15826 -45.45853,26.48583 -105.891078,-2.04785 L 38.5,367.03783 38.243196,298.15507 37.986391,229.27231 42.743196,227.28648 C 45.359438,226.19428 164.55355,176.16631 307.619,116.11321 L 567.73799,6.9257706 619.34487,31.212885 670.95175,55.5 l 0.011,69 0.0109,69 -27.43468,11.42986 c -15.08907,6.28642 -27.27346,11.68642 -27.07641,12 0.19705,0.31358 77.56983,37.02014 171.9395,81.57014 l 171.58122,81 0.008,68.64301 c 0.007,53.98567 -0.25855,68.75046 -1.24164,69.14622 -0.6875,0.27676 -25.45038,10.66687 -55.02862,23.08913 l -53.77861,22.58593 -43.34769,-20.48215 C 782.75385,531.21696 762.96672,522 762.62369,522 762.28066,522 762,617.56357 762,734.36349 v 212.36348 l -54.15293,22.72659 c -29.78411,12.49962 -54.64661,22.87806 -55.25,23.06321 C 651.99368,992.70191 628.325,981.86946 600,968.44465 Z m 51.75441,-500.59906 c 0.41284,-0.41284 44.84949,20.07835 98.7481,45.53597 l 97.78436,44.1553 0.47033,-63.89558 c 0.2673,-36.31407 -0.0916,-66.37569 -0.51794,-66.80202 C 847.41124,426.01124 354.47169,193 353.54802,193 353.24661,193 353,222.83895 353,259.30878 v 66.30878 l 98.75,46.64382 98.75,46.64382 0.25188,261.86135 0.25187,261.86134 49.74813,23.48531 49.74812,23.4853 0.25189,-260.50114 c 0.13855,-143.27563 0.58968,-260.83893 1.00252,-261.25177 z M 714.5,964.10495 l 45,-18.89409 0.2523,-212.37171 0.2523,-212.3717 -50.7523,-23.90525 C 681.33854,483.41431 657.2625,472.04758 655.75,471.30279 L 653,469.94864 v 259.98383 259.98384 l 8.25,-3.45863 c 4.5375,-1.90225 28.5,-11.96097 53.25,-22.35273 z M 458.7523,590.86352 459.00461,378.2861 439.2523,368.96289 C 428.38854,363.83512 404.5375,352.56017 386.25,343.90745 L 353,328.17523 v 259.7891 259.78911 l 52.75,-22.15625 52.75,-22.15624 z M 350,587.57006 V 328.14011 l -5.75,2.36474 c -3.1625,1.30061 -25.55,10.68191 -49.75,20.84734 l -44,18.48261 -0.2408,215.3326 -0.24079,215.3326 49.24079,23.24362 c 27.08244,12.78399 49.5783,23.24649 49.9908,23.25 0.4125,0.004 0.75,-116.73709 0.75,-259.42356 z m 566.5,-55.0383 c 22,-9.21024 40.34074,-17.06095 40.7572,-17.44603 0.41646,-0.38507 0.64146,-30.46376 0.5,-66.84153 l -2.17444,-64.79263 -51.08276,20.89312 -53,22.24189 -0.25707,66.65758 0.70201,65.27225 11.79799,-3.92671 C 870.95437,552.18953 894.5,541.742 916.5,532.53176 Z M 903.24561,402.30249 c 28.46009,-11.9412 51.41009,-22.04608 51,-22.45529 C 953.83552,379.43799 845.95,328.29124 714.5,266.18776 456.74294,144.41059 460,145.96505 460,144.72539 460,143.5476 459.9115,143.58565 567.5,98.476885 620.85,76.108753 665.07353,57.489295 665.7745,57.100312 667.5265,56.128102 569.11744,9.7380079 566.5,10.302245 564.50026,10.733324 46.31487,228.15009 43.624858,229.68671 c -1.969288,1.12491 96.674252,47.67052 99.276912,46.84447 1.02669,-0.32586 48.3369,-20.0988 105.1338,-43.93987 l 103.2671,-43.3474 5.09866,2.29034 C 359.2056,192.79393 471.075,245.60825 605,308.8994 c 133.925,63.29115 244.175,115.08371 245,115.09458 0.825,0.0109 24.78552,-9.7503 53.24561,-21.69149 z M 140,345.64215 V 279.2843 L 91.75,256.50316 C 65.2125,243.97353 42.709305,233.31702 41.7429,232.82202 c -1.668809,-0.85476 -1.744182,2.453 -1.5,65.82835 l 0.2571,66.72834 49,23.23236 c 26.95,12.77779 49.3375,23.26758 49.75,23.31064 0.4125,0.0431 0.75,-29.78274 0.75,-66.27956 z M 248.25,368.21661 350,325.52931 v -66.38128 c 0,-62.7412 -0.096,-66.35429 -1.75,-65.88888 -0.9625,0.27082 -46.975,19.49751 -102.25,42.72597 -55.275,23.22847 -101.0625,42.45751 -101.75,42.73121 -2.2766,0.90635 -1.7768,133.69483 0.5,132.84261 0.9625,-0.36027 47.5375,-19.86432 103.5,-43.34233 z M 641.17288,203.32096 669,191.64193 V 125.32096 C 669,88.844433 668.71157,59 668.35904,59 c -0.35253,0 -46.14003,19.07267 -101.75,42.38371 C 510.99907,124.69475 464.825,143.98336 464,144.24728 c -1.00404,0.32119 -0.34276,1.02015 2,2.11396 1.925,0.89875 35.45,16.70658 74.5,35.12849 39.05,18.42192 71.4153,33.49797 71.92288,33.50233 0.50759,0.004 13.44509,-5.24763 28.75,-11.6711 z"
       id="path1"
       sodipodi:nodetypes="scccscscccccccsscccsscccccsssccssccsscssssscsssscccccccssscccsscccssccssccccccscsscccscsssscccccsssssssssssscssssscssscsssscssssssscsssssscs" />
  </g>
</svg>
