<?xml version="1.0" standalone="no"?><svg xmlns="http://www.w3.org/2000/svg" viewBox="0 0 1440 320"><path fill="#BB6830" fill-opacity="1" d="M0,160L48,154.7C96,149,192,139,288,154.7C384,171,480,213,576,202.7C672,192,768,128,864,122.7C960,117,1056,171,1152,186.7C1248,203,1344,181,1392,170.7L1440,160L1440,320L1392,320C1344,320,1248,320,1152,320C1056,320,960,320,864,320C768,320,672,320,576,320C480,320,384,320,288,320C192,320,96,320,48,320L0,320Z" style="--darkreader-inline-fill: var(--darkreader-background-0099ff, #007acc);"></path></svg>