<?xml version="1.0" encoding="UTF-8" standalone="no"?>
<!--
tags: [drink, taiwanese, flavor, boba, beverage, refreshment, sweet, pearl, milk, tapioca]
category: Food
unicode: "ff51"
version: "3.10"
-->

<svg
   width="24"
   height="24"
   viewBox="0 0 24 24"
   fill="none"
   stroke="currentColor"
   stroke-width="2"
   stroke-linecap="round"
   stroke-linejoin="round"
   version="1.1"
   id="svg7"
   sodipodi:docname="logo.svg"
   xml:space="preserve"
   inkscape:version="1.4 (86a8ad7, 2024-10-11)"
   xmlns:inkscape="http://www.inkscape.org/namespaces/inkscape"
   xmlns:sodipodi="http://sodipodi.sourceforge.net/DTD/sodipodi-0.dtd"
   xmlns="http://www.w3.org/2000/svg"
   xmlns:svg="http://www.w3.org/2000/svg"><defs
     id="defs7" /><sodipodi:namedview
     id="namedview7"
     pagecolor="#111a19"
     bordercolor="#000000"
     borderopacity="0.25"
     inkscape:showpageshadow="2"
     inkscape:pageopacity="0.0"
     inkscape:pagecheckerboard="0"
     inkscape:deskcolor="#d1d1d1"
     inkscape:zoom="24.3125"
     inkscape:cx="10.673522"
     inkscape:cy="11.290488"
     inkscape:window-width="1651"
     inkscape:window-height="1211"
     inkscape:window-x="1783"
     inkscape:window-y="157"
     inkscape:window-maximized="0"
     inkscape:current-layer="svg7" /><g
     style="fill:currentColor;stroke-width:0.0999999;stroke-dasharray:none"
     id="g7"
     transform="matrix(0.70332418,0,0,0.70332418,1.2880462,-0.2641308)"><path
       d="m 9.4382491,3.9960463 -7.15,3.113 a 2,2 0 0 0 -1.03,2.6080001 l 4.92,11.8949996 a 1.96,1.96 0 0 0 2.59,1.063 l 7.1419999,-3.11 a 2.002,2.002 0 0 0 1.036,-2.611 l -4.92,-11.8939997 a 1.96,1.96 0 0 0 -2.5879999,-1.064 z"
       id="path39"
       style="fill:#bb6830;fill-opacity:1;stroke:#fbd794;stroke-width:2.23936564;stroke-dasharray:none;stroke-opacity:1" /><path
       d="m 16,3 a 2,2 0 0 1 1.995,1.85 L 18,5 V 8.5 A 1,1 0 0 1 16.007,8.617 L 16,8.5 V 5 H 15 A 1,1 0 0 1 14.883,3.007 L 15,3 Z"
       id="path2-8"
       style="stroke-width:0.0999999;stroke-dasharray:none;stroke:none;stroke-opacity:1;fill:#fbd794;fill-opacity:1" /><path
       d="m 19.08,5.61 a 1,1 0 0 1 1.31,-0.53 c 0.257,0.108 0.505,0.21 0.769,0.314 a 2,2 0 0 1 1.114,2.479 l -0.056,0.146 -2.298,5.374 a 1,1 0 0 1 -1.878,-0.676 l 0.04,-0.11 2.296,-5.371 -0.366,-0.148 -0.402,-0.167 a 1,1 0 0 1 -0.53,-1.312 z"
       id="path3-2"
       style="stroke-width:0.0999999;stroke-dasharray:none;fill:#fbd794;fill-opacity:1" /></g><path
     d="m 20.464099,11.50926 -1.1638,6.842639 c -0.196854,1.151988 -0.294493,1.728377 -0.73702,2.07169 -0.944898,0.733084 -4.755201,0.692926 -5.647343,0 -0.442528,-0.343313 -0.540955,-0.919702 -0.737021,-2.072477 l -1.1638,-6.841852"
     id="path31"
     style="fill:#bb6830;fill-opacity:1;stroke:#111a19;stroke-width:2.866;stroke-dasharray:none;stroke-opacity:1" /><path
     d="m 11.054486,11.50926 0.404731,-1.012616 a 4.6520496,4.6520496 0 0 1 8.639522,0 l 0.404731,1.012616"
     id="path32"
     style="fill:#111a19;fill-opacity:1;stroke:#111a19;stroke-width:2.86587;stroke-dasharray:none;stroke-opacity:1" /><path
     d="M 10.267071,11.50926 H 21.290885"
     id="path33"
     style="fill:#ffffff;fill-opacity:1;stroke:#111a19;stroke-width:2.86587;stroke-dasharray:none;stroke-opacity:1" /><path
     d="M 15.778978,11.50926 18.928639,5.9973533"
     id="path34"
     style="fill:#ffffff;fill-opacity:1;stroke:#111a19;stroke-width:2.86587;stroke-dasharray:none;stroke-opacity:1" /><path
     d="m 14.212022,15.446337 h 0.0079"
     id="path35"
     style="fill:none;fill-opacity:1;stroke:#111a19;stroke-width:2.86587;stroke-dasharray:none;stroke-opacity:1" /><path
     d="m 15.007311,18.595998 h 0.0079"
     id="path36"
     style="fill:#ffffff;fill-opacity:1;stroke:#111a19;stroke-width:2.86587;stroke-dasharray:none;stroke-opacity:1" /><path
     d="m 16.582141,17.021167 h 0.0079"
     id="path37"
     style="fill:#ffffff;fill-opacity:1;stroke:#111a19;stroke-width:2.86587;stroke-dasharray:none;stroke-opacity:1" /><path
     d="m 20.464099,11.50926 -1.1638,6.842639 c -0.196854,1.151988 -0.294493,1.728377 -0.73702,2.07169 -0.944898,0.733084 -4.755201,0.692926 -5.647343,0 -0.442528,-0.343313 -0.540955,-0.919702 -0.737021,-2.072477 l -1.1638,-6.841852"
     id="path1"
     style="stroke-width:1.57483;stroke:#fbd794;stroke-opacity:1" /><path
     d="m 11.054486,11.50926 0.404731,-1.012616 a 4.6520496,4.6520496 0 0 1 8.639522,0 l 0.404731,1.012616"
     id="path2"
     style="stroke-width:1.57483;stroke:#fbd794;stroke-opacity:1" /><path
     d="M 10.267071,11.50926 H 21.290885"
     id="path3"
     style="stroke-width:1.57483;fill:#fbd794;fill-opacity:1;stroke:#fbd794;stroke-opacity:1" /><path
     d="M 15.778978,11.50926 18.928639,5.9973533"
     id="path4"
     style="stroke-width:1.57483;stroke:#fbd794;stroke-opacity:1" /><path
     d="m 14.212022,15.446337 h 0.0079"
     id="path5"
     style="stroke-width:1.675;stroke:#fbd794;stroke-opacity:1;stroke-dasharray:none;fill:none" /><path
     d="m 15.007311,18.595998 h 0.0079"
     id="path6"
     style="stroke-width:1.675;stroke:#fbd794;stroke-opacity:1;stroke-dasharray:none"
     inkscape:label="path6" /><path
     d="m 16.582141,17.021167 h 0.0079"
     id="path7"
     style="stroke-width:1.675;stroke:#fbd794;stroke-opacity:1;stroke-dasharray:none" /></svg>
