<?xml version="1.0" encoding="UTF-8"?>
<svg id="Layer_2" data-name="Layer 2" xmlns="http://www.w3.org/2000/svg" viewBox="0 0 129.09 163.75">
  <defs>
    <style>
      .cls-1 {
        fill: none;
      }

      .cls-2 {
        fill: #bb6830;
      }

      .cls-3 {
        fill: #111a19;
      }

      .cls-4 {
        fill: #fbd794;
      }

      .cls-5 {
        fill: #f8d794;
      }
    </style>
  </defs>
  <g id="svg7">
    <g>
      <path class="cls-5" d="M39.39,30.32c.25-.13.5-.22.77-.27.26-.06.52-.07.77-.04.24.02.44.09.61.19s.3.24.39.42c.11.21.13.4.07.57-.06.17-.18.3-.35.39-.17.09-.34.11-.52.08s-.32-.15-.41-.33c-.09-.18-.12-.34-.07-.5.04-.16.12-.28.24-.38-.15-.1-.34-.15-.59-.14-.24,0-.48.07-.7.18-.19.1-.36.24-.51.44-.15.19-.25.43-.3.73-.05.29-.04.65.05,1.07.09.42.27.9.55,1.45.35.68.7,1.18,1.06,1.5s.71.51,1.05.55c.34.05.66,0,.96-.16.2-.1.38-.25.55-.43s.3-.41.4-.68c.1-.27.13-.58.12-.94l.26-.03c.05.29.05.6,0,.94-.05.34-.18.67-.38.97-.2.31-.51.57-.93.78-.48.24-.97.34-1.49.29-.51-.05-1-.25-1.46-.59-.46-.34-.86-.83-1.18-1.46-.32-.63-.5-1.25-.51-1.85-.02-.6.11-1.14.38-1.62.27-.48.67-.86,1.19-1.13Z"/>
      <path class="cls-5" d="M45.69,27.63c.52-.19,1.03-.24,1.53-.16.5.08.96.32,1.38.72.42.4.77.99,1.05,1.78.28.78.38,1.46.3,2.04-.08.57-.28,1.05-.62,1.43s-.76.66-1.29.84c-.51.18-1.02.23-1.52.16-.5-.08-.96-.32-1.39-.71-.42-.4-.77-.99-1.05-1.77-.28-.78-.38-1.46-.31-2.04.08-.58.28-1.06.62-1.44.34-.38.77-.66,1.28-.84ZM45.78,27.88c-.47.17-.76.54-.89,1.13s0,1.43.39,2.52c.39,1.09.82,1.83,1.29,2.2.47.37.93.47,1.4.31.46-.17.76-.54.89-1.12.13-.58,0-1.42-.39-2.52-.39-1.09-.82-1.83-1.29-2.21-.47-.38-.94-.48-1.4-.32Z"/>
      <path class="cls-5" d="M53.08,22.74c.45-.09.87-.06,1.27.09.39.15.69.41.89.8l-.16.14c-.15-.3-.39-.53-.72-.69-.33-.16-.72-.2-1.18-.11-.48.09-.81.32-.98.68s-.18.9-.05,1.62l.12.65,1.93-.37.05.26-1.93.37.98,5.12c.07.36.19.59.36.69.17.1.43.12.78.05l.05.27c-.15.02-.37.05-.66.09-.29.04-.59.09-.88.15-.29.06-.58.12-.88.19-.3.07-.52.12-.67.16l-.05-.27c.35-.07.59-.18.71-.33s.15-.41.08-.77l-.98-5.12-1.02.2-.05-.26,1.02-.2c-.09-.48-.12-.89-.09-1.25.03-.36.12-.67.27-.94.17-.29.4-.54.71-.76s.67-.37,1.07-.44ZM56.74,21.51c.24-.05.46-.05.65-.03.19.03.37.08.53.16.15.08.27.18.36.3.09.12.16.26.18.41.04.2,0,.37-.1.52-.1.15-.25.25-.45.28-.19.04-.36,0-.53-.09-.16-.1-.27-.25-.31-.46-.03-.18-.01-.33.06-.46.08-.13.19-.23.35-.29-.04-.07-.12-.12-.24-.16-.12-.03-.27-.04-.44,0-.2.04-.36.11-.48.22-.12.11-.21.25-.26.41-.07.2-.08.48-.04.83s.13.9.27,1.64l.06.33,1.37-.26.05.25-1.37.26.96,4.99c.08.42.25.67.52.77.27.09.61.1,1.03.02l.05.27c-.2.03-.48.07-.84.13-.36.06-.74.12-1.14.2-.29.06-.58.12-.86.18-.28.07-.5.12-.64.16l-.05-.27c.35-.07.58-.18.71-.33.12-.16.15-.41.08-.77l-.98-5.12-1.02.2-.05-.26,1.02-.2c-.1-.5-.16-.93-.18-1.28-.02-.35-.01-.65.04-.91.05-.26.13-.5.26-.72.13-.23.32-.43.56-.59.24-.17.52-.28.84-.34Z"/>
      <path class="cls-5" d="M62.31,24.44c.76-.03,1.37.17,1.82.62.45.44.7,1.16.74,2.13l-4.58.2-.02-.25,3.35-.15c0-.42-.05-.81-.15-1.17-.1-.36-.25-.64-.45-.85s-.44-.31-.73-.29c-.4.02-.74.23-1.03.64s-.45,1.05-.47,1.92l.04.05c-.01.13-.02.27-.02.43s0,.31,0,.47c.03.59.14,1.09.35,1.51.21.42.47.73.79.94.32.21.64.3.97.29.26-.01.5-.06.74-.16.23-.09.44-.24.63-.44.19-.2.35-.46.49-.79l.26.09c-.08.29-.23.57-.43.85s-.47.51-.79.69c-.32.18-.7.28-1.13.3-.62.03-1.16-.09-1.62-.36-.46-.27-.82-.65-1.08-1.14-.26-.5-.4-1.07-.43-1.73-.03-.76.06-1.42.28-1.98s.54-1,.97-1.32.94-.49,1.53-.52Z"/>
      <path class="cls-5" d="M69.47,24.61c.76.06,1.33.34,1.72.84.39.5.54,1.23.46,2.21l-4.57-.38v-.25s3.35.28,3.35.28c.05-.42.05-.82,0-1.18-.06-.37-.17-.66-.34-.9-.17-.23-.4-.36-.69-.38-.4-.03-.77.14-1.11.51-.34.37-.58.99-.71,1.85l.03.06c-.03.13-.05.27-.07.42s-.04.31-.05.47c-.05.59,0,1.1.16,1.54s.38.78.67,1.03c.29.25.6.38.92.41.26.02.51,0,.75-.06.24-.06.47-.18.68-.35.21-.17.41-.41.58-.72l.25.12c-.12.28-.3.54-.53.79-.24.25-.53.45-.87.59-.34.14-.73.19-1.16.16-.62-.05-1.14-.24-1.57-.56-.42-.32-.73-.74-.93-1.27-.2-.52-.27-1.12-.21-1.77.06-.76.24-1.4.52-1.93.29-.53.66-.92,1.13-1.19s.99-.37,1.58-.32Z"/>
      <path class="cls-5" d="M73.58,30.59c.22.04.4.16.53.35.13.19.18.4.14.62-.04.22-.16.4-.35.53-.19.13-.4.18-.62.14-.22-.04-.4-.16-.53-.35s-.18-.4-.14-.62c.04-.22.16-.4.35-.53.19-.13.4-.18.62-.14Z"/>
      <path class="cls-5" d="M83.46,27.65c.26.09.5.21.73.36.22.15.41.33.56.52.15.19.24.38.28.57s.03.38-.03.57c-.08.22-.2.37-.36.45-.16.08-.34.08-.53.02-.18-.06-.32-.17-.42-.32-.1-.15-.11-.33-.04-.52.07-.19.17-.32.31-.4.14-.08.29-.11.44-.1-.03-.18-.13-.35-.31-.52s-.38-.3-.62-.38c-.2-.07-.43-.09-.67-.07-.24.03-.48.12-.73.29-.25.17-.5.42-.74.78-.24.35-.46.82-.67,1.4-.25.72-.37,1.32-.35,1.8.02.48.12.86.33,1.14.2.28.46.47.78.58.21.07.44.11.69.1.25,0,.5-.07.76-.18.26-.12.51-.31.76-.57l.2.17c-.17.23-.4.45-.68.65-.28.2-.6.33-.96.4-.36.07-.77.02-1.21-.13-.51-.18-.92-.47-1.24-.87-.32-.4-.51-.89-.59-1.46s0-1.19.24-1.86c.23-.67.56-1.22.98-1.65.42-.43.9-.71,1.43-.85.54-.14,1.08-.11,1.64.08Z"/>
      <path class="cls-5" d="M85.44,35.99c-.32-.16-.56-.35-.74-.59-.17-.24-.27-.49-.28-.77-.01-.28.05-.56.19-.85.17-.34.39-.58.65-.72.27-.14.56-.21.87-.22.31,0,.63,0,.95.06.32.05.62.09.91.13.29.04.54.05.75.02.21-.03.36-.13.45-.31l.36-.72c.16-.33.24-.6.22-.82-.01-.22-.09-.4-.22-.54-.13-.14-.3-.26-.5-.36-.19-.1-.42-.17-.66-.23-.25-.06-.48-.03-.7.08.13.1.22.25.27.42.05.18.02.36-.07.56s-.23.32-.41.37-.37.03-.56-.07c-.23-.11-.35-.26-.39-.46-.03-.2,0-.38.08-.56.1-.2.23-.34.39-.41.16-.07.35-.13.56-.16.24-.04.52-.03.85.02.33.05.67.16,1.03.34.32.16.57.33.76.51.19.19.32.38.4.6.11.29.13.58.06.88s-.2.63-.38,1.01l-1.6,3.24c-.1.19-.14.35-.12.46.02.11.09.2.21.26.09.04.18.06.27.06s.22-.02.37-.05l.03.26c-.22.04-.43.07-.62.08-.19,0-.41-.05-.66-.17-.23-.11-.39-.24-.5-.39-.11-.15-.16-.32-.16-.51s.06-.4.17-.63c-.38.25-.76.38-1.14.41-.38.03-.75-.05-1.11-.23ZM86.09,35.73c.26.13.53.17.83.13.29-.04.6-.16.93-.37l1.13-2.28c-.16.09-.35.13-.57.13-.22,0-.46,0-.72-.02-.25-.01-.51,0-.76.02s-.48.11-.71.24c-.22.13-.41.35-.56.67-.15.31-.19.6-.12.87s.26.47.54.62Z"/>
      <path class="cls-5" d="M96.54,34.35c.2.13.34.28.44.46.1.18.15.36.15.54,0,.18-.05.35-.16.51-.12.18-.28.3-.48.37s-.4.04-.59-.09c-.15-.1-.25-.24-.31-.41-.05-.17-.02-.35.1-.53.09-.14.21-.23.34-.28.14-.05.28-.07.41-.07,0-.11-.06-.19-.16-.26-.22-.15-.48-.21-.75-.2s-.55.08-.82.2c-.27.12-.52.28-.74.47-.23.19-.41.38-.54.59l-1.51,2.31c-.23.36-.28.66-.16.92s.37.5.73.73l-.15.23c-.16-.12-.39-.28-.69-.49s-.62-.43-.96-.65c-.25-.16-.5-.32-.75-.46-.25-.15-.44-.26-.57-.33l.15-.23c.3.19.55.28.74.25.2-.03.4-.19.59-.5l2.22-3.41c.21-.33.31-.61.3-.84-.01-.23-.18-.45-.5-.66l.15-.23c.22.17.44.33.65.47.21.14.42.26.63.36s.41.18.6.23l-.89,1.36c.22-.16.47-.3.76-.41.29-.12.58-.18.89-.19.3,0,.58.07.84.24Z"/>
      <path class="cls-5" d="M100.91,37.73c.29.25.5.55.64.9.14.35.1.74-.1,1.15h-.21c.14-.37.17-.69.08-.98-.09-.29-.26-.55-.53-.77-.39-.33-.88-.41-1.49-.23-.6.18-1.26.69-1.97,1.53-.46.53-.78,1.02-.98,1.46-.2.44-.27.83-.22,1.18.05.35.22.64.51.89.28.24.63.33,1.06.29.43-.05.86-.28,1.3-.7v.24c-.48.46-.97.7-1.47.75s-.97-.13-1.43-.52c-.41-.35-.68-.75-.82-1.21-.14-.46-.12-.96.06-1.49.18-.53.52-1.1,1.03-1.7.51-.6,1.04-1.01,1.59-1.23.55-.22,1.08-.29,1.58-.19.51.09.96.31,1.36.65ZM105.14,36.98l-5.7,6.67c-.25.3-.39.56-.4.8-.01.23.12.47.41.72l-.18.21c-.19-.19-.38-.38-.59-.55-.19-.16-.38-.31-.57-.44-.19-.13-.38-.23-.57-.3l5.7-6.67c.25-.3.39-.56.4-.79.02-.23-.12-.47-.41-.72l.18-.21c.19.2.39.38.59.55.19.16.38.31.58.43.19.13.38.23.57.31Z"/>
      <path class="cls-5" d="M101.17,51.29c-.28-.36-.51-.73-.69-1.11-.17-.38-.26-.73-.25-1.05,0-.32.14-.58.38-.77.24-.19.52-.25.84-.19.32.06.65.22,1,.48l-.12.19c-.17-.11-.35-.16-.57-.14-.21.02-.41.1-.59.24-.31.25-.44.58-.38,1,.06.42.27.86.63,1.33.24.31.51.58.82.81.31.23.63.37.96.42s.65-.05.95-.28c.23-.18.35-.4.37-.68.02-.28-.15-.65-.52-1.12l-.59-.76c-.17-.22-.32-.44-.44-.68-.13-.23-.18-.46-.18-.67s.12-.41.35-.59c.23-.18.53-.26.9-.24s.86.2,1.48.54v.19c-.3-.14-.58-.24-.84-.31s-.48-.04-.65.09c-.22.17-.2.42.06.75l1,1.28c.22.29.39.58.5.89.11.31.13.6.07.89s-.23.55-.52.77c-.32.25-.7.38-1.14.4-.44.01-.91-.12-1.4-.39s-.97-.71-1.44-1.31ZM105.32,48.13c-.26-.33-.44-.68-.54-1.04-.1-.36-.09-.71.02-1.06.12-.34.36-.66.74-.96.38-.29.74-.45,1.11-.48.36-.03.71.05,1.03.23s.62.45.88.78c.27.34.45.69.55,1.05s.09.71-.03,1.05-.36.66-.74.96c-.38.29-.75.45-1.11.48-.36.03-.71-.05-1.03-.23s-.62-.44-.88-.79ZM105.5,47.99c.2.26.46.38.78.37.32-.01.75-.23,1.3-.66s.87-.79.96-1.1c.09-.31.03-.59-.17-.85-.2-.25-.46-.37-.78-.36-.32,0-.76.23-1.3.65s-.86.79-.95,1.1c-.09.31-.03.59.16.84ZM108.86,47.75l-.07-.24c.31-.09.64-.08,1,.01s.64.27.83.52c.14.18.2.36.19.55s-.12.36-.32.51c-.21.17-.4.22-.58.18-.17-.05-.31-.13-.4-.24-.08-.1-.12-.23-.12-.37,0-.14.08-.29.22-.42s.39-.25.72-.33l.07.16c-.33-.2-.61-.32-.82-.35s-.46-.02-.73.03Z"/>
      <path class="cls-5" d="M106.5,54.76c-.18-.31-.28-.6-.3-.9-.02-.29.05-.56.19-.8.14-.24.35-.44.62-.6.33-.19.64-.28.94-.25.3.03.58.13.85.29.27.16.52.35.77.57s.47.42.69.61c.22.19.43.33.62.43.19.09.38.09.55-.01l.69-.41c.31-.19.52-.37.63-.56.11-.19.15-.38.11-.57-.04-.19-.11-.38-.23-.58-.11-.19-.25-.37-.43-.55-.18-.18-.39-.29-.62-.32.05.16.05.33,0,.5-.06.18-.18.32-.37.43-.19.11-.37.14-.55.08-.18-.06-.32-.18-.43-.36-.13-.22-.15-.42-.07-.6s.2-.32.38-.43c.19-.11.38-.16.56-.13.18.03.36.08.55.17.22.1.45.26.7.48.25.22.47.5.67.85.18.31.3.59.36.85.06.26.06.5,0,.72-.06.3-.21.56-.43.77-.22.21-.51.42-.87.63l-3.11,1.84c-.19.11-.3.22-.35.32s-.04.22.03.34c.05.08.11.15.19.2.08.05.19.11.34.16l-.12.24c-.21-.09-.4-.18-.56-.27-.16-.1-.31-.26-.45-.5-.13-.22-.2-.42-.21-.6,0-.19.04-.36.14-.51s.27-.3.49-.43c-.45,0-.85-.1-1.18-.28-.33-.18-.6-.45-.8-.8ZM107.19,54.9c.15.25.35.43.62.56.27.13.59.2.98.2l2.19-1.29c-.18-.01-.36-.08-.55-.2s-.38-.26-.59-.41-.42-.28-.64-.4-.46-.18-.72-.19-.54.07-.83.25c-.3.18-.49.4-.57.66-.08.27-.04.54.12.81Z"/>
      <path class="cls-5" d="M116.86,59.9c.11.28.16.55.16.79,0,.24-.05.46-.15.65-.1.21-.28.4-.51.55-.24.15-.55.3-.93.45l-3.25,1.22c-.34.13-.55.29-.61.47-.07.19-.04.45.08.78l-.25.1c-.04-.14-.11-.36-.21-.64-.09-.29-.19-.57-.29-.83-.1-.27-.2-.53-.31-.78-.11-.25-.19-.44-.25-.57l.25-.1c.11.29.25.48.42.55.17.08.42.05.76-.08l3.52-1.32c.25-.09.48-.2.68-.31.2-.11.34-.26.42-.44.08-.18.07-.41-.04-.71-.12-.32-.32-.56-.61-.74-.29-.17-.63-.27-1.02-.29-.39-.02-.79.05-1.21.21l-2.7,1.01c-.34.13-.55.27-.63.44s-.06.4.05.69l-.26.1c-.04-.13-.1-.33-.19-.59-.08-.26-.18-.52-.28-.79-.1-.27-.21-.54-.33-.82-.12-.28-.21-.49-.27-.62l.26-.1c.12.33.27.55.45.64s.43.08.77-.05l3.81-1.43c.37-.14.61-.3.74-.5s.12-.47-.01-.83l.25-.1c.07.27.16.52.25.77.09.24.19.46.3.66.11.2.22.39.35.54l-1.44.54c.61.01,1.09.16,1.46.44s.62.62.76,1ZM118.23,63.57c.11.28.16.55.16.79,0,.24-.05.46-.15.65-.1.21-.28.4-.51.55-.24.15-.55.3-.93.45l-3.25,1.22c-.34.13-.54.29-.61.47-.07.19-.04.45.08.78l-.26.1c-.04-.14-.11-.36-.21-.64-.09-.29-.19-.57-.29-.83-.1-.27-.21-.53-.31-.78-.11-.25-.19-.44-.25-.57l.26-.1c.11.29.25.48.42.55.17.08.42.05.76-.08l3.52-1.32c.25-.09.48-.2.68-.31s.34-.26.42-.44c.08-.18.07-.41-.04-.71-.12-.32-.32-.56-.61-.74s-.62-.27-1.01-.29-.79.05-1.2.21l1.12-.46c.64,0,1.14.16,1.48.46s.59.64.74,1.03Z"/>
      <path class="cls-5" d="M119.92,70.72c.14.75.02,1.38-.36,1.88s-1.05.85-2.01,1.02l-.82-4.51.24-.06.6,3.3c.42-.06.8-.16,1.14-.31.34-.15.6-.34.78-.56s.24-.48.19-.77c-.07-.39-.33-.7-.78-.93-.45-.23-1.1-.3-1.97-.2l-.04.05c-.13,0-.27.02-.43.04-.15.02-.31.04-.46.07-.58.11-1.06.29-1.44.55-.38.26-.66.57-.82.91s-.21.68-.15,1c.05.26.13.49.25.71.12.22.3.4.52.57.22.16.51.29.85.37l-.06.27c-.3-.04-.6-.15-.9-.31-.3-.16-.57-.39-.79-.69-.23-.29-.38-.65-.46-1.08-.11-.61-.07-1.17.13-1.66.2-.49.53-.9.99-1.22s1.01-.55,1.66-.67c.75-.14,1.42-.14,2,0s1.06.4,1.44.78c.37.38.61.86.72,1.44Z"/>
      <path class="cls-5" d="M120.68,76.97c.02.35-.02.64-.12.89s-.19.43-.28.55c-.22.3-.05.46.5.49l.02.3c-.24,0-.53,0-.87.01-.33.01-.78.03-1.34.07l-.02-.3c.32-.07.62-.18.92-.32.29-.14.53-.34.71-.6s.26-.58.23-.96c-.02-.3-.12-.55-.3-.74-.18-.19-.44-.28-.76-.26-.26.02-.48.11-.65.27s-.34.38-.48.64c-.15.26-.3.54-.48.85-.19.34-.38.65-.58.93-.2.28-.42.51-.67.69-.25.18-.55.27-.91.3-.4.02-.74-.06-1.02-.25-.28-.19-.5-.45-.66-.77-.16-.32-.25-.69-.27-1.08-.01-.19,0-.37.01-.54.02-.17.05-.34.11-.5.04-.09.08-.18.14-.28.06-.09.12-.19.18-.28.06-.09.06-.17-.02-.23-.08-.06-.23-.11-.44-.13l-.02-.3c.28,0,.62,0,1.01-.02.4-.02.93-.04,1.58-.08l.02.3c-.48.09-.9.2-1.26.34s-.63.33-.82.58c-.19.25-.27.6-.24,1.03.01.17.06.35.15.52.09.17.23.31.42.42.19.11.43.16.74.14.38-.02.68-.18.91-.47.23-.29.46-.66.7-1.1.18-.32.36-.63.54-.91.18-.28.39-.52.63-.7.24-.18.54-.29.89-.31.39-.02.71.05.97.21.26.16.45.39.59.67.13.29.21.6.23.94Z"/>
      <path class="cls-5" d="M115.38,81.97c0,.23-.09.42-.26.58-.17.16-.37.24-.59.23-.22,0-.42-.09-.58-.26-.16-.17-.24-.37-.23-.59,0-.23.09-.42.26-.58s.37-.24.59-.23c.23,0,.42.09.58.26.16.17.24.37.23.59Z"/>
      <path class="cls-5" d="M121.24,93.95l-2.12-.49-.43,1.87-.25-.06.43-1.88-4.9-1.13c-.4-.09-.69-.08-.89.02s-.32.29-.38.54,0,.5.16.73c.16.23.48.47.93.72l-.12.24c-.47-.2-.85-.46-1.12-.79-.28-.33-.36-.75-.24-1.26.07-.29.16-.52.27-.68.11-.17.26-.31.42-.42.24-.14.5-.22.79-.23.29,0,.65.04,1.1.14l4.24.98.28-1.22.25.06-.28,1.22,1.94.45c-.04.21-.07.42-.09.62-.02.2-.02.39,0,.56Z"/>
      <path class="cls-5" d="M117.57,99.44c-.25.72-.67,1.21-1.25,1.46s-1.33.22-2.26-.11l1.51-4.33.24.07-1.11,3.17c.39.16.78.25,1.14.29.37.04.69,0,.95-.1.27-.1.45-.3.54-.57.13-.38.06-.78-.21-1.2-.27-.42-.81-.8-1.61-1.15l-.06.02c-.12-.06-.25-.12-.39-.18-.14-.06-.29-.12-.44-.17-.56-.19-1.07-.27-1.53-.23-.46.04-.85.17-1.16.39-.31.22-.52.48-.63.79-.08.25-.13.49-.13.74,0,.25.06.5.17.75.11.25.3.5.55.74l-.18.21c-.24-.18-.45-.42-.63-.72-.18-.29-.3-.62-.35-.99-.05-.37,0-.75.14-1.16.21-.59.52-1.05.93-1.37.42-.33.9-.52,1.46-.58.56-.06,1.15.02,1.77.24.72.25,1.3.58,1.74.99.44.41.73.87.86,1.39.14.52.11,1.05-.09,1.61Z"/>
      <path class="cls-5" d="M109.11,101.74c.16-.32.36-.56.59-.74.24-.17.49-.26.77-.28s.56.05.85.2c.34.17.58.39.72.66.14.27.21.56.22.87s-.01.63-.06.95c-.05.32-.09.62-.14.91-.04.29-.05.54-.02.75.03.21.13.36.31.45l.72.36c.33.16.6.24.82.23.22-.01.4-.08.54-.22s.26-.3.36-.5c.1-.19.17-.41.23-.66.06-.25.03-.48-.07-.7-.11.13-.25.22-.42.27-.18.05-.36.02-.56-.08-.19-.1-.32-.24-.37-.42-.05-.18-.03-.37.07-.56.11-.22.27-.35.46-.39.2-.03.38,0,.56.08.2.1.34.23.41.4.07.16.13.35.16.56.04.24.03.52-.03.85-.05.33-.17.67-.35,1.03-.16.32-.33.57-.52.76-.19.19-.39.32-.6.4-.29.11-.58.13-.88.06-.3-.07-.63-.2-1.01-.39l-3.23-1.62c-.19-.1-.35-.14-.46-.12s-.2.09-.26.21c-.04.09-.06.18-.06.27s.02.22.05.37l-.26.03c-.04-.22-.07-.43-.08-.62s.05-.41.17-.65c.11-.23.24-.39.39-.5.15-.11.32-.16.51-.16.19,0,.4.06.63.18-.24-.38-.38-.76-.4-1.14s.05-.75.24-1.11ZM109.36,102.39c-.13.26-.17.53-.14.83.04.29.16.6.36.93l2.28,1.14c-.09-.16-.13-.35-.13-.57s0-.46.02-.71.01-.51-.01-.76-.1-.49-.24-.71-.35-.41-.66-.56-.6-.2-.87-.12-.48.25-.62.54Z"/>
      <path class="cls-5" d="M107.71,107.53c-.12.19-.29.31-.52.37-.23.05-.44.02-.63-.1-.19-.12-.31-.29-.37-.52-.05-.23-.02-.44.1-.63.12-.19.29-.31.52-.37.23-.05.44-.02.63.1.19.12.31.29.37.52.05.23.02.44-.1.63Z"/>
      <path class="cls-5" d="M106.83,117.74c-.5.58-1.07.87-1.7.89-.63.02-1.32-.29-2.06-.94l3.01-3.46.19.15-2.2,2.53c.31.29.63.52.96.69.33.17.63.26.92.26.29,0,.53-.11.72-.33.26-.3.34-.7.24-1.19s-.46-1.05-1.07-1.66h-.06c-.09-.1-.19-.21-.3-.32-.11-.11-.23-.21-.34-.32-.45-.39-.89-.65-1.33-.78-.45-.14-.85-.16-1.22-.07-.37.09-.66.25-.88.5-.17.2-.3.41-.39.64s-.13.48-.12.76c.01.28.09.57.24.9l-.25.13c-.15-.26-.26-.56-.32-.9-.06-.34-.05-.69.04-1.05.09-.36.28-.7.56-1.03.41-.47.87-.78,1.38-.93s1.03-.15,1.57,0c.54.15,1.06.45,1.55.88.58.5.99,1.02,1.25,1.57.26.54.35,1.08.29,1.61s-.29,1.02-.68,1.46Z"/>
      <path class="cls-5" d="M100.83,123.63c-.25.22-.48.36-.71.44-.22.08-.44.11-.66.09-.24-.02-.47-.11-.69-.26-.22-.15-.48-.39-.77-.73l-2.28-2.62c-.24-.27-.46-.41-.66-.41-.2,0-.43.12-.7.35l-.18-.21c.12-.09.29-.23.53-.42.24-.19.46-.38.68-.57.22-.19.42-.38.62-.57s.34-.33.44-.43l.18.21c-.24.2-.36.4-.37.58-.01.18.1.41.34.69l2.47,2.83c.18.2.36.37.54.52.18.14.37.21.58.22.21,0,.43-.1.66-.3.27-.24.45-.53.51-.86.07-.34.04-.69-.08-1.06s-.33-.72-.62-1.06l-1.9-2.18c-.24-.27-.45-.42-.63-.43s-.39.08-.63.29l-.18-.21c.11-.08.27-.21.49-.38.21-.17.43-.35.65-.54.21-.19.43-.39.65-.6s.38-.37.49-.47l.18.21c-.27.23-.42.45-.45.65-.03.2.08.43.32.71l2.67,3.07c.26.29.5.47.72.52.23.05.48-.05.77-.3l.18.21c-.23.16-.44.33-.63.5-.19.17-.36.33-.51.51-.15.17-.28.35-.39.52l-1.01-1.16c.22.59.25,1.11.1,1.55s-.4.8-.73,1.09Z"/>
      <path class="cls-5" d="M94.34,128.38c-.2.13-.39.2-.59.22-.2.02-.38,0-.55-.08-.17-.07-.3-.19-.41-.35-.12-.18-.17-.38-.15-.59.02-.21.12-.38.31-.5.15-.1.32-.14.5-.12.18.02.33.12.45.3.09.14.13.28.12.43-.01.15-.04.28-.1.4.1.04.2.02.3-.04.22-.15.38-.35.48-.61.1-.26.14-.54.13-.83,0-.3-.05-.58-.14-.87-.08-.28-.19-.53-.33-.73l-1.52-2.3c-.23-.35-.49-.52-.78-.5s-.6.14-.96.38l-.15-.23c.17-.1.41-.25.72-.44s.63-.4.97-.62c.25-.16.49-.33.72-.5.23-.17.41-.3.53-.39l.15.23c-.3.2-.47.39-.53.58-.05.19.02.44.22.74l2.25,3.39c.22.33.43.53.65.61s.49.01.8-.2l.15.23c-.25.13-.48.27-.69.41-.21.14-.4.28-.58.44-.17.15-.32.31-.45.46l-.9-1.35c.06.26.09.55.08.86,0,.31-.07.61-.18.89-.11.28-.3.51-.55.68Z"/>
      <path class="cls-5" d="M90.53,130.5l-2.66-4.96c-.17-.32-.36-.5-.55-.55s-.45.02-.76.19l-.13-.24c.13-.06.34-.16.61-.29s.54-.27.81-.41c.26-.14.52-.29.78-.44.26-.15.45-.27.58-.35l.13.24c-.31.17-.51.34-.58.53-.07.19-.02.44.15.76l1.92,3.59c.18.34.38.56.59.66.21.1.48.06.82-.12l.13.24c-.26.11-.5.22-.73.35-.22.12-.43.25-.61.38-.19.14-.35.27-.49.42ZM92.59,132.92c-.2.11-.41.13-.63.06-.22-.07-.39-.2-.5-.4-.11-.2-.12-.41-.06-.63.07-.22.2-.39.4-.49.2-.11.41-.13.63-.06s.39.2.49.4.13.41.06.63c-.07.22-.2.39-.4.49Z"/>
      <path class="cls-5" d="M85.69,132.78c-.26.11-.52.18-.78.21-.27.04-.52.03-.77-.02-.23-.04-.43-.12-.59-.24s-.28-.27-.36-.45c-.09-.22-.1-.41-.03-.57.07-.17.2-.29.38-.36.18-.07.35-.08.53-.04.18.05.3.17.38.36.08.18.09.35.03.51-.05.15-.14.27-.26.36.14.11.33.17.58.18.24.01.48-.03.71-.13.2-.08.38-.21.54-.39.16-.18.28-.41.36-.7.08-.29.09-.65.03-1.07-.05-.42-.2-.92-.44-1.49-.29-.7-.61-1.23-.94-1.58-.33-.35-.67-.56-1-.63-.33-.07-.66-.04-.97.09-.21.09-.4.21-.59.38s-.33.38-.45.64-.18.57-.19.93h-.26c-.03-.28,0-.59.07-.93.08-.34.23-.65.45-.94s.56-.53.99-.71c.5-.21,1-.26,1.5-.17.51.09.98.32,1.41.7.43.38.79.9,1.06,1.55.27.66.4,1.28.37,1.88-.03.6-.2,1.13-.5,1.59-.31.46-.73.8-1.28,1.03Z"/>
      <path class="cls-5" d="M81.11,137.87l-1.24-4.7c-.07.63-.27,1.1-.6,1.42-.33.32-.71.54-1.14.65-.32.08-.6.11-.83.08-.24-.03-.45-.1-.63-.21-.2-.13-.37-.31-.51-.54-.13-.23-.26-.56-.37-.99l-.88-3.36c-.09-.35-.23-.57-.41-.66-.18-.09-.44-.09-.79,0l-.07-.26c.15-.03.37-.08.66-.14.3-.06.58-.13.86-.21.28-.07.54-.15.81-.23s.46-.15.59-.19l.07.26c-.3.08-.5.2-.59.36s-.09.41,0,.77l.96,3.63c.07.26.15.49.25.7.1.21.24.36.42.45.18.1.42.1.73.02.34-.09.62-.27.83-.53.21-.26.35-.59.41-.97s.03-.8-.08-1.24l-.74-2.8c-.09-.35-.22-.57-.38-.67-.16-.09-.39-.1-.69-.02l-.07-.26c.14-.03.34-.07.61-.13.27-.06.54-.12.82-.19.28-.07.56-.15.85-.24s.5-.16.65-.2l.07.26c-.34.09-.57.22-.69.38-.11.16-.12.42-.03.77l1.89,7.17c.1.38.24.64.42.78.18.14.46.17.83.07l.07.26c-.27.05-.54.1-.79.17-.24.06-.47.14-.69.23-.21.09-.41.19-.58.29Z"/>
      <path class="cls-5" d="M65.8,136.95c-.3.02-.57,0-.8-.07-.23-.07-.43-.18-.58-.32-.18-.16-.3-.38-.38-.65-.08-.27-.13-.61-.16-1.02l-.25-3.46c-.03-.36-.12-.6-.28-.72-.16-.12-.42-.17-.77-.14l-.02-.27c.15,0,.37,0,.68-.02.3,0,.6-.02.88-.04.29-.02.56-.05.83-.08.27-.03.48-.06.61-.08l.02.27c-.31.02-.53.1-.65.24-.12.14-.17.39-.14.75l.27,3.75c.02.27.05.51.1.74.05.22.15.4.3.53.15.13.38.18.69.16.34-.02.63-.15.88-.38.25-.23.44-.52.56-.89.13-.37.17-.77.14-1.21l.12,1.2c-.19.61-.48,1.04-.86,1.29-.38.25-.78.39-1.2.42ZM69.7,136.67c-.3.02-.57,0-.8-.07-.23-.07-.42-.18-.58-.32-.18-.16-.3-.38-.39-.65-.08-.27-.13-.61-.16-1.02l-.25-3.46c-.03-.36-.12-.6-.28-.72-.16-.12-.42-.17-.77-.14l-.02-.27c.15,0,.37,0,.68-.02.3,0,.6-.02.88-.04.29-.02.56-.05.83-.08.27-.03.48-.06.61-.08l.02.27c-.31.02-.53.1-.65.24-.12.14-.17.39-.14.75l.27,3.75c.02.27.05.51.1.74.05.22.15.4.3.53s.38.18.69.16c.34-.02.63-.15.88-.38.25-.23.44-.52.56-.89s.17-.77.14-1.22l-.21-2.88c-.03-.36-.11-.6-.25-.73-.14-.12-.36-.17-.67-.15l-.02-.27c.14,0,.34,0,.62-.01s.55-.02.84-.04c.29-.02.58-.05.88-.08s.53-.06.67-.08l.02.27c-.35.02-.6.11-.75.25-.14.14-.2.39-.17.76l.29,4.06c.03.39.12.67.27.85.15.18.42.25.8.22l.02.27c-.28,0-.55,0-.81.02-.25.02-.49.05-.72.1-.23.05-.43.11-.62.18l-.11-1.53c-.18.58-.46,1-.83,1.27-.37.27-.76.42-1.18.45Z"/>
      <path class="cls-5" d="M58.51,136.57c-.76-.08-1.33-.37-1.71-.87s-.52-1.24-.42-2.22l4.57.47v.25s-3.35-.34-3.35-.34c-.06.42-.07.81-.02,1.18s.16.67.32.9c.16.23.39.37.68.4.4.04.77-.12,1.12-.49s.59-.98.74-1.83l-.03-.06c.03-.13.06-.27.08-.42.03-.15.04-.31.06-.46.06-.59.02-1.1-.13-1.54s-.36-.79-.65-1.04c-.28-.25-.59-.39-.92-.43-.26-.03-.51-.01-.75.05s-.47.17-.69.34-.42.41-.6.71l-.25-.13c.12-.27.31-.53.55-.78.24-.25.54-.44.88-.57.35-.13.73-.18,1.16-.14.62.06,1.14.26,1.55.59s.71.76.9,1.29c.19.53.25,1.12.18,1.78-.08.76-.26,1.4-.56,1.92-.3.52-.68.91-1.15,1.16-.47.25-1,.35-1.58.29Z"/>
      <path class="cls-5" d="M50.2,135.05c-.32-.08-.58-.19-.77-.32-.19-.14-.34-.3-.45-.49-.12-.21-.18-.45-.19-.72s.04-.62.15-1.05l.83-3.37c.09-.35.07-.61-.04-.77-.12-.16-.35-.29-.69-.37l.07-.27c.14.04.36.11.65.19.29.09.58.16.85.23.28.07.55.13.82.18s.47.09.61.12l-.07.26c-.3-.07-.53-.06-.69.03s-.28.32-.37.67l-.9,3.65c-.06.26-.1.51-.11.73-.01.23.04.43.15.6s.32.29.62.37c.35.09.69.06,1-.07.31-.14.59-.36.82-.67.23-.31.4-.68.51-1.11l.69-2.8c.09-.35.08-.61-.01-.77-.1-.16-.29-.27-.6-.35l.07-.27c.13.04.33.1.59.18.26.08.53.15.81.22.28.07.57.13.86.19.3.06.52.1.66.13l-.07.27c-.34-.08-.61-.08-.79,0-.18.09-.31.31-.4.67l-.97,3.95c-.09.38-.09.67,0,.89.09.21.32.37.69.46l-.07.27c-.26-.09-.52-.17-.77-.23-.24-.06-.48-.1-.71-.13s-.45-.03-.65-.02l.37-1.49c-.36.52-.76.84-1.21.97s-.88.14-1.31.03Z"/>
      <path class="cls-5" d="M43.74,135.04l.77-2.03-1.8-.68.09-.24,1.8.68,1.78-4.7c.14-.38.18-.67.1-.88s-.24-.36-.48-.45c-.24-.09-.49-.07-.74.06-.25.13-.54.41-.84.83l-.22-.15c.26-.44.57-.78.93-1.01.36-.23.79-.26,1.28-.07.28.1.49.23.64.36.15.14.27.3.36.48.11.25.15.52.12.81-.03.29-.13.64-.29,1.07l-1.54,4.07,1.17.44-.09.24-1.17-.44-.71,1.86c-.21-.07-.41-.13-.6-.17s-.38-.07-.56-.07Z"/>
      <path class="cls-5" d="M42.95,126.69c-.2-.1-.34-.25-.42-.47-.08-.22-.07-.43.02-.63.1-.2.25-.35.47-.42s.43-.07.63.02c.2.1.35.25.42.47.08.22.07.43-.02.63s-.25.35-.47.42c-.22.08-.43.07-.63-.02Z"/>
      <path class="cls-5" d="M30.95,129.82c-.2-.13-.37-.28-.49-.43-.12-.16-.21-.32-.27-.48-.05-.16-.07-.31-.05-.47.02-.15.07-.3.15-.43.11-.17.25-.27.43-.31.18-.04.35,0,.52.11.16.1.27.25.32.43.05.18.02.37-.1.55-.1.15-.22.25-.37.29-.14.04-.3.03-.45-.03-.02.08,0,.17.06.28.06.11.17.21.32.31.17.11.33.17.5.17.17,0,.32-.03.47-.11.19-.1.39-.29.61-.57.22-.29.53-.74.94-1.37l.18-.28-1.17-.76.14-.22,1.17.76,2.77-4.26c.23-.36.28-.66.15-.92-.13-.25-.37-.5-.73-.73l.15-.23c.16.12.39.28.69.49.3.21.62.42.96.65.25.16.5.31.75.46.25.15.44.26.57.33l-.15.23c-.3-.19-.55-.28-.74-.25s-.4.19-.59.5l-2.84,4.37.87.57-.14.22-.87-.57c-.28.43-.53.78-.76,1.04-.22.27-.44.48-.66.63-.21.16-.44.27-.68.34-.25.07-.53.08-.81.04s-.57-.16-.84-.33Z"/>
      <path class="cls-5" d="M26.83,122.39l3.46-4.19c.25-.3.38-.57.39-.8s-.13-.47-.42-.71l.17-.21c.19.19.39.37.6.54.19.16.39.3.58.43.19.13.39.22.58.29l-.98,1.18c.53-.3,1.02-.41,1.47-.34.46.07.84.23,1.16.5.23.19.41.4.53.61.12.21.19.42.2.64.02.24-.04.48-.17.74s-.32.54-.58.85l-2.08,2.52c-.25.3-.38.57-.39.8s.13.47.42.71l-.17.21c-.2-.2-.4-.38-.6-.54-.19-.16-.39-.3-.58-.42-.2-.12-.39-.22-.57-.3l3.25-3.94c.17-.21.32-.41.43-.6.12-.2.17-.39.15-.59-.02-.2-.15-.39-.39-.59-.26-.22-.56-.33-.89-.33-.34,0-.68.08-1.02.25-.34.18-.66.44-.94.78l-1.71,2.07c-.25.3-.38.57-.39.8s.13.47.42.71l-.17.21c-.2-.2-.4-.38-.6-.54-.19-.16-.39-.3-.58-.42s-.39-.22-.57-.3Z"/>
      <path class="cls-5" d="M22.14,117.6c-.22-.24-.37-.48-.46-.7-.08-.22-.12-.44-.1-.65.02-.24.1-.47.25-.7.15-.23.38-.49.71-.78l2.58-2.32c.27-.24.4-.46.4-.66s-.13-.43-.36-.7l.2-.18c.09.12.23.29.43.52.19.23.39.46.58.67.19.21.38.42.58.61.19.19.34.34.44.44l-.2.18c-.21-.23-.4-.35-.59-.36s-.41.11-.68.35l-2.79,2.51c-.2.18-.37.36-.51.54-.14.18-.21.38-.21.58,0,.21.1.42.31.66.24.27.53.44.87.5.34.06.69.03,1.06-.1.37-.13.72-.34,1.05-.64l2.15-1.93c.27-.24.41-.46.42-.64s-.09-.39-.3-.62l.2-.18c.09.11.22.27.39.48.17.21.36.42.55.64.19.21.39.43.61.64s.37.38.48.48l-.2.18c-.24-.26-.46-.41-.65-.44-.2-.03-.43.08-.7.33l-3.03,2.72c-.29.26-.46.5-.5.73-.05.23.06.48.31.77l-.2.18c-.17-.22-.34-.43-.51-.63-.17-.19-.34-.36-.52-.51-.18-.15-.35-.28-.52-.38l1.14-1.03c-.59.23-1.1.27-1.54.12s-.81-.38-1.1-.71Z"/>
      <path class="cls-5" d="M23.31,110.41c-.13-.18-.18-.39-.14-.62s.15-.41.33-.54c.18-.13.39-.18.62-.14s.41.15.54.33.18.39.14.62c-.04.23-.15.41-.33.54-.18.13-.39.18-.62.14-.23-.04-.41-.15-.54-.33Z"/>
      <path class="cls-5" d="M14.17,105.68c-.13-.25-.22-.5-.27-.77-.06-.26-.07-.52-.04-.77.03-.24.09-.44.19-.61.1-.17.24-.3.42-.39.21-.11.4-.13.57-.07.17.06.3.18.39.35.09.17.11.34.08.52-.04.18-.15.31-.33.41-.18.09-.35.11-.5.07s-.28-.12-.38-.24c-.1.15-.15.34-.14.59,0,.24.07.48.18.7.1.19.24.36.43.51.19.15.43.25.73.3s.65.04,1.07-.05c.42-.09.9-.27,1.45-.55.68-.35,1.18-.7,1.5-1.06.32-.36.51-.71.55-1.05s0-.66-.16-.96c-.1-.2-.25-.39-.43-.56-.18-.17-.41-.3-.68-.4-.27-.1-.58-.14-.94-.12l-.03-.26c.29-.05.6-.05.94,0,.34.05.67.18.97.38.31.2.57.51.78.93.24.48.34.97.29,1.49-.05.51-.25,1-.59,1.46-.34.46-.83.85-1.47,1.18-.63.32-1.25.49-1.85.51s-1.14-.11-1.62-.38-.86-.67-1.12-1.19Z"/>
      <path class="cls-5" d="M11.5,99.37c-.18-.52-.24-1.03-.15-1.53s.32-.96.73-1.38,1-.77,1.78-1.05c.79-.28,1.46-.38,2.04-.3s1.05.28,1.43.62.66.77.84,1.29c.18.52.23,1.02.15,1.52s-.32.96-.72,1.38c-.4.42-.99.77-1.77,1.05-.78.28-1.47.38-2.04.3-.58-.08-1.06-.28-1.43-.62-.38-.34-.66-.77-.84-1.28ZM11.74,99.29c.17.47.54.76,1.13.89.59.13,1.43,0,2.52-.39,1.09-.39,1.83-.81,2.2-1.28.37-.47.48-.93.31-1.4s-.54-.76-1.12-.89c-.58-.13-1.42,0-2.52.39-1.09.39-1.83.81-2.21,1.28-.38.47-.48.94-.32,1.4Z"/>
      <path class="cls-5" d="M8.55,86.73c-.05-.3-.05-.57,0-.8.05-.24.14-.44.27-.61.15-.19.35-.34.61-.44.26-.1.6-.19,1-.25l3.43-.54c.36-.06.59-.17.7-.34s.13-.43.07-.78l.27-.04c.01.15.04.37.07.67.03.3.07.59.12.88.04.28.09.56.15.83s.1.47.13.6l-.27.04c-.05-.31-.15-.52-.3-.62s-.4-.13-.76-.08l-3.71.59c-.26.04-.51.1-.72.17-.22.07-.38.18-.5.34s-.15.39-.1.7c.05.33.2.62.45.84.25.23.56.39.93.48s.78.11,1.22.04l-1.19.23c-.63-.14-1.08-.39-1.36-.75-.28-.36-.45-.74-.52-1.15ZM9.17,90.6c-.05-.3-.05-.57,0-.8.05-.24.14-.44.27-.61.15-.19.35-.34.61-.44.26-.1.6-.19,1-.25l3.43-.54c.36-.06.59-.17.7-.34.1-.17.13-.43.07-.78l.27-.04c.01.15.04.37.07.67.03.3.07.59.12.88.04.28.09.56.15.83s.1.47.13.6l-.27.04c-.05-.31-.15-.52-.3-.62-.15-.11-.4-.13-.76-.08l-3.71.59c-.26.04-.51.1-.72.17-.22.07-.38.18-.5.34s-.15.39-.1.7c.05.33.2.62.45.84s.56.39.94.48.79.11,1.22.04l2.85-.45c.36-.06.59-.16.7-.31.11-.15.14-.38.09-.69l.27-.04c.01.14.04.34.06.61.03.27.07.55.11.83.04.28.1.57.16.87.06.3.11.52.14.66l-.27.04c-.06-.35-.16-.59-.31-.72s-.41-.17-.77-.11l-4.02.64c-.39.06-.66.17-.82.34-.16.17-.21.44-.15.81l-.27.04c-.02-.28-.05-.55-.09-.8-.04-.25-.09-.48-.16-.71-.07-.22-.14-.42-.23-.6l1.51-.24c-.59-.13-1.04-.38-1.34-.72-.3-.35-.48-.73-.55-1.14Z"/>
      <path class="cls-5" d="M8.35,78.05c.02-.3.08-.56.18-.78.1-.22.23-.4.4-.53.18-.15.42-.25.7-.29.28-.04.62-.05,1.03-.02l3.46.23c.36.02.61-.04.75-.18.14-.14.22-.39.24-.75l.27.02c-.02.15-.04.37-.08.67-.03.3-.06.6-.08.88-.02.29-.03.56-.04.84,0,.27,0,.48,0,.62l-.27-.02c.02-.31-.03-.54-.15-.67-.12-.14-.36-.22-.73-.24l-3.75-.24c-.27-.02-.52-.02-.74,0-.23.02-.41.09-.56.22-.15.13-.23.35-.25.66-.02.34.06.64.25.92s.46.5.81.68.74.28,1.19.31l2.88.19c.36.02.61-.03.75-.15.14-.12.22-.34.24-.65l.27.02c-.02.14-.04.34-.07.61-.03.27-.05.55-.07.84-.02.29-.03.58-.04.88s-.01.53-.01.68l-.27-.02c.02-.35-.03-.61-.14-.77-.12-.16-.36-.25-.73-.27l-4.06-.26c-.39-.03-.68.03-.88.15-.19.13-.3.38-.33.76l-.27-.02c.04-.28.07-.54.09-.8.02-.25.02-.49,0-.72-.02-.23-.05-.44-.1-.64l1.53.1c-.55-.26-.93-.59-1.15-1s-.31-.81-.29-1.23ZM8.6,74.14c.02-.3.08-.56.18-.78.1-.22.23-.4.4-.53.18-.15.42-.25.7-.29.28-.04.62-.05,1.03-.02l3.46.23c.36.02.61-.04.75-.18.14-.14.22-.39.24-.75l.27.02c-.02.15-.04.37-.08.67-.03.3-.06.6-.08.88-.02.29-.03.56-.04.84,0,.27,0,.48,0,.62l-.27-.02c.02-.31-.03-.54-.15-.67s-.36-.22-.73-.24l-3.75-.24c-.27-.02-.52-.02-.74,0-.23.02-.41.09-.56.22s-.23.35-.25.66c-.02.34.06.64.25.92s.46.5.8.68.74.28,1.18.3l-1.21-.04c-.58-.27-.97-.61-1.17-1.03-.19-.41-.28-.83-.25-1.24Z"/>
      <path class="cls-5" d="M10.71,64.26l5.26,1.35c.38.1.67.1.89,0,.22-.09.37-.32.46-.68l.26.07c-.09.25-.17.51-.24.77-.06.24-.11.48-.14.71-.03.23-.04.44-.02.65l-1.49-.38c.49.35.81.74.94,1.19.13.44.15.86.04,1.27-.08.29-.18.54-.32.74s-.3.35-.49.45c-.21.12-.45.17-.74.16-.28,0-.62-.06-1.02-.17l-3.16-.81c-.38-.1-.67-.1-.89-.01-.21.09-.37.32-.46.69l-.26-.07c.09-.26.17-.52.24-.77.06-.24.11-.48.13-.71.03-.23.04-.44.02-.64l4.95,1.27c.26.07.5.11.73.13.23.02.42-.02.59-.12.17-.1.29-.3.37-.6.08-.33.06-.64-.08-.95-.14-.31-.36-.58-.66-.81s-.67-.41-1.1-.52l-2.61-.67c-.38-.1-.67-.1-.89-.01-.21.09-.37.32-.46.69l-.26-.07c.09-.26.17-.52.24-.77.06-.24.11-.48.13-.71s.04-.44.02-.64Z"/>
      <path class="cls-5" d="M13.04,57.99c.13-.3.28-.54.44-.71.17-.17.35-.29.55-.37.22-.08.47-.11.74-.07.27.04.6.14,1.01.31l3.2,1.35c.34.14.59.17.77.08.18-.09.34-.3.48-.62l.25.11c-.06.13-.16.34-.29.61-.13.27-.25.54-.36.81-.11.26-.21.52-.31.78-.09.26-.16.45-.21.58l-.25-.11c.12-.29.15-.52.08-.69s-.27-.33-.61-.47l-3.46-1.46c-.25-.1-.48-.18-.71-.23-.22-.05-.43-.03-.62.06-.19.09-.34.27-.46.56-.14.33-.17.67-.08,1,.09.33.26.64.54.92.27.28.61.51,1.02.68l2.66,1.12c.33.14.59.18.76.11.17-.07.32-.25.44-.53l.25.11c-.06.12-.15.31-.27.56s-.23.5-.34.77c-.11.26-.22.54-.33.82-.11.28-.18.5-.23.64l-.25-.11c.14-.33.18-.59.12-.78-.06-.19-.26-.36-.59-.5l-3.75-1.58c-.36-.15-.65-.2-.88-.14-.23.06-.41.26-.56.61l-.25-.11c.13-.25.25-.49.35-.73.1-.23.18-.46.24-.68.06-.22.1-.43.12-.63l1.41.6c-.46-.44-.71-.89-.76-1.35-.06-.46,0-.89.17-1.3Z"/>
      <path class="cls-5" d="M12.79,51.66c.11-.2.28-.33.5-.39.22-.06.43-.04.63.07.2.11.33.28.39.5.06.22.04.43-.07.63s-.28.33-.5.39c-.22.06-.43.04-.63-.07-.2-.11-.33-.28-.39-.5-.06-.22-.04-.43.07-.63ZM15.83,52.59l4.91,2.76c.32.18.57.23.76.16.19-.07.37-.26.54-.57l.24.13c-.08.12-.2.31-.36.57-.16.25-.31.51-.46.78-.14.26-.29.52-.42.79-.14.27-.24.47-.3.61l-.24-.13c.17-.31.24-.56.2-.76s-.22-.38-.53-.56l-3.55-1.99c-.34-.19-.63-.27-.86-.24-.23.03-.44.21-.62.54l-.24-.13c.16-.23.3-.46.43-.68.12-.22.23-.44.31-.65.09-.21.15-.42.19-.62Z"/>
      <path class="cls-5" d="M16.34,47.98l1.8,1.21,1.08-1.6.22.15-1.08,1.6,4.17,2.81c.34.23.62.33.83.3s.4-.15.55-.37c.15-.22.18-.46.11-.74-.07-.28-.27-.61-.61-1.01l.2-.18c.37.35.62.73.77,1.14.14.41.07.83-.23,1.27-.17.24-.33.43-.5.54-.17.12-.35.2-.55.24-.27.05-.54.02-.81-.07-.27-.09-.6-.27-.98-.53l-3.61-2.44-.7,1.03-.22-.15.7-1.03-1.65-1.11c.11-.18.22-.37.31-.55s.16-.35.2-.53Z"/>
      <path class="cls-5" d="M23.72,42.09l.2.17c-.09.14-.13.3-.12.49,0,.19.1.44.27.74l2.9,5.24-.14.17-5.94-1.89c-.36-.09-.63-.1-.79-.03-.16.08-.27.15-.34.23l-.21-.18c.14-.13.29-.27.43-.42.14-.15.29-.32.45-.5.17-.21.35-.43.53-.67s.35-.46.5-.67l.21.18c-.14.17-.25.32-.34.47s-.08.29,0,.42.32.26.69.38l4.06,1.34-.03.08-2-3.63c-.15-.27-.29-.45-.43-.54-.14-.09-.3-.11-.46-.04-.17.06-.36.21-.57.44l-.2-.17c.11-.11.2-.21.27-.3.08-.08.15-.16.22-.24s.15-.17.24-.27c.13-.15.24-.29.34-.42.1-.13.19-.25.27-.36ZM26.96,48.72l.58,1.07c.11.21.19.39.25.56.05.16.08.32.09.46,0,.19-.03.37-.12.55s-.18.32-.28.44c-.11.13-.23.22-.36.28s-.27.09-.41.07c-.14-.02-.27-.08-.4-.18-.16-.13-.25-.29-.26-.46s.04-.34.18-.51c.12-.14.26-.23.42-.26.16-.03.32.02.47.14.11.1.18.2.21.31.03.11.03.23,0,.33.02,0,.03-.02.04-.03,0,0,.01-.02.02-.02.15-.18.22-.39.22-.63,0-.24-.1-.53-.28-.87l-.62-1.14.24-.12Z"/>
      <path class="cls-5" d="M28.98,44.29c.16-.16.36-.23.59-.23.23,0,.43.08.59.25.16.16.24.36.23.59,0,.23-.08.43-.25.59s-.36.24-.59.23c-.23,0-.43-.08-.59-.25-.16-.16-.24-.36-.23-.59,0-.23.08-.43.25-.59Z"/>
    </g>
    <g>
      <path class="cls-5" d="M19.67,11.93c.2.36.4.7.6,1.02.2.32.36.56.48.73.15.21.29.4.42.58.14.18.26.33.36.47l-.3.21c-.49-.57-.91-1-1.26-1.28-.35-.28-.71-.41-1.09-.39s-.83.23-1.39.61l-.71.49,5.19,7.48c.24.35.46.59.65.72.19.13.4.16.63.09s.54-.23.92-.47l.18.26c-.24.14-.54.33-.89.57-.35.24-.71.48-1.07.73-.39.27-.76.53-1.11.78-.34.24-.61.45-.81.61l-.18-.26c.36-.27.61-.51.76-.7.15-.19.2-.4.14-.62-.06-.22-.21-.51-.45-.86l-5.19-7.48-.71.49c-.54.38-.89.74-1.05,1.08s-.17.73-.03,1.16c.14.43.39.97.76,1.63l-.3.21c-.08-.15-.18-.32-.3-.51s-.26-.39-.4-.6c-.12-.17-.29-.4-.52-.7-.23-.3-.48-.61-.74-.92.37-.25.78-.52,1.22-.81.44-.29.88-.59,1.32-.89.44-.3.84-.58,1.2-.83.36-.25.76-.52,1.19-.82.43-.3.87-.61,1.3-.92.43-.31.82-.6,1.18-.86Z"/>
      <path class="cls-5" d="M27.04,11.18c.25-.14.5-.21.75-.21s.47.05.67.16c.2.11.35.26.46.47.13.23.17.48.12.74-.05.26-.2.45-.44.58-.2.11-.41.14-.62.09-.22-.05-.39-.19-.52-.42-.1-.18-.13-.36-.1-.54.03-.18.09-.34.17-.48-.12-.06-.24-.05-.37.02-.29.16-.51.39-.66.69s-.24.64-.26,1c-.02.36,0,.72.07,1.08.07.36.18.67.32.93l1.61,2.98c.25.46.55.69.9.71.35.01.76-.11,1.22-.36l.16.3c-.22.11-.53.26-.93.46-.4.2-.82.42-1.26.66-.32.17-.63.35-.94.53-.31.18-.54.32-.69.42l-.16-.3c.38-.21.62-.43.71-.66.09-.23.03-.54-.19-.94l-2.38-4.41c-.23-.42-.47-.69-.73-.81-.26-.12-.6-.07-1.01.15l-.16-.3c.32-.13.61-.28.9-.43.27-.15.52-.3.75-.47.23-.17.43-.34.6-.52l.95,1.76c-.04-.33-.04-.68,0-1.06.04-.38.15-.74.32-1.07.17-.33.42-.59.75-.77Z"/>
      <path class="cls-5" d="M34.86,16.96c-.4.17-.78.24-1.14.21s-.67-.15-.94-.36c-.27-.21-.48-.5-.63-.86-.18-.43-.23-.83-.14-1.19.09-.36.25-.69.5-.99s.52-.58.82-.84c.3-.26.59-.51.86-.74.27-.23.48-.46.62-.69.14-.22.17-.45.07-.67l-.38-.92c-.17-.41-.37-.7-.58-.87-.21-.16-.44-.24-.68-.23-.24.01-.48.07-.74.18-.25.1-.5.25-.75.43-.25.19-.42.42-.49.71.2-.04.41,0,.61.09.2.1.36.27.46.52.1.25.11.47,0,.68s-.27.36-.51.47c-.29.12-.53.12-.74-.01s-.36-.3-.46-.53c-.11-.26-.13-.49-.07-.7s.16-.43.3-.65c.16-.25.4-.51.71-.77s.69-.49,1.15-.68c.4-.17.77-.27,1.09-.29.32-.03.62.01.88.11.35.13.64.35.86.65.22.31.43.7.63,1.17l1.72,4.1c.1.25.21.41.33.48s.26.08.41.02c.11-.05.2-.11.28-.2s.16-.22.25-.38l.27.18c-.14.24-.28.46-.43.64-.14.18-.37.34-.69.47-.29.12-.54.17-.77.15-.23-.02-.43-.11-.6-.26s-.32-.38-.45-.67c-.08.55-.26,1.02-.54,1.39s-.65.65-1.11.85ZM35.14,16.15c.32-.14.59-.36.79-.66s.34-.69.41-1.16l-1.21-2.89c-.05.22-.16.43-.34.64s-.38.42-.6.65c-.22.22-.42.46-.59.72-.18.25-.29.54-.35.85-.05.31,0,.66.17,1.06s.4.66.71.81.65.15,1.01,0Z"/>
      <path class="cls-5" d="M41.16,5.56c.45-.13.9-.15,1.36-.05s.83.39,1.11.88l-.16.21c-.27-.39-.58-.64-.94-.74-.36-.11-.74-.1-1.15.02-.6.18-1.02.64-1.24,1.38-.22.74-.14,1.76.25,3.06.24.83.52,1.5.84,2,.32.5.67.84,1.07,1.02s.81.2,1.26.07c.43-.13.77-.42,1.01-.89.24-.47.29-1.07.15-1.81l.25.16c.15.8.07,1.47-.22,2.01-.29.54-.79.91-1.5,1.12-.64.19-1.24.19-1.8.02-.57-.17-1.06-.52-1.49-1.06-.43-.54-.78-1.28-1.05-2.21-.27-.93-.34-1.75-.19-2.47.14-.71.43-1.3.87-1.76s.96-.78,1.58-.96ZM43.25.7l3.02,10.37c.13.46.32.78.55.95s.57.19,1.01.06l.09.32c-.33.06-.65.14-.97.23-.3.09-.58.18-.84.29-.26.11-.5.24-.7.39l-3.02-10.37c-.13-.46-.32-.78-.54-.95-.23-.17-.57-.19-1.02-.06l-.09-.32c.34-.06.66-.14.97-.23.3-.09.58-.19.84-.3.26-.12.49-.24.7-.38Z"/>
      <path class="cls-5" d="M49.49,3.61l1.32,6.8c.08.44.23.72.45.84s.54.14.96.06l.06.33c-.18.02-.45.06-.82.12-.36.05-.73.12-1.1.19-.36.07-.72.15-1.08.23s-.63.15-.81.2l-.06-.33c.43-.08.72-.22.87-.41.15-.19.19-.51.1-.95l-.96-4.92c-.09-.47-.24-.8-.45-1-.21-.19-.55-.24-1.01-.15l-.06-.33c.34-.03.67-.08.98-.14.3-.06.59-.13.86-.22.27-.09.51-.19.73-.31ZM47.94.02c.27-.05.53,0,.76.16.24.16.38.38.44.65.05.27,0,.53-.16.77-.16.24-.38.38-.65.44-.27.05-.53,0-.76-.16-.24-.16-.38-.38-.44-.65-.05-.27,0-.53.16-.76.16-.24.38-.38.65-.44Z"/>
      <path class="cls-5" d="M57.34,2.5c.4-.04.75-.02,1.03.06s.52.21.72.38c.22.19.39.44.51.75.12.31.2.74.25,1.28l.42,4.25c.04.45.17.74.37.88.2.14.52.19.96.15l.03.33c-.18,0-.46.02-.83.04s-.73.05-1.08.08c-.35.03-.69.08-1.02.13s-.58.09-.75.12l-.03-.33c.38-.04.65-.14.79-.32.14-.17.19-.49.15-.93l-.46-4.6c-.03-.33-.09-.63-.17-.9-.08-.27-.22-.48-.42-.63-.2-.15-.5-.21-.88-.17-.45.04-.82.21-1.13.5-.31.29-.54.66-.68,1.12s-.19.96-.13,1.5l.35,3.53c.04.45.15.74.33.88.17.14.45.2.83.16l.03.33c-.17,0-.42.02-.76.04-.34.02-.68.04-1.03.08-.35.03-.71.08-1.08.13-.37.05-.64.09-.82.12l-.03-.33c.44-.04.74-.15.91-.33s.23-.49.19-.94l-.5-4.98c-.05-.48-.17-.82-.36-1.03-.19-.21-.52-.29-.99-.25l-.03-.33c.34,0,.67-.02.99-.05.31-.03.6-.08.88-.14.28-.07.53-.15.76-.24l.19,1.88c.2-.75.54-1.29,1-1.62.46-.33.97-.52,1.51-.58Z"/>
      <path class="cls-5" d="M64.94,13.66c-.57,0-1.1-.08-1.6-.2-.5-.13-.9-.32-1.2-.57s-.45-.58-.44-.96c0-.37.16-.69.46-.95.3-.26.71-.46,1.23-.59l.09.26c-.24.07-.42.22-.57.44-.14.22-.22.47-.22.75,0,.49.21.87.66,1.14.45.27,1.04.41,1.76.42.48,0,.95-.05,1.41-.16.46-.12.84-.31,1.15-.6.3-.28.46-.66.47-1.13,0-.35-.12-.64-.36-.88-.25-.23-.74-.36-1.47-.37l-1.18-.02c-.34,0-.67-.04-.99-.1-.32-.06-.58-.17-.78-.35-.2-.17-.3-.44-.29-.79,0-.36.16-.71.46-1.04.3-.33.86-.67,1.67-1l.19.15c-.37.19-.68.38-.95.57-.27.19-.41.42-.41.69,0,.34.25.52.76.52l2,.03c.45,0,.86.08,1.24.21.38.13.68.34.91.62.23.28.34.65.33,1.09,0,.5-.18.97-.5,1.4s-.81.78-1.45,1.04c-.64.26-1.43.38-2.37.37ZM65.12,7.25c-.52,0-1-.1-1.42-.29s-.75-.46-.99-.84c-.24-.38-.35-.86-.34-1.45,0-.59.14-1.06.39-1.43.25-.37.59-.64,1.02-.81s.91-.25,1.43-.24c.53,0,1.01.1,1.43.29.42.18.75.46.99.84s.35.86.34,1.45-.14,1.06-.39,1.43c-.25.37-.59.64-1.01.81s-.9.25-1.44.24ZM65.13,6.96c.41,0,.73-.15.96-.46.23-.32.36-.9.37-1.75.01-.85-.09-1.44-.31-1.77s-.54-.49-.94-.5c-.39,0-.71.15-.95.46-.24.32-.37.9-.38,1.75-.01.85.09,1.44.32,1.77.23.32.54.49.94.5ZM67.49,3.56l-.29-.12c.16-.36.42-.68.78-.95.37-.27.75-.4,1.14-.4.28,0,.5.09.67.24s.25.39.24.7c0,.33-.1.56-.28.69s-.36.19-.54.19c-.16,0-.31-.06-.45-.18s-.21-.29-.23-.54c-.02-.25.06-.56.24-.94l.21.05c-.45.16-.77.34-.97.52-.2.18-.38.42-.54.72Z"/>
      <path class="cls-5" d="M81.55.8c.69.14,1.24.35,1.64.64.4.29.75.61,1.04.95.18.2.33.25.47.15s.27-.37.4-.81l.36.07c-.1.38-.21.85-.33,1.4-.12.55-.27,1.28-.45,2.19l-.36-.07c.02-.46.02-.84,0-1.12-.01-.28-.04-.52-.09-.73s-.13-.42-.24-.63c-.24-.49-.59-.88-1.04-1.17-.45-.29-.95-.49-1.5-.6-.51-.1-1-.06-1.46.11-.46.18-.89.47-1.29.9-.39.42-.74.96-1.03,1.61-.3.65-.53,1.4-.69,2.24-.17.88-.24,1.67-.19,2.38.04.71.18,1.33.41,1.85.23.52.54.94.93,1.27.39.32.83.53,1.34.63.47.09.98.1,1.53,0,.55-.09,1.01-.31,1.39-.67.29-.26.51-.56.67-.9s.34-.82.54-1.44l.36.07c-.19.95-.33,1.72-.44,2.3-.1.58-.18,1.08-.24,1.48l-.36-.07c.05-.46.03-.75-.05-.89s-.25-.15-.5-.05c-.44.2-.9.35-1.37.47-.47.12-1.05.11-1.73-.02-.99-.2-1.82-.59-2.48-1.19-.66-.6-1.11-1.36-1.36-2.29s-.25-1.99-.02-3.18c.23-1.17.65-2.16,1.25-2.95.6-.79,1.33-1.36,2.17-1.71.84-.34,1.75-.42,2.73-.23Z"/>
      <path class="cls-5" d="M86.53,14.09c-.42-.14-.75-.33-1-.59-.25-.26-.41-.55-.47-.89s-.03-.69.09-1.07c.15-.45.37-.78.67-.99.3-.21.64-.35,1.02-.42.38-.07.77-.1,1.17-.1.4,0,.78,0,1.14,0,.36,0,.67-.04.92-.11.25-.07.42-.23.5-.46l.31-.94c.14-.43.18-.77.13-1.03-.05-.26-.17-.47-.36-.62-.19-.15-.41-.26-.68-.35-.25-.08-.54-.14-.85-.16-.31-.02-.59.05-.84.21.18.1.31.26.4.47.09.21.09.44,0,.69-.08.25-.23.43-.44.52-.21.09-.44.1-.7.01-.29-.1-.48-.26-.55-.49-.08-.23-.07-.46,0-.7.09-.26.22-.45.41-.57.18-.12.4-.22.65-.29.29-.08.63-.12,1.04-.12s.84.08,1.31.24c.42.14.75.3,1.02.5.26.19.46.41.59.66.18.33.26.68.22,1.06-.03.38-.13.81-.29,1.29l-1.39,4.22c-.08.25-.11.45-.07.58.04.14.14.23.3.29.11.04.23.05.34.03s.27-.06.44-.12l.08.31c-.27.09-.51.16-.74.2s-.5.01-.83-.1c-.29-.1-.52-.23-.68-.39s-.25-.36-.29-.59c-.03-.23,0-.5.1-.8-.42.37-.86.6-1.32.69-.45.1-.92.07-1.39-.09ZM87.28,13.66c.33.11.68.12,1.03.02.35-.1.71-.3,1.07-.61l.98-2.98c-.18.13-.4.22-.67.26-.27.04-.56.07-.88.1-.31.03-.62.08-.92.15-.3.08-.57.21-.82.41-.25.2-.44.5-.57.91s-.13.77,0,1.08.39.53.77.66Z"/>
      <path class="cls-5" d="M99.68,10.01c.26.12.47.27.62.47s.25.4.28.62c.04.22,0,.44-.09.65-.11.24-.28.42-.51.54-.23.12-.48.12-.73,0-.21-.09-.36-.24-.46-.44s-.09-.42.02-.67c.08-.19.21-.32.37-.41.16-.09.32-.14.48-.16-.03-.13-.11-.22-.24-.28-.3-.13-.62-.17-.95-.1s-.65.2-.95.41c-.3.21-.57.44-.81.72-.24.27-.42.55-.54.82l-1.38,3.1c-.21.48-.21.86,0,1.14s.55.53,1.03.74l-.14.31c-.22-.11-.53-.26-.94-.46-.4-.2-.83-.4-1.29-.6-.33-.15-.66-.29-1-.42-.33-.13-.58-.23-.75-.29l.14-.31c.4.18.72.23.95.16.23-.07.44-.31.62-.72l2.03-4.58c.2-.44.26-.8.2-1.08s-.31-.51-.74-.7l.14-.31c.3.17.6.32.89.45.28.12.56.23.84.31s.53.13.78.16l-.81,1.83c.23-.24.51-.45.84-.65.33-.2.68-.33,1.04-.4.37-.07.72-.03,1.07.12Z"/>
      <path class="cls-5" d="M105.58,13.11c.41.23.73.55.97.95s.29.87.14,1.41l-.26.03c.09-.46.06-.86-.11-1.19-.17-.33-.44-.61-.81-.82-.54-.32-1.16-.3-1.85.06-.69.35-1.37,1.12-2.04,2.3-.43.75-.72,1.41-.86,1.99s-.14,1.07,0,1.48c.14.41.41.73.82.96.39.22.83.26,1.34.11.51-.15.98-.53,1.42-1.14l.05.29c-.48.66-1.02,1.07-1.61,1.23s-1.21.06-1.84-.31c-.57-.33-.99-.76-1.26-1.28-.27-.53-.36-1.13-.26-1.82.09-.69.38-1.45.87-2.29.49-.84,1.04-1.46,1.65-1.85.61-.39,1.24-.59,1.88-.59.64,0,1.23.16,1.78.48ZM110.53,11.26l-5.41,9.35c-.24.42-.34.77-.3,1.05.04.29.25.54.65.77l-.17.29c-.27-.19-.55-.37-.83-.54-.27-.16-.53-.29-.79-.4s-.51-.19-.76-.24l5.41-9.35c.24-.42.34-.77.31-1.05-.03-.28-.25-.54-.66-.78l.17-.29c.28.2.56.38.83.54.27.15.53.29.8.4.26.11.52.19.76.24Z"/>
      <path class="cls-5" d="M113.01,17.93c.34.25.6.52.75.81.16.29.26.52.3.7.11.44.4.41.86-.09l.3.22c-.19.23-.42.51-.67.83-.25.33-.58.77-.99,1.33l-.3-.22c.18-.36.32-.73.42-1.12.09-.39.09-.77,0-1.14-.1-.37-.34-.7-.73-.98-.3-.22-.61-.32-.94-.3s-.61.19-.85.52c-.19.26-.27.54-.25.83.02.3.1.62.23.96.13.34.28.71.43,1.12.18.45.32.87.43,1.28.11.41.15.8.12,1.18-.03.37-.17.74-.43,1.09-.29.4-.64.65-1.04.77-.4.12-.82.12-1.25.02-.43-.1-.85-.3-1.24-.59-.19-.14-.36-.28-.5-.44-.15-.15-.27-.32-.39-.49-.05-.11-.1-.22-.15-.35-.05-.13-.09-.26-.12-.39-.04-.13-.11-.19-.24-.16-.12.02-.28.13-.47.32l-.3-.22c.22-.26.48-.59.78-.98.3-.39.69-.91,1.17-1.57l.3.22c-.29.53-.52,1.01-.67,1.45-.15.44-.18.85-.09,1.23.09.38.36.73.79,1.04.17.13.37.21.61.27s.48.03.73-.06c.25-.09.49-.29.71-.59.28-.38.37-.79.27-1.23-.1-.44-.26-.95-.49-1.53-.17-.42-.31-.84-.44-1.23s-.18-.78-.17-1.15c.01-.37.15-.73.41-1.09.28-.39.6-.64.96-.76.36-.12.72-.13,1.1-.03.38.1.73.27,1.07.52Z"/>
    </g>
    <g>
      <path class="cls-5" d="M35.21,145.94c-.24.33-.46.65-.67.97-.2.32-.36.57-.46.74-.13.22-.24.43-.35.63-.1.2-.19.38-.27.53l-.32-.18c.31-.68.52-1.24.62-1.68.11-.44.07-.82-.11-1.15-.18-.33-.56-.66-1.14-1l-.87-.51c-.31-.18-.57-.29-.76-.34-.19-.04-.36,0-.51.13-.15.13-.32.36-.52.71l-3.98,6.86c-.19.33-.3.6-.33.81-.03.21.04.4.22.57.17.17.44.38.82.62l-.16.28c-.23-.16-.53-.35-.89-.56s-.74-.44-1.12-.66c-.36-.21-.7-.4-1.01-.58-.32-.18-.58-.31-.78-.41l.16-.28c.32.16.58.26.78.3.19.04.37,0,.52-.14.15-.13.32-.37.52-.7l3.98-6.86c.2-.34.32-.61.35-.8.04-.19,0-.37-.13-.52-.13-.15-.34-.33-.65-.52l.16-.28c.34.21.69.42,1.07.65.38.22.75.45,1.11.66.37.22.71.42,1.03.6s.58.34.78.45c.42.25.91.52,1.45.83.54.31,1.03.58,1.47.8ZM30.24,149.57l-.16.28-2.77-1.61.16-.28,2.77,1.61ZM31.56,147.89c-.34.5-.59.9-.75,1.18s-.3.53-.43.77c-.13.23-.28.49-.43.77-.15.28-.36.7-.63,1.24l-.32-.18c.13-.32.26-.63.37-.94.11-.31.14-.61.07-.88s-.3-.54-.71-.77l.16-.28c.3.18.57.25.81.22.23-.03.44-.12.63-.27.19-.15.35-.32.5-.51.15-.19.28-.36.41-.51l.32.19Z"/>
      <path class="cls-5" d="M38.08,150.24c.63.26,1.14.63,1.53,1.12.39.48.61,1.08.67,1.8.06.72-.11,1.55-.5,2.49s-.86,1.65-1.4,2.11-1.12.73-1.74.8c-.62.07-1.24-.03-1.87-.29-.62-.26-1.13-.63-1.52-1.11-.39-.49-.62-1.08-.68-1.79-.06-.71.11-1.54.5-2.49.39-.95.86-1.65,1.4-2.12.54-.47,1.13-.73,1.75-.8.62-.07,1.24.03,1.86.28ZM37.96,150.53c-.56-.23-1.14-.13-1.74.3-.6.43-1.17,1.31-1.72,2.63s-.76,2.34-.63,3.07c.12.73.46,1.2,1.03,1.44.56.23,1.14.13,1.74-.29.6-.43,1.17-1.3,1.71-2.62s.76-2.35.64-3.08c-.12-.73-.46-1.21-1.02-1.44Z"/>
      <path class="cls-5" d="M47.24,153.27c.28.08.51.2.69.37.18.17.3.36.37.58.07.21.07.43,0,.66-.07.26-.21.46-.43.61s-.45.19-.72.11c-.22-.06-.39-.18-.51-.37s-.15-.41-.08-.66c.05-.2.15-.35.3-.46.15-.11.3-.19.46-.23-.04-.12-.14-.2-.28-.24-.32-.09-.64-.08-.96.04s-.61.3-.88.54c-.27.25-.5.52-.7.83-.2.31-.33.6-.41.89l-.91,3.27c-.14.5-.09.88.16,1.13.25.25.62.45,1.12.59l-.09.32c-.23-.08-.56-.18-.99-.32-.43-.14-.88-.27-1.37-.41-.35-.1-.7-.19-1.05-.27s-.61-.14-.79-.18l.09-.32c.42.12.74.12.97.02.22-.1.39-.37.51-.8l1.34-4.82c.13-.46.14-.83.04-1.09-.1-.27-.38-.46-.83-.59l.09-.32c.32.12.63.23.94.31.3.08.59.14.87.18s.55.06.79.05l-.54,1.93c.2-.27.44-.52.74-.77.29-.24.62-.43.98-.55s.71-.13,1.07-.03Z"/>
      <path class="cls-5" d="M58.65,151.92c.7.05,1.27.2,1.71.44.44.24.82.51,1.15.82.2.18.36.21.48.09s.22-.4.3-.85l.37.03c-.05.39-.1.87-.16,1.43s-.12,1.31-.19,2.23l-.37-.03c-.04-.46-.08-.83-.12-1.11-.04-.28-.1-.51-.18-.71-.08-.2-.18-.4-.31-.6-.3-.46-.69-.81-1.17-1.04-.49-.24-1-.37-1.56-.42-.52-.04-1,.05-1.44.28s-.83.58-1.17,1.04c-.34.47-.62,1.04-.84,1.72s-.36,1.45-.43,2.31c-.07.89-.04,1.69.09,2.39.13.7.34,1.3.63,1.79.29.49.64.88,1.07,1.15.42.27.89.43,1.4.47.48.04.99-.02,1.52-.17.54-.15.97-.43,1.3-.83.26-.29.45-.61.56-.97.12-.35.24-.85.36-1.5l.37.03c-.07.97-.13,1.75-.16,2.34-.03.59-.06,1.09-.07,1.5l-.37-.03c0-.46-.06-.75-.15-.88-.09-.12-.26-.12-.51,0-.42.25-.85.46-1.31.63-.46.17-1.03.23-1.72.18-1.01-.08-1.88-.37-2.6-.89-.73-.52-1.26-1.22-1.62-2.11s-.49-1.95-.39-3.16c.09-1.19.39-2.22.89-3.08s1.16-1.51,1.96-1.95c.8-.44,1.69-.62,2.68-.55Z"/>
      <path class="cls-5" d="M65.94,151.06l.44,5.97c.22-.74.57-1.27,1.05-1.58.47-.31.98-.49,1.53-.53.4-.03.75,0,1.03.08.28.09.52.22.71.4.22.2.38.45.49.77.11.31.18.74.22,1.28l.31,4.26c.03.45.15.74.35.89.2.15.51.2.95.17l.02.33c-.18,0-.46,0-.83.02-.37.01-.74.03-1.09.06-.35.03-.69.06-1.03.1-.33.04-.59.07-.75.1l-.02-.34c.38-.03.65-.13.8-.3s.21-.48.17-.93l-.34-4.61c-.02-.33-.07-.63-.15-.9-.07-.27-.21-.49-.41-.64-.2-.16-.49-.22-.87-.19-.44.03-.81.18-1.13.45-.32.27-.55.63-.71,1.08-.16.45-.22.96-.18,1.52l.26,3.56c.03.45.14.74.31.89.17.15.45.21.83.18l.02.33c-.17,0-.42,0-.76.02-.34,0-.68.03-1.03.05s-.71.06-1.08.1c-.37.04-.65.08-.83.1l-.02-.33c.44-.03.74-.14.92-.31.17-.17.25-.48.21-.93l-.67-9.1c-.04-.48-.15-.83-.33-1.04-.19-.22-.51-.31-.98-.27l-.03-.34c.34,0,.67,0,.99-.02.31-.02.6-.06.88-.12.28-.06.53-.13.76-.22Z"/>
      <path class="cls-5" d="M76.9,162.46c-.43.09-.82.08-1.16-.01s-.63-.28-.85-.53c-.22-.26-.37-.58-.45-.97-.09-.46-.07-.86.09-1.19.15-.34.38-.63.68-.88s.62-.47.97-.66c.35-.2.67-.38.99-.56s.56-.36.74-.55c.18-.19.25-.41.2-.65l-.2-.97c-.09-.44-.23-.76-.4-.96-.18-.2-.38-.32-.62-.35s-.49-.02-.76.03c-.26.05-.53.15-.82.28-.28.13-.49.34-.62.6.21,0,.4.07.58.21.18.14.3.34.35.6.05.26.01.49-.12.67-.14.19-.33.31-.6.36-.3.06-.54.01-.73-.15-.18-.16-.3-.37-.35-.61-.06-.27-.03-.5.07-.7.1-.19.24-.39.42-.58.21-.22.49-.42.84-.62.36-.2.78-.35,1.26-.45.43-.09.8-.11,1.13-.08.32.04.6.13.84.28.32.19.56.46.72.81s.29.77.39,1.27l.9,4.36c.05.26.13.44.23.54.1.1.24.13.4.1.11-.02.22-.07.31-.15s.2-.18.32-.33l.23.23c-.18.21-.37.39-.54.54-.18.15-.43.26-.77.33-.3.06-.56.06-.78,0-.22-.06-.4-.19-.54-.37-.14-.18-.24-.43-.31-.75-.19.53-.45.95-.79,1.26-.34.31-.76.52-1.25.62ZM77.34,161.72c.34-.07.65-.24.9-.5s.46-.61.62-1.06l-.63-3.07c-.09.2-.24.39-.46.56-.22.17-.45.34-.71.52-.26.18-.5.38-.72.59-.22.22-.39.47-.5.77-.11.3-.13.65-.04,1.07.09.42.27.73.54.93.28.2.61.27,1,.19Z"/>
      <path class="cls-5" d="M85.67,151.17c.38-.13.72-.19,1.01-.18.29.01.55.08.79.2.26.13.49.34.67.61.19.27.37.67.55,1.18l1.41,4.03c.15.42.34.68.57.77.23.09.55.06.96-.08l.11.32c-.17.05-.44.13-.8.24s-.7.22-1.04.34-.65.24-.97.36c-.31.13-.55.22-.71.29l-.11-.32c.36-.13.59-.29.69-.5s.07-.52-.07-.94l-1.52-4.37c-.11-.31-.23-.59-.38-.83-.14-.24-.33-.42-.56-.52s-.53-.09-.89.04c-.42.15-.75.4-.98.75-.23.35-.36.77-.39,1.25-.03.48.04.98.22,1.49l1.17,3.35c.15.42.32.68.53.78.2.1.49.08.85-.04l.11.32c-.16.05-.41.12-.73.21s-.65.2-.98.32c-.33.12-.67.24-1.02.38-.35.14-.6.24-.77.31l-.11-.32c.41-.14.68-.32.8-.53.12-.21.11-.53-.04-.95l-1.65-4.73c-.16-.45-.36-.76-.59-.92-.24-.16-.58-.16-1.02,0l-.11-.32c.33-.08.65-.18.95-.28.29-.1.57-.22.82-.35.25-.13.48-.27.68-.41l.62,1.78c.02-.78.22-1.38.6-1.81s.82-.73,1.33-.91Z"/>
      <path class="cls-5" d="M94.39,152.91c-.47.24-.93.37-1.39.41s-.88-.06-1.27-.28c-.39-.22-.71-.59-.98-1.12-.27-.52-.38-1.01-.32-1.45.05-.44.22-.84.52-1.19.3-.35.68-.64,1.15-.88.47-.24.94-.38,1.4-.41s.88.06,1.26.28c.39.22.72.59.98,1.12s.37,1.01.33,1.45c-.05.44-.22.84-.52,1.19s-.68.64-1.16.88ZM94.26,152.66c.36-.18.57-.47.63-.86.06-.39-.1-.96-.49-1.72-.39-.76-.75-1.23-1.1-1.41s-.71-.18-1.07,0c-.35.18-.56.46-.62.86-.06.39.1.97.48,1.73.39.76.76,1.23,1.11,1.41.35.18.71.18,1.06,0ZM97.23,158.67c-.5.26-1.01.45-1.51.57-.5.12-.94.14-1.33.06-.38-.09-.66-.3-.84-.64-.17-.33-.18-.69-.04-1.06s.42-.74.81-1.09l.2.18c-.18.17-.27.39-.3.65-.02.26.03.52.16.76.22.44.6.67,1.12.7s1.11-.12,1.75-.45c.43-.22.82-.49,1.17-.8.35-.32.6-.67.73-1.06.13-.39.1-.8-.12-1.22-.16-.31-.4-.52-.73-.61s-.82.03-1.48.36l-1.05.54c-.3.16-.61.28-.92.38-.31.1-.59.12-.85.06s-.47-.25-.63-.56c-.16-.32-.19-.7-.08-1.14.11-.44.45-.99,1-1.67l.24.04c-.24.34-.43.65-.58.95s-.16.56-.04.8c.16.3.46.34.92.11l1.78-.91c.4-.2.8-.33,1.19-.39s.76-.02,1.1.12c.33.14.6.41.81.81.23.45.3.94.21,1.47s-.35,1.07-.79,1.6c-.44.53-1.08,1.01-1.92,1.43ZM94.76,148.55l-.31.03c-.03-.39.05-.79.25-1.2s.47-.71.82-.89c.25-.13.48-.16.7-.1.22.06.4.23.54.5.15.29.18.54.08.74s-.23.34-.39.42c-.14.07-.3.09-.48.05-.17-.04-.33-.16-.46-.37-.13-.21-.21-.52-.23-.94l.21-.05c-.32.36-.53.66-.61.91-.09.25-.13.55-.14.89Z"/>
      <path class="cls-5" d="M99.99,143.79c.78-.53,1.54-.7,2.3-.52.76.18,1.47.77,2.15,1.76l-4.68,3.16-.18-.24,3.42-2.31c-.28-.44-.58-.82-.92-1.13-.34-.31-.67-.51-1.01-.6-.34-.09-.66-.04-.96.17-.41.27-.63.72-.67,1.34s.21,1.39.75,2.32l.08.03c.07.14.16.3.26.46s.2.33.31.49c.41.6.85,1.05,1.34,1.35.49.3.96.46,1.43.47s.87-.09,1.2-.32c.26-.18.49-.39.67-.64.18-.25.31-.53.38-.87.07-.33.07-.71,0-1.14l.34-.07c.1.36.13.75.1,1.17-.04.42-.16.83-.38,1.23-.22.4-.55.75-.99,1.05-.64.43-1.28.65-1.93.67s-1.27-.15-1.87-.5c-.59-.35-1.12-.86-1.57-1.54-.53-.78-.85-1.53-.99-2.26-.13-.73-.08-1.4.17-2.01.24-.61.67-1.12,1.27-1.52Z"/>
    </g>
    <path class="cls-3" d="M64.55,145.19C28.96,145.19,0,116.23,0,80.64S28.96,16.1,64.55,16.1s64.55,28.96,64.55,64.55-28.96,64.55-64.55,64.55ZM64.55,17.6C29.78,17.6,1.5,45.88,1.5,80.64s28.28,63.05,63.05,63.05,63.05-28.28,63.05-63.05-28.28-63.05-63.05-63.05Z"/>
    <g>
      <path class="cls-4" d="M75.6,58.29l.05-.33c.22-2.26-1.36-4.33-3.6-4.72-.53-.08-1.07-.17-1.75-.28-1.19-.21-2.34.59-2.57,1.78,0,.01-.01.03-.01.04-.1.59.03,1.18.38,1.67.34.49.86.81,1.45.92l1.64.26-2.15,12.15-.03.25s0,.08,0,.12c1.33-.89,2.94-1.62,4.86-2.06l1.73-9.81Z"/>
      <g id="g7">
        <g id="path39">
          <path class="cls-2" d="M47.05,56.11l-13.32,9.91c-1.85,1.4-2.24,4.03-.88,5.91l15.96,22.29c1.33,1.88,3.93,2.33,5.82,1,.02-.02.05-.03.07-.05l13.31-9.9c1.86-1.4,2.26-4.03.89-5.92l-15.95-22.29c-1.33-1.88-3.93-2.33-5.82-1-.02.02-.04.03-.06.05Z"/>
          <path class="cls-4" d="M70.83,77.97l-1.81-2.49-.94.03.5-.64-13.69-19.17c-1.01-1.43-2.52-2.38-4.24-2.68-1.66-.29-3.5.21-4.96,1.18v-.02s-.04.02-.05.03l-13.34,9.92c-2.87,2.17-3.48,6.31-1.38,9.2l15.95,22.28c1.26,1.79,3.27,2.75,5.33,2.75,1.34,0,2.71-.41,3.93-1.26l13.32-9.91c2.89-2.17,3.51-6.31,1.39-9.21ZM66.58,83.36l-13.33,9.92c-.8.57-1.93.38-2.5-.44l-15.96-22.31c-.6-.82-.43-1.99.37-2.59l13.2-9.82c.39-.28,1.01-.48,1.47-.4.47.08.88.34,1.17.74l15.96,22.3c.6.83.43,1.99-.38,2.6Z"/>
        </g>
        <g id="path2-8">
          <g>
            <path class="cls-4" d="M60.18,50.87c2.17-.51,4.36.75,5.03,2.87l.08.31,1.69,7.26c.27,1.15-.45,2.29-1.59,2.56-1.05.24-2.12-.34-2.48-1.35l-.07-.24-1.69-7.26-2.07.48c-1.15.27-2.29-.45-2.56-1.59-.24-1.05.34-2.12,1.35-2.48l.24-.07,2.07-.48Z"/>
            <path class="cls-3" d="M64.91,64.53c-1.13,0-2.17-.7-2.57-1.8l-.08-.27-1.56-6.7-1.48.35c-.71.16-1.45.04-2.07-.34-.62-.39-1.05-.99-1.22-1.7-.31-1.35.43-2.72,1.73-3.19l.28-.08,2.11-.49c2.48-.57,4.99.87,5.75,3.28l.09.33,1.69,7.28c.17.71.04,1.45-.34,2.07-.38.62-.99,1.05-1.7,1.22-.21.05-.41.07-.62.07ZM61.6,54.29l1.89,8.05c.25.69,1.01,1.1,1.76.93.4-.09.73-.33.95-.68s.28-.75.19-1.15l-1.77-7.55c-.56-1.79-2.46-2.87-4.31-2.44l-2.28.55c-.69.25-1.1,1.02-.93,1.77.09.4.33.73.68.95.35.22.76.28,1.15.19l2.66-.62Z"/>
          </g>
        </g>
        <path class="cls-3" d="M68.3,54.97c-.04.45.07.82.29,1.13.25.36.63.6,1.06.67l2.24.36-2.28,12.98c-.04.77.54,1.5,1.34,1.65.44.08.87-.01,1.22-.26.36-.25.6-.62.67-1.05l2.21-12.57c.18-1.91-1.17-3.7-3.1-4.04-.54-.08-1.08-.17-1.75-.28-.87-.16-1.71.43-1.88,1.3l-.02.12ZM70.14,72.28c-1.4-.25-1.82-.85-1.75-2.28l.04-.3,2.04-11.57-1.03-.17c-.76-.13-1.41-.54-1.85-1.17-.44-.62-.61-1.37-.48-2.12l.04-.16c.34-1.45,1.79-2.4,3.25-2.15.67.11,1.2.2,1.73.28h.01c2.54.45,4.34,2.8,4.1,5.37l-.05.36-2.17,12.28c-.27-.06-.36.12-1.01.51l-2.89,1.11Z"/>
      </g>
      <g id="path31">
        <path class="cls-2" d="M91.2,79.99l-3.52,20.72c-.6,3.49-.89,5.23-2.23,6.27-2.86,2.22-14.4,2.1-17.1,0-1.34-1.04-1.64-2.78-2.23-6.28l-3.52-20.72h28.61Z"/>
      </g>
      <g>
        <path class="cls-1" d="M53.61,93.76c-.42.3-.9.45-1.39.45-.14,0-.28-.01-.41-.04-.63-.11-1.19-.46-1.56-.99l-15.96-22.3c-.79-1.08-.57-2.62.5-3.43l13.21-9.82c.49-.34,1.26-.63,1.94-.51.63.11,1.18.46,1.56.99l10.93,15.27c.62-1.11,1.35-2.13,2.18-3.07l-10.21-14.27c-.92-1.3-2.29-2.17-3.85-2.44-1.45-.25-3.13.16-4.52,1.08l-.35.23-13.02,9.68c-2.61,1.97-3.17,5.72-1.25,8.36l15.95,22.28c1.11,1.57,2.92,2.5,4.84,2.5,1.27,0,2.51-.4,3.58-1.15l6.21-4.62-.67-3.94-7.7,5.73Z"/>
        <polygon class="cls-1" points="65.6 84.84 62.4 87.22 63.07 91.16 66.27 88.78 65.6 84.84"/>
        <g>
          <path class="cls-1" d="M76.8,75.2l2.84-4.97c-2.32-.47-4.72-.25-6.93.7-2.42,1.04-4.33,2.84-5.58,5.11h9.39c.04-.29.13-.57.28-.84ZM76.04,75.44l-7.41.5-.75-1.04c2.22-1.75,3.54-2.75,5.06-3.4,1.81-.78,3.79-1.05,5.74-.8l-2.41,4.22c-.1.17-.18.35-.24.54Z"/>
          <path class="cls-1" d="M68.77,99.84c.5,2.92.76,4.34,1.34,4.79,1.92,1.49,12.25,1.49,14.18,0,.58-.45.84-1.87,1.34-4.77l3.24-19.05h-23.34l3.24,19.03Z"/>
          <path class="cls-1" d="M84.04,72.14l-2.23,3.9h5.7c-.86-1.55-2.03-2.88-3.47-3.9Z"/>
          <path class="cls-4" d="M93.58,76.04h-.78l-.19-.47c-1.25-3.11-3.43-5.76-6.19-7.6l4.05-7.09c.65-1.14.26-2.6-.89-3.25-1.14-.65-2.6-.25-3.25.89l-4.27,7.48c-3.71-1.12-7.63-.99-11.23.55-4.04,1.73-7.17,4.94-8.8,9.02l-.19.47h-1.63c-1.32,0-2.38,1.07-2.38,2.38s1.07,2.38,2.38,2.38h.49l3.37,19.82c.65,3.84,1.04,6.15,3.12,7.76,1.82,1.42,5.92,2.12,10.01,2.12s8.19-.71,10.02-2.12c2.07-1.61,2.46-3.91,3.12-7.76l3.38-19.85c1.25-.07,2.26-1.09,2.26-2.36s-1.07-2.38-2.38-2.38ZM84.04,72.14c1.44,1.02,2.61,2.35,3.47,3.9h-5.7l2.23-3.9ZM72.71,70.93c2.22-.95,4.62-1.17,6.93-.7l-2.84,4.97c-.15.27-.24.55-.28.84h-9.39c1.25-2.27,3.16-4.08,5.58-5.11ZM85.63,99.87c-.5,2.9-.76,4.32-1.34,4.77-1.92,1.49-12.26,1.49-14.18,0-.58-.45-.85-1.87-1.34-4.79l-3.24-19.03h23.34l-3.24,19.05Z"/>
          <path class="cls-1" d="M72.94,71.49c-1.52.65-2.85,1.65-5.06,3.4l.75,1.04,7.41-.5c.06-.19.14-.37.24-.54l2.41-4.22c-1.94-.24-3.92.02-5.74.8Z"/>
        </g>
        <path class="cls-1" d="M66.94,83.84h0s-.25.19-.25.19l.67,3.94,1.71-1.27c1.69-1.27,2.52-3.29,2.38-5.27h-3.58c.16.89-.17,1.84-.93,2.42Z"/>
        <path class="cls-1" d="M84.22,73.04l-1.37,2.4h3.57c-.62-.92-1.36-1.72-2.2-2.4Z"/>
        <path class="cls-1" d="M67.31,80.21h3.93c-.19-.66-.48-1.3-.91-1.89h0s-1.19-1.67-1.19-1.67h-3.04l.5-.9c.27-.49.58-.95.9-1.4l-2.17-3.04c-.82.95-1.54,2-2.12,3.14l4.11,5.75Z"/>
        <path class="cls-1" d="M69.8,87.66l-2.21,1.64,1.78,10.44c.37,2.19.69,4.09,1.11,4.41,1.7,1.31,11.74,1.32,13.44,0,.42-.33.74-2.21,1.11-4.39l3.12-18.35h-15.48c.13,2.35-.86,4.73-2.87,6.24Z"/>
        <path class="cls-1" d="M66.61,81.42h-.36l.2,1.18c.25-.34.31-.78.16-1.18Z"/>
        <path class="cls-1" d="M65.82,80.21l-3.2-4.48s-.02.04-.03.06l-.34.85h-2.04c-.98,0-1.78.8-1.78,1.78s.8,1.78,1.78,1.78h1l.97,5.67,3.2-2.38-.56-3.29h1.01Z"/>
        <path class="cls-1" d="M68.2,75.44h.07l-.03-.05s-.02.03-.04.05Z"/>
        <path class="cls-1" d="M57.21,78.43c0-1.65,1.34-2.99,2.99-2.99h1.22l.04-.09c.1-.26.23-.5.34-.75l-11.3-15.79c-.19-.27-.46-.45-.78-.5-.04,0-.07,0-.11,0-.27,0-.65.13-.91.31l-13.19,9.81c-.53.4-.64,1.2-.24,1.75l15.97,22.31c.19.27.46.44.78.5.31.05.63-.02.89-.2l8.18-6.09-.9-5.27c-1.64-.01-2.97-1.35-2.97-2.99Z"/>
        <path class="cls-1" d="M72.46,70.38c2.3-.99,4.82-1.25,7.29-.74l.82.17-3.26,5.7c-.1.18-.17.38-.2.63l-.08.52h-6.41l.69.96c.58.8.97,1.69,1.18,2.6h17.08l-3.36,19.76c-.55,3.22-.81,4.55-1.56,5.14-1.08.84-4.27,1.26-7.46,1.26s-6.38-.42-7.46-1.26c-.77-.59-1.02-1.93-1.57-5.17l-1.67-9.83-3.2,2.38,1.37,8.04c.65,3.81,1,5.91,2.89,7.38,1.56,1.21,5.34,2,9.64,2s8.08-.78,9.65-2c1.88-1.46,2.24-3.56,2.89-7.37l3.46-20.34.48-.03c.95-.05,1.69-.82,1.69-1.76,0-.98-.8-1.78-1.78-1.78h-1.19l-.34-.85c-1.2-2.99-3.26-5.52-5.97-7.32l-.47-.31,4.33-7.58c.24-.41.3-.89.17-1.35-.12-.46-.42-.84-.83-1.08-.84-.48-1.94-.19-2.42.66l-4.51,7.9-.46-.14c-3.68-1.12-7.42-.93-10.82.53-1.86.8-3.51,1.92-4.9,3.3l2.12,2.97c1.16-1.29,2.57-2.31,4.18-3ZM83.84,71.27l.54.39c1.5,1.06,2.72,2.44,3.65,4.1l.5.9h-7.77l3.08-5.39Z"/>
        <path class="cls-3" d="M52.9,92.78c-.26.18-.58.25-.89.2-.31-.06-.59-.23-.78-.5l-15.97-22.31c-.4-.55-.29-1.35.24-1.75l13.19-9.81c.26-.18.64-.31.91-.31.04,0,.08,0,.11,0,.31.05.58.22.78.5l11.3,15.79c.19-.42.39-.83.61-1.23l-10.93-15.27c-.38-.53-.93-.89-1.56-.99-.68-.12-1.45.17-1.94.51l-13.21,9.82c-1.07.81-1.29,2.34-.5,3.43l15.96,22.3c.37.53.93.88,1.56.99.14.03.28.04.41.04.49,0,.97-.15,1.39-.45l7.7-5.73-.23-1.34-8.18,6.09Z"/>
        <path class="cls-3" d="M55.77,96.59c-1.07.75-2.31,1.15-3.58,1.15-1.92,0-3.73-.93-4.84-2.5l-15.95-22.28c-1.92-2.64-1.36-6.39,1.25-8.36l13.02-9.68.35-.23c1.39-.93,3.07-1.34,4.52-1.08,1.57.27,2.93,1.13,3.85,2.44l10.21,14.27c.27-.31.56-.61.85-.89l-10.08-14.08c-1.1-1.56-2.75-2.6-4.64-2.93-1.58-.27-3.39.1-4.94.99l-.05-.05-13.83,10.29c-3.13,2.37-3.81,6.87-1.5,10.03l15.94,22.28c1.33,1.88,3.51,3.01,5.83,3.01,1.52,0,3-.48,4.29-1.39l5.73-4.26-.23-1.34-6.21,4.62Z"/>
        <path class="cls-3" d="M60.2,80.21c-.98,0-1.78-.8-1.78-1.78s.8-1.78,1.78-1.78h2.04l.34-.85s.02-.04.03-.06l-.81-1.13c-.11.25-.24.49-.34.75l-.04.09h-1.22c-1.65,0-2.99,1.34-2.99,2.99s1.33,2.98,2.97,2.99l.9,5.27,1.09-.81-.97-5.67h-1Z"/>
        <path class="cls-3" d="M67.87,81.42h3.58c-.03-.41-.1-.81-.21-1.21h-3.93l.14.2c.23.31.36.66.42,1.02Z"/>
        <path class="cls-3" d="M66.61,81.42c-.04-.11-.07-.21-.14-.31l-.65-.9h-1.01l.56,3.29.84-.63c.1-.07.17-.17.24-.27l-.2-1.18h.36Z"/>
        <path class="cls-3" d="M63.2,74.46c.58-1.14,1.3-2.19,2.12-3.14l-.72-1.01c-.83.93-1.57,1.96-2.18,3.07l.78,1.09Z"/>
        <polygon class="cls-3" points="61.31 88.03 61.98 91.97 63.07 91.16 62.4 87.22 61.31 88.03"/>
        <path class="cls-3" d="M93.58,75.44h-.37l-.04-.09c-1.22-3.04-3.27-5.65-5.95-7.56l3.78-6.61c.4-.69.5-1.5.29-2.27-.21-.77-.71-1.41-1.4-1.81-1.43-.81-3.26-.32-4.08,1.11l-4.04,7.06c-3.8-1.04-7.66-.8-11.19.71-1.94.83-3.66,2-5.13,3.42l.71.99c1.39-1.38,3.04-2.51,4.9-3.3,3.4-1.46,7.14-1.65,10.82-.53l.46.14,4.51-7.9c.49-.85,1.58-1.15,2.42-.66.41.24.71.62.83,1.08.13.46.07.94-.17,1.35l-4.33,7.58.47.31c2.71,1.8,4.77,4.34,5.97,7.32l.34.85h1.19c.98,0,1.78.8,1.78,1.78s-.74,1.7-1.69,1.76l-.48.03-3.46,20.34c-.65,3.81-1.01,5.91-2.89,7.37-1.57,1.21-5.35,2-9.65,2s-8.08-.78-9.64-2c-1.89-1.47-2.25-3.57-2.89-7.38l-1.37-8.04-1.09.81,1.26,7.43c.65,3.84,1.08,6.38,3.34,8.14,2.14,1.66,6.77,2.25,10.38,2.25s8.25-.59,10.39-2.25c2.25-1.75,2.66-4.15,3.34-8.14l3.3-19.41c1.35-.3,2.34-1.49,2.34-2.9,0-1.65-1.34-2.99-2.99-2.99Z"/>
        <path class="cls-3" d="M88.03,75.75c-.93-1.66-2.15-3.04-3.65-4.1l-.54-.39-3.08,5.39h7.77l-.5-.9ZM82.85,75.44l1.37-2.4c.84.68,1.58,1.48,2.2,2.4h-3.57Z"/>
        <polygon class="cls-3" points="66.69 84.03 65.6 84.84 66.27 88.78 67.36 87.96 66.69 84.03"/>
        <path class="cls-3" d="M88.15,81.42l-3.12,18.35c-.37,2.18-.69,4.06-1.11,4.39-1.7,1.32-11.74,1.31-13.44,0-.42-.33-.75-2.22-1.11-4.41l-1.78-10.44-1.09.81,1.67,9.83c.55,3.24.8,4.58,1.57,5.17,1.08.84,4.27,1.26,7.46,1.26s6.38-.42,7.46-1.26c.76-.59,1.01-1.92,1.56-5.14l3.36-19.76h-17.08c.09.4.15.81.17,1.21h15.48Z"/>
        <path class="cls-3" d="M64.6,70.31l.72,1.01c.27-.31.55-.62.84-.91l-.71-.99c-.3.29-.58.58-.85.89Z"/>
        <polygon class="cls-3" points="61.08 86.69 61.31 88.03 62.4 87.22 62.17 85.88 61.08 86.69"/>
        <path class="cls-3" d="M66.45,82.6c-.07.1-.14.19-.24.27l-.84.63.23,1.34,1.09-.81"/>
        <polygon class="cls-3" points="63.07 91.16 61.98 91.97 62.2 93.31 63.3 92.5 63.07 91.16"/>
        <polygon class="cls-3" points="67.36 87.96 66.27 88.78 66.5 90.11 67.59 89.3 67.36 87.96"/>
        <path class="cls-3" d="M62.62,75.73c.18-.43.37-.86.58-1.27l-.78-1.09c-.22.4-.42.81-.61,1.23l.81,1.13Z"/>
        <path class="cls-3" d="M66.47,81.11c.07.09.1.2.14.31h1.26c-.06-.36-.2-.71-.42-1.02l-.14-.2h-1.49l.65.9Z"/>
        <path class="cls-3" d="M71.46,81.42h1.21c-.02-.41-.08-.81-.17-1.21h-1.26c.11.4.18.8.21,1.21Z"/>
        <path class="cls-3" d="M79.76,69.64c-2.48-.51-4.99-.25-7.29.74-1.6.69-3.01,1.71-4.18,3-.28.31-.54.64-.79.98-.32.44-.63.9-.9,1.4l-.5.9h10.94l.08-.52c.04-.24.1-.45.2-.63l3.26-5.7-.82-.17ZM76.27,74.9c-.1.17-.18.35-.24.54h-7.83s.02-.03.04-.05c.24-.35.5-.68.78-1,1.08-1.26,2.4-2.25,3.93-2.91,1.81-.78,3.79-1.05,5.74-.8l-2.41,4.22Z"/>
      </g>
      <g>
        <circle class="cls-4" cx="74.77" cy="102.52" r="2.69"/>
        <path class="cls-3" d="M74.77,105.82c-1.82,0-3.3-1.48-3.3-3.3s1.48-3.3,3.3-3.3,3.3,1.48,3.3,3.3-1.48,3.3-3.3,3.3ZM74.77,100.43c-1.15,0-2.08.93-2.08,2.08s.93,2.09,2.08,2.09,2.08-.94,2.08-2.09-.93-2.08-2.08-2.08Z"/>
      </g>
      <g>
        <circle class="cls-4" cx="78.36" cy="98.35" r="2.69"/>
        <path class="cls-3" d="M78.36,101.65c-1.82,0-3.3-1.48-3.3-3.3s1.48-3.3,3.3-3.3,3.3,1.48,3.3,3.3-1.48,3.3-3.3,3.3ZM78.36,96.27c-1.15,0-2.08.93-2.08,2.08s.93,2.08,2.08,2.08,2.09-.93,2.09-2.08-.94-2.08-2.09-2.08Z"/>
      </g>
      <g>
        <circle class="cls-4" cx="80.51" cy="103.04" r="2.69"/>
        <path class="cls-3" d="M80.51,106.34c-1.82,0-3.3-1.48-3.3-3.3s1.48-3.3,3.3-3.3,3.3,1.48,3.3,3.3-1.48,3.3-3.3,3.3ZM80.51,100.95c-1.15,0-2.08.94-2.08,2.09s.93,2.08,2.08,2.08,2.08-.93,2.08-2.08-.93-2.09-2.08-2.09Z"/>
      </g>
    </g>
    <path class="cls-3" d="M64.55,123.77c-23.78,0-43.13-19.35-43.13-43.13s19.35-43.13,43.13-43.13,43.13,19.35,43.13,43.13-19.35,43.13-43.13,43.13ZM64.55,39.01c-22.95,0-41.63,18.67-41.63,41.63s18.67,41.63,41.63,41.63,41.63-18.67,41.63-41.63-18.67-41.63-41.63-41.63Z"/>
  </g>
</svg>