<?xml version="1.0" encoding="UTF-8"?>
<svg id="Layer_2" data-name="Layer 2" xmlns="http://www.w3.org/2000/svg" viewBox="0 0 67.52 60.98">
  <defs>
    <style>
      .cls-1 {
        fill: none;
      }

      .cls-2 {
        fill: #bb6830;
      }

      .cls-3 {
        fill: #111a19;
      }

      .cls-4 {
        fill: #fbd794;
      }
    </style>
  </defs>
  <g id="svg7">
    <g>
      <path class="cls-4" d="M46.55,8.13l.05-.33c.22-2.26-1.36-4.33-3.6-4.72-.53-.08-1.07-.17-1.75-.28-1.19-.21-2.34.59-2.57,1.78,0,.01-.01.03-.01.04-.1.59.03,1.18.38,1.67.34.49.86.81,1.45.92l1.64.26-2.15,12.15-.03.25s0,.08,0,.12c1.33-.89,2.94-1.62,4.86-2.06l1.73-9.81Z"/>
      <g id="g7">
        <g id="path39">
          <path class="cls-2" d="M18,5.95L4.67,15.87c-1.85,1.4-2.24,4.03-.88,5.91l15.96,22.29c1.33,1.88,3.93,2.33,5.82,1,.02-.02.05-.03.07-.05l13.31-9.9c1.86-1.4,2.26-4.03.89-5.92L23.88,6.91c-1.33-1.88-3.93-2.33-5.82-1-.02.02-.04.03-.06.05Z"/>
          <path class="cls-4" d="M41.77,27.81l-1.81-2.49-.94.03.5-.64L25.83,5.54c-1.01-1.43-2.52-2.38-4.24-2.68-1.66-.29-3.5.21-4.96,1.18v-.02s-.04.02-.05.03L3.24,13.96C.36,16.14-.25,20.27,1.86,23.16l15.95,22.28c1.26,1.79,3.27,2.75,5.33,2.75,1.34,0,2.71-.41,3.93-1.26l13.32-9.91c2.89-2.17,3.51-6.31,1.39-9.21ZM37.53,33.2l-13.33,9.92c-.8.57-1.93.38-2.5-.44L5.73,20.37c-.6-.82-.43-1.99.37-2.59l13.2-9.82c.39-.28,1.01-.48,1.47-.4.47.08.88.34,1.17.74l15.96,22.3c.6.83.43,1.99-.38,2.6Z"/>
        </g>
        <g id="path2-8">
          <g>
            <path class="cls-4" d="M31.13.72c2.17-.51,4.36.75,5.03,2.87l.08.31,1.69,7.26c.27,1.15-.45,2.29-1.59,2.56-1.05.24-2.12-.34-2.48-1.35l-.07-.24-1.69-7.26-2.07.48c-1.15.27-2.29-.45-2.56-1.59-.24-1.05.34-2.12,1.35-2.48l.24-.07,2.07-.48Z"/>
            <path class="cls-3" d="M35.86,14.37c-1.13,0-2.17-.7-2.57-1.8l-.08-.27-1.56-6.7-1.48.35c-.71.16-1.45.04-2.07-.34-.62-.39-1.05-.99-1.22-1.7-.31-1.35.43-2.72,1.73-3.19l.28-.08,2.11-.49c2.48-.57,4.99.87,5.75,3.28l.09.33,1.69,7.28c.17.71.04,1.45-.34,2.07-.38.62-.99,1.05-1.7,1.22-.21.05-.41.07-.62.07ZM32.55,4.14l1.89,8.05c.25.69,1.01,1.1,1.76.93.4-.09.73-.33.95-.68s.28-.75.19-1.15l-1.77-7.55c-.56-1.79-2.46-2.87-4.31-2.44l-2.28.55c-.69.25-1.1,1.02-.93,1.77.09.4.33.73.68.95.35.22.76.28,1.15.19l2.66-.62Z"/>
          </g>
        </g>
        <path class="cls-3" d="M39.25,4.81c-.04.45.07.82.29,1.13.25.36.63.6,1.06.67l2.24.36-2.28,12.98c-.04.77.54,1.5,1.34,1.65.44.08.87-.01,1.22-.26.36-.25.6-.62.67-1.05l2.21-12.57c.18-1.91-1.17-3.7-3.1-4.04-.54-.08-1.08-.17-1.75-.28-.87-.16-1.71.43-1.88,1.3l-.02.12ZM41.09,22.12c-1.4-.25-1.82-.85-1.75-2.28l.04-.3,2.04-11.57-1.03-.17c-.76-.13-1.41-.54-1.85-1.17-.44-.62-.61-1.37-.48-2.12l.04-.16c.34-1.45,1.79-2.4,3.25-2.15.67.11,1.2.2,1.73.28h.01c2.54.45,4.34,2.8,4.1,5.37l-.05.36-2.17,12.28c-.27-.06-.36.12-1.01.51l-2.89,1.11Z"/>
      </g>
      <g id="path31">
        <path class="cls-2" d="M62.15,29.83l-3.52,20.72c-.6,3.49-.89,5.23-2.23,6.27-2.86,2.22-14.4,2.1-17.1,0-1.34-1.04-1.64-2.78-2.23-6.28l-3.52-20.72h28.61Z"/>
      </g>
      <g>
        <path class="cls-1" d="M24.56,43.6c-.42.3-.9.45-1.39.45-.14,0-.28-.01-.41-.04-.63-.11-1.19-.46-1.56-.99L5.23,20.72c-.79-1.08-.57-2.62.5-3.43l13.21-9.82c.49-.34,1.26-.63,1.94-.51.63.11,1.18.46,1.56.99l10.93,15.27c.62-1.11,1.35-2.13,2.18-3.07l-10.21-14.27c-.92-1.3-2.29-2.17-3.85-2.44-1.45-.25-3.13.16-4.52,1.08l-.35.23L3.6,14.45c-2.61,1.97-3.17,5.72-1.25,8.36l15.95,22.28c1.11,1.57,2.92,2.5,4.84,2.5,1.27,0,2.51-.4,3.58-1.15l6.21-4.62-.67-3.94-7.7,5.73Z"/>
        <polygon class="cls-1" points="36.55 34.68 33.35 37.07 34.02 41 37.22 38.62 36.55 34.68"/>
        <g>
          <path class="cls-1" d="M47.74,25.05l2.84-4.97c-2.32-.47-4.72-.25-6.93.7-2.42,1.04-4.33,2.84-5.58,5.11h9.39c.04-.29.13-.57.28-.84ZM46.99,25.29l-7.41.5-.75-1.04c2.22-1.75,3.54-2.75,5.06-3.4,1.81-.78,3.79-1.05,5.74-.8l-2.41,4.22c-.1.17-.18.35-.24.54Z"/>
          <path class="cls-1" d="M39.72,49.69c.5,2.92.76,4.34,1.34,4.79,1.92,1.49,12.25,1.49,14.18,0,.58-.45.84-1.87,1.34-4.77l3.24-19.05h-23.34l3.24,19.03Z"/>
          <path class="cls-1" d="M54.98,21.99l-2.23,3.9h5.7c-.86-1.55-2.03-2.88-3.47-3.9Z"/>
          <path class="cls-4" d="M64.53,25.89h-.78l-.19-.47c-1.25-3.11-3.43-5.76-6.19-7.6l4.05-7.09c.65-1.14.26-2.6-.89-3.25-1.14-.65-2.6-.25-3.25.89l-4.27,7.48c-3.71-1.12-7.63-.99-11.23.55-4.04,1.73-7.17,4.94-8.8,9.02l-.19.47h-1.63c-1.32,0-2.38,1.07-2.38,2.38s1.07,2.38,2.38,2.38h.49l3.37,19.82c.65,3.84,1.04,6.15,3.12,7.76,1.82,1.42,5.92,2.12,10.01,2.12s8.19-.71,10.02-2.12c2.07-1.61,2.46-3.91,3.12-7.76l3.38-19.85c1.25-.07,2.26-1.09,2.26-2.36s-1.07-2.38-2.38-2.38ZM54.98,21.99c1.44,1.02,2.61,2.35,3.47,3.9h-5.7l2.23-3.9ZM43.65,20.78c2.22-.95,4.62-1.17,6.93-.7l-2.84,4.97c-.15.27-.24.55-.28.84h-9.39c1.25-2.27,3.16-4.08,5.58-5.11ZM56.57,49.71c-.5,2.9-.76,4.32-1.34,4.77-1.92,1.49-12.26,1.49-14.18,0-.58-.45-.85-1.87-1.34-4.79l-3.24-19.03h23.34l-3.24,19.05Z"/>
          <path class="cls-1" d="M43.89,21.33c-1.52.65-2.85,1.65-5.06,3.4l.75,1.04,7.41-.5c.06-.19.14-.37.24-.54l2.41-4.22c-1.94-.24-3.92.02-5.74.8Z"/>
        </g>
        <path class="cls-1" d="M37.89,33.69h0s-.25.19-.25.19l.67,3.94,1.71-1.27c1.69-1.27,2.52-3.29,2.38-5.27h-3.58c.16.89-.17,1.84-.93,2.42Z"/>
        <path class="cls-1" d="M55.17,22.89l-1.37,2.4h3.57c-.62-.92-1.36-1.72-2.2-2.4Z"/>
        <path class="cls-1" d="M38.26,30.06h3.93c-.19-.66-.48-1.3-.91-1.89h0s-1.19-1.67-1.19-1.67h-3.04l.5-.9c.27-.49.58-.95.9-1.4l-2.17-3.04c-.82.95-1.54,2-2.12,3.14l4.11,5.75Z"/>
        <path class="cls-1" d="M40.75,37.51l-2.21,1.64,1.78,10.44c.37,2.19.69,4.09,1.11,4.41,1.7,1.31,11.74,1.32,13.44,0,.42-.33.74-2.21,1.11-4.39l3.12-18.35h-15.48c.13,2.35-.86,4.73-2.87,6.24Z"/>
        <path class="cls-1" d="M37.56,31.27h-.36l.2,1.18c.25-.34.31-.78.16-1.18Z"/>
        <path class="cls-1" d="M36.77,30.06l-3.2-4.48s-.02.04-.03.06l-.34.85h-2.04c-.98,0-1.78.8-1.78,1.78s.8,1.78,1.78,1.78h1l.97,5.67,3.2-2.38-.56-3.29h1.01Z"/>
        <path class="cls-1" d="M39.15,25.29h.07l-.03-.05s-.02.03-.04.05Z"/>
        <path class="cls-1" d="M28.16,28.28c0-1.65,1.34-2.99,2.99-2.99h1.22l.04-.09c.1-.26.23-.5.34-.75l-11.3-15.79c-.19-.27-.46-.45-.78-.5-.04,0-.07,0-.11,0-.27,0-.65.13-.91.31l-13.19,9.81c-.53.4-.64,1.2-.24,1.75l15.97,22.31c.19.27.46.44.78.5.31.05.63-.02.89-.2l8.18-6.09-.9-5.27c-1.64-.01-2.97-1.35-2.97-2.99Z"/>
        <path class="cls-1" d="M43.41,20.22c2.3-.99,4.82-1.25,7.29-.74l.82.17-3.26,5.7c-.1.18-.17.38-.2.63l-.08.52h-6.41l.69.96c.58.8.97,1.69,1.18,2.6h17.08l-3.36,19.76c-.55,3.22-.81,4.55-1.56,5.14-1.08.84-4.27,1.26-7.46,1.26s-6.38-.42-7.46-1.26c-.77-.59-1.02-1.93-1.57-5.17l-1.67-9.83-3.2,2.38,1.37,8.04c.65,3.81,1,5.91,2.89,7.38,1.56,1.21,5.34,2,9.64,2s8.08-.78,9.65-2c1.88-1.46,2.24-3.56,2.89-7.37l3.46-20.34.48-.03c.95-.05,1.69-.82,1.69-1.76,0-.98-.8-1.78-1.78-1.78h-1.19l-.34-.85c-1.2-2.99-3.26-5.52-5.97-7.32l-.47-.31,4.33-7.58c.24-.41.3-.89.17-1.35-.12-.46-.42-.84-.83-1.08-.84-.48-1.94-.19-2.42.66l-4.51,7.9-.46-.14c-3.68-1.12-7.42-.93-10.82.53-1.86.8-3.51,1.92-4.9,3.3l2.12,2.97c1.16-1.29,2.57-2.31,4.18-3ZM54.79,21.11l.54.39c1.5,1.06,2.72,2.44,3.65,4.1l.5.9h-7.77l3.08-5.39Z"/>
        <path class="cls-3" d="M23.85,42.63c-.26.18-.58.25-.89.2-.31-.06-.59-.23-.78-.5L6.22,20.01c-.4-.55-.29-1.35.24-1.75l13.19-9.81c.26-.18.64-.31.91-.31.04,0,.08,0,.11,0,.31.05.58.22.78.5l11.3,15.79c.19-.42.39-.83.61-1.23l-10.93-15.27c-.38-.53-.93-.89-1.56-.99-.68-.12-1.45.17-1.94.51l-13.21,9.82c-1.07.81-1.29,2.34-.5,3.43l15.96,22.3c.37.53.93.88,1.56.99.14.03.28.04.41.04.49,0,.97-.15,1.39-.45l7.7-5.73-.23-1.34-8.18,6.09Z"/>
        <path class="cls-3" d="M26.71,46.44c-1.07.75-2.31,1.15-3.58,1.15-1.92,0-3.73-.93-4.84-2.5L2.35,22.81c-1.92-2.64-1.36-6.39,1.25-8.36l13.02-9.68.35-.23c1.39-.93,3.07-1.34,4.52-1.08,1.57.27,2.93,1.13,3.85,2.44l10.21,14.27c.27-.31.56-.61.85-.89l-10.08-14.08c-1.1-1.56-2.75-2.6-4.64-2.93-1.58-.27-3.39.1-4.94.99l-.05-.05L2.87,13.48c-3.13,2.37-3.81,6.87-1.5,10.03l15.94,22.28c1.33,1.88,3.51,3.01,5.83,3.01,1.52,0,3-.48,4.29-1.39l5.73-4.26-.23-1.34-6.21,4.62Z"/>
        <path class="cls-3" d="M31.15,30.06c-.98,0-1.78-.8-1.78-1.78s.8-1.78,1.78-1.78h2.04l.34-.85s.02-.04.03-.06l-.81-1.13c-.11.25-.24.49-.34.75l-.04.09h-1.22c-1.65,0-2.99,1.34-2.99,2.99s1.33,2.98,2.97,2.99l.9,5.27,1.09-.81-.97-5.67h-1Z"/>
        <path class="cls-3" d="M38.82,31.27h3.58c-.03-.41-.1-.81-.21-1.21h-3.93l.14.2c.23.31.36.66.42,1.02Z"/>
        <path class="cls-3" d="M37.56,31.27c-.04-.11-.07-.21-.14-.31l-.65-.9h-1.01l.56,3.29.84-.63c.1-.07.17-.17.24-.27l-.2-1.18h.36Z"/>
        <path class="cls-3" d="M34.15,24.31c.58-1.14,1.3-2.19,2.12-3.14l-.72-1.01c-.83.93-1.57,1.96-2.18,3.07l.78,1.09Z"/>
        <polygon class="cls-3" points="32.25 37.88 32.93 41.82 34.02 41 33.35 37.07 32.25 37.88"/>
        <path class="cls-3" d="M64.53,25.29h-.37l-.04-.09c-1.22-3.04-3.27-5.65-5.95-7.56l3.78-6.61c.4-.69.5-1.5.29-2.27-.21-.77-.71-1.41-1.4-1.81-1.43-.81-3.26-.32-4.08,1.11l-4.04,7.06c-3.8-1.04-7.66-.8-11.19.71-1.94.83-3.66,2-5.13,3.42l.71.99c1.39-1.38,3.04-2.51,4.9-3.3,3.4-1.46,7.14-1.65,10.82-.53l.46.14,4.51-7.9c.49-.85,1.58-1.15,2.42-.66.41.24.71.62.83,1.08.13.46.07.94-.17,1.35l-4.33,7.58.47.31c2.71,1.8,4.77,4.34,5.97,7.32l.34.85h1.19c.98,0,1.78.8,1.78,1.78s-.74,1.7-1.69,1.76l-.48.03-3.46,20.34c-.65,3.81-1.01,5.91-2.89,7.37-1.57,1.21-5.35,2-9.65,2s-8.08-.78-9.64-2c-1.89-1.47-2.25-3.57-2.89-7.38l-1.37-8.04-1.09.81,1.26,7.43c.65,3.84,1.08,6.38,3.34,8.14,2.14,1.66,6.77,2.25,10.38,2.25s8.25-.59,10.39-2.25c2.25-1.75,2.66-4.15,3.34-8.14l3.3-19.41c1.35-.3,2.34-1.49,2.34-2.9,0-1.65-1.34-2.99-2.99-2.99Z"/>
        <path class="cls-3" d="M58.98,25.6c-.93-1.66-2.15-3.04-3.65-4.1l-.54-.39-3.08,5.39h7.77l-.5-.9ZM53.8,25.29l1.37-2.4c.84.68,1.58,1.48,2.2,2.4h-3.57Z"/>
        <polygon class="cls-3" points="37.64 33.87 36.55 34.68 37.22 38.62 38.31 37.81 37.64 33.87"/>
        <path class="cls-3" d="M59.1,31.27l-3.12,18.35c-.37,2.18-.69,4.06-1.11,4.39-1.7,1.32-11.74,1.31-13.44,0-.42-.33-.75-2.22-1.11-4.41l-1.78-10.44-1.09.81,1.67,9.83c.55,3.24.8,4.58,1.57,5.17,1.08.84,4.27,1.26,7.46,1.26s6.38-.42,7.46-1.26c.76-.59,1.01-1.92,1.56-5.14l3.36-19.76h-17.08c.09.4.15.81.17,1.21h15.48Z"/>
        <path class="cls-3" d="M35.55,20.15l.72,1.01c.27-.31.55-.62.84-.91l-.71-.99c-.3.29-.58.58-.85.89Z"/>
        <polygon class="cls-3" points="32.03 36.54 32.25 37.88 33.35 37.07 33.12 35.73 32.03 36.54"/>
        <path class="cls-3" d="M37.4,32.45c-.07.1-.14.19-.24.27l-.84.63.23,1.34,1.09-.81"/>
        <polygon class="cls-3" points="34.02 41 32.93 41.82 33.15 43.15 34.24 42.34 34.02 41"/>
        <polygon class="cls-3" points="38.31 37.81 37.22 38.62 37.45 39.96 38.54 39.15 38.31 37.81"/>
        <path class="cls-3" d="M33.56,25.58c.18-.43.37-.86.58-1.27l-.78-1.09c-.22.4-.42.81-.61,1.23l.81,1.13Z"/>
        <path class="cls-3" d="M37.42,30.96c.07.09.1.2.14.31h1.26c-.06-.36-.2-.71-.42-1.02l-.14-.2h-1.49l.65.9Z"/>
        <path class="cls-3" d="M42.4,31.27h1.21c-.02-.41-.08-.81-.17-1.21h-1.26c.11.4.18.8.21,1.21Z"/>
        <path class="cls-3" d="M50.71,19.48c-2.48-.51-4.99-.25-7.29.74-1.6.69-3.01,1.71-4.18,3-.28.31-.54.64-.79.98-.32.44-.63.9-.9,1.4l-.5.9h10.94l.08-.52c.04-.24.1-.45.2-.63l3.26-5.7-.82-.17ZM47.22,24.75c-.1.17-.18.35-.24.54h-7.83s.02-.03.04-.05c.24-.35.5-.68.78-1,1.08-1.26,2.4-2.25,3.93-2.91,1.81-.78,3.79-1.05,5.74-.8l-2.41,4.22Z"/>
      </g>
      <g>
        <circle class="cls-4" cx="45.72" cy="52.37" r="2.69"/>
        <path class="cls-3" d="M45.72,55.67c-1.82,0-3.3-1.48-3.3-3.3s1.48-3.3,3.3-3.3,3.3,1.48,3.3,3.3-1.48,3.3-3.3,3.3ZM45.72,50.28c-1.15,0-2.08.93-2.08,2.08s.93,2.09,2.08,2.09,2.08-.94,2.08-2.09-.93-2.08-2.08-2.08Z"/>
      </g>
      <g>
        <circle class="cls-4" cx="49.31" cy="48.2" r="2.69"/>
        <path class="cls-3" d="M49.31,51.49c-1.82,0-3.3-1.48-3.3-3.3s1.48-3.3,3.3-3.3,3.3,1.48,3.3,3.3-1.48,3.3-3.3,3.3ZM49.31,46.11c-1.15,0-2.08.93-2.08,2.08s.93,2.08,2.08,2.08,2.09-.93,2.09-2.08-.94-2.08-2.09-2.08Z"/>
      </g>
      <g>
        <circle class="cls-4" cx="51.46" cy="52.89" r="2.69"/>
        <path class="cls-3" d="M51.46,56.18c-1.82,0-3.3-1.48-3.3-3.3s1.48-3.3,3.3-3.3,3.3,1.48,3.3,3.3-1.48,3.3-3.3,3.3ZM51.46,50.8c-1.15,0-2.08.94-2.08,2.09s.93,2.08,2.08,2.08,2.08-.93,2.08-2.08-.93-2.09-2.08-2.09Z"/>
      </g>
    </g>
  </g>
</svg>