<?xml version="1.0" encoding="UTF-8"?><svg id="Layer_2" xmlns="http://www.w3.org/2000/svg" xmlns:xlink="http://www.w3.org/1999/xlink" viewBox="0 0 751.12 966.04"><defs><style>.cls-1{fill:url(#linear-gradient-12);}.cls-1,.cls-2,.cls-3,.cls-4,.cls-5,.cls-6,.cls-7,.cls-8,.cls-9,.cls-10,.cls-11,.cls-12,.cls-13,.cls-14,.cls-15,.cls-16,.cls-17,.cls-18,.cls-19{stroke-width:0px;}.cls-2{fill:url(#linear-gradient);}.cls-3{fill:url(#linear-gradient-6);}.cls-4{fill:#010101;}.cls-5{fill:url(#linear-gradient-11);}.cls-6{fill:url(#linear-gradient-5);}.cls-7{fill:none;}.cls-8{fill:url(#linear-gradient-13);}.cls-9{fill:#fff;}.cls-10{fill:#d4ba6a;}.cls-11{fill:url(#linear-gradient-2);}.cls-12{fill:url(#linear-gradient-7);}.cls-13{fill:url(#linear-gradient-3);}.cls-14{fill:#231f20;}.cls-15{fill:url(#linear-gradient-9);}.cls-16{fill:url(#linear-gradient-8);}.cls-17{fill:url(#linear-gradient-10);}.cls-18{fill:url(#linear-gradient-4);}.cls-19{fill:#667d36;}</style><linearGradient id="linear-gradient" x1="569.7" y1="186" x2="680.58" y2="186" gradientUnits="userSpaceOnUse"><stop offset="0" stop-color="#4f6930"/><stop offset="1" stop-color="#4f5524"/></linearGradient><linearGradient id="linear-gradient-2" x1="8" y1="741.9" x2="176.29" y2="741.9" xlink:href="#linear-gradient"/><linearGradient id="linear-gradient-3" x1="151.51" y1="699.67" x2="208.95" y2="699.67" xlink:href="#linear-gradient"/><linearGradient id="linear-gradient-4" x1="569.96" y1="820.78" x2="743.12" y2="820.78" xlink:href="#linear-gradient"/><linearGradient id="linear-gradient-5" x1="544.43" y1="741.41" x2="655.65" y2="741.41" xlink:href="#linear-gradient"/><linearGradient id="linear-gradient-6" x1="41.51" y1="259.23" x2="202.63" y2="259.23" xlink:href="#linear-gradient"/><linearGradient id="linear-gradient-7" x1="266.27" y1="44.95" x2="363.86" y2="44.95" xlink:href="#linear-gradient"/><linearGradient id="linear-gradient-8" x1="11.34" y1="355.16" x2="173.57" y2="355.16" xlink:href="#linear-gradient"/><linearGradient id="linear-gradient-9" x1="315.67" y1="85.77" x2="366.19" y2="85.77" xlink:href="#linear-gradient"/><linearGradient id="linear-gradient-10" x1="45.76" y1="118.86" x2="121.79" y2="118.86" xlink:href="#linear-gradient"/><linearGradient id="linear-gradient-11" x1="657.6" y1="367.11" x2="698.36" y2="367.11" xlink:href="#linear-gradient"/><linearGradient id="linear-gradient-12" x1="546.52" y1="340.4" x2="580.58" y2="340.4" xlink:href="#linear-gradient"/><linearGradient id="linear-gradient-13" x1="424.85" y1="221.17" x2="467.75" y2="221.17" xlink:href="#linear-gradient"/></defs><g id="Layer_1-2"><circle class="cls-7" cx="252.46" cy="3.61" r="3.61"/><path class="cls-14" d="m632.79,966.04c-.22-.45-.43-.9-.64-1.36.77-.15,1.57-.31,2.38-.49"/><path class="cls-14" d="m749.31,864.78c-5.84-7.13-11.49-14.16-16.94-20.96-12.02-14.97-23.38-29.12-35.54-42.8-17.9-20.14-39.21-32.12-63.5-35.78,5.48-12.56,9.83-26.82,13.32-43.45,2.34-11.13,5.89-22.41,9.32-33.31l1.15-3.65c.64-2.04,1.95-4.28,3.34-6.65.76-1.29,1.54-2.63,2.28-4.04,1.6-3.04,1.07-6.77-1.31-9.26-1.54-1.61-3.64-2.46-5.78-2.46-1.16,0-2.32.25-3.41.77-5.25,2.48-10.04,5.55-14.64,9.38l-8.02,6.68c-19.22,15.99-39.09,32.52-58.46,49.03-16.15,13.77-26.5,27.33-32.57,42.69-2.45,6.2-2.67,13.84-1.18,21-3.9-6.52-8.2-12.69-12.32-18.61-8.13-11.66-15.8-22.67-16.9-31.77-.23-1.9-.36-3.82-.43-5.77,4.9,5.7,11.97,8.94,19.67,8.94,5.55,0,11.29-1.63,17.06-4.85,3.86-2.15,5.24-7.03,3.09-10.88l-5.33-9.55c-1.46-2.62-4.19-4.1-6.99-4.1-1.32,0-2.66.33-3.89,1.01-1.67.93-2.79,1.24-3.42,1.35-.57-1.98.2-7.29,5.64-12.61,60.86-59.46,103.38-113.43,126.39-160.42,20.15-41.14,26.17-78.63,17.9-111.44-2.41-9.55-6.19-18.54-11.12-26.78,1.93,1.52,4.42,2.74,7.68,2.74,2.01,0,4.05-.5,6.06-1.49,16.33-8.03,25.25-22.33,25.8-41.36.21-7.38.1-14.67-.03-22.39-.06-3.49-.11-7.06-.14-10.74-.03-3.54-2.37-6.64-5.77-7.62-.74-.21-1.49-.32-2.23-.32-2.67,0-5.23,1.34-6.73,3.67-.82,1.27-1.62,2.46-2.39,3.6-1.8,2.67-3.51,5.19-5.01,8.1-3.67,7.1-8.35,12.03-14.31,15.08l-.84.42c-1.56.78-3.33,1.67-5.11,2.99l-.54.4c-2.36,1.75-5.03,3.73-7.4,6.36-6.91,7.69-7.11,14.56-4.93,20.41-8.89-8.67-19.43-15.73-31.2-20.71,6.42-.26,12.75-.89,19.16-1.59,5.95-.65,18.58-10.07,18.61-19.04,0-2.6-1.16-5.74-2.87-8.88,8.6-.42,17.45-3.58,26.98-9.63,12.68-8.06,22.29-20.17,29.36-37.03.29-.7.48-1.43.56-2.16,6.38-4.96,10.96-14.86,11.26-19.89.14-2.36-.78-4.58-2.4-6.17,1.86-1.63,2.9-4.06,2.7-6.62-.26-3.39-2.63-6.25-5.92-7.13l-.78-.21c-.51-.13-1.01-.27-1.51-.4,1.69-1.53,2.67-3.71,2.64-6.03-.04-2.85-1.6-5.46-4.08-6.85-3.02-1.7-9.02-3.82-15.36-5.17.04-.48.06-.97.03-1.49-.43-7.13-7.73-9.95-10.48-11-8.59-3.31-18.09-5.06-25.4-6.22-2.44-.39-4.94-.58-7.41-.58-11.64,0-22.63,4.27-30.64,11.45-2.16-4.52-5.92-7.7-10.61-8.84l8.74-2.87c12.97-4.26,25.95-8.52,38.92-12.8,4.86-1.6,9.7-3.23,14.72-4.91l7.31-2.45c3.03-1.01,5.16-3.72,5.43-6.9.27-3.18-1.37-6.21-4.17-7.73-1.56-.84-3.05-1.63-4.5-2.39-2.82-1.49-5.49-2.89-7.98-4.36-14.6-8.58-30.57-12.94-47.48-12.94-7.2,0-14.69.79-22.28,2.36-15.69,3.23-27.12,10.34-34.93,21.73-1.97,2.87-3.65,8.98.23,13.17-.05.04-3.03,2.67-3.03,2.67-.19.16-.35.34-.52.52-.98-6.89-3.73-13.71-8.33-20.67-1.01-1.53-2.49-2.62-4.17-3.17,0-.3-.02-.6-.04-.9-.32-4.5-1.12-8.82-1.9-13l-.16-.86-.05-.29c-.42-2.5-1.19-7.16-5-9.73-1.41-.95-3.09-1.46-4.86-1.46-1.64,0-3.76.61-5.93,1.61-.18-.41-.37-.82-.62-1.2-1.35-2.11-3.62-3.46-6.11-3.65-1-.08-1.98-.12-2.93-.12-14.7,0-24.08,9.28-25.08,24.82-.01.18,0,.36,0,.54-1.43.03-2.86.43-4.12,1.23-9.34,5.9-15.62,12.9-19.2,21.39-1.74,4.13-2.77,8.05-3.13,11.76-1.44-1.12-3.17-1.7-4.92-1.7-1.34,0-2.68.34-3.91,1.02-2.88,1.61-4.47,4.83-4.02,8.09.15,1.07.31,2.15.47,3.24-4.21-5.3-6.85-11.98-7.99-20.33-.52-3.79-1.41-7.25-2.36-10.91-.41-1.6-.84-3.25-1.25-5.01-.81-3.48-3.83-5.99-7.4-6.17-.13,0-.26,0-.39,0-3.41,0-6.46,2.17-7.57,5.42-1.46,4.28-2.9,8.42-4.32,12.47-3.12,8.94-6.07,17.38-8.68,26.01-4.26,14.07-4.1,26.73.44,37.84-13.22-6.91-26.92-10.4-40.99-10.4-4.58,0-8.98.38-13.19,1.04.35-.31.7-.61,1.03-.94,4.83-4.85,8.8-10.19,12.78-15.7,2.88-3.99,4-15.9-1.48-20.87-.8-.72-1.77-1.32-2.85-1.82,2.51-4.13,4.29-9.14,5.29-15.06,1.71-10.12-.01-20.47-5.27-31.64-.15-.31-.31-.61-.5-.89.02-5.95-3-12.5-5.49-15.02-1.01-1.03-2.25-1.73-3.57-2.09-.49-1.48-1.4-2.82-2.69-3.81-1.44-1.11-3.16-1.67-4.89-1.67-.31,0-.63.03-.94.07,14.52-14.61,19.56-32.8,14.98-54.15-2-9.34-4.4-18.47-6.95-28.13-1.16-4.39-2.33-8.87-3.51-13.5-.64-2.53-2.45-4.52-4.77-5.45,2.07-1.83,4.16-3.68,6.28-5.56l5.54-4.9c2.39-2.11,3.29-5.44,2.3-8.48-.99-3.03-3.69-5.19-6.86-5.48-1.75-.16-3.43-.3-5.05-.44-3.18-.27-6.19-.52-9.06-.89-4.18-.55-8.38-.82-12.49-.82-19.45,0-38.24,6.17-55.86,18.34-10.92,7.54-18.09,16.4-21.79,26.9-8.31-11.14-22.21-20.63-42.2-28.82-.98-.4-2.01-.6-3.03-.6-.02,0-.04,0-.06,0-5.71-7.78-18.35-13.5-24.39-13.76-.12,0-.23,0-.35,0-3.2,0-6.1,1.92-7.35,4.88-.05-.12-.11-.23-.17-.35-1.31-2.87-4.17-4.68-7.28-4.68-.25,0-.49.01-.74.03-3.39.31-6.21,2.74-7.03,6.04l-.25,1c-.54,2.19-1.08,4.34-1.6,6.48-.16-.25-.31-.5-.47-.75l-1.04-1.65c-1.46-2.34-4.03-3.76-6.78-3.76-.08,0-.17,0-.25,0-2.85.09-5.43,1.69-6.79,4.19-1.41,2.6-4.66,11.39-6.33,20.95-.84-.22-1.73-.35-2.67-.35-8.21,0-11.44,8.81-12.65,12.13-3.94,10.74-5.92,22.64-7.22,31.8-1.03,7.28-.64,14.53.96,21.36-1.26-1.35-2.66-2.62-4.26-3.81-18.33-13.69-37.66-15.45-52.45-15.45-7.21,0-14.4.49-20.75.92-3.05.21-5.71,2.13-6.87,4.96-1.15,2.83-.59,6.07,1.44,8.35,3.28,3.67,6.58,7.41,9.89,11.17,7.75,8.79,15.77,17.89,24.04,26.61,10.05,10.6,22.85,15.97,38.07,15.97.47,0,.94,0,1.41-.02,5.26-.11,8.08-2.46,9.52-4.41,2.25-3.04,2.28-6.46,1.89-8.97,1.38-.99,2.45-2.41,2.98-4.1,1.62-5.13,2.31-9.86,2.13-14.21,2.29,3.65,5,7,8.08,9.94-4.39,1.52-7.99,4.23-10.29,7.85-3.19,5.04-3.61,11.32-1.17,17.69,6.04,15.8,13.9,33.69,30.95,46.04,10.26,7.44,21.1,11.21,32.23,11.21,6.54,0,13.22-1.31,19.86-3.91,1.98-.77,3.62-1.77,5.06-2.64.49-.3.98-.6,1.48-.88.84-.47,1.56-1.07,2.16-1.76,11.18,10.72,20.25,22.03,27.39,34.19-15.22,2.96-27.22,12.32-35.06,27.52-.19.37-.37.73-.55,1.1,1.43-4.91,1.14-10.77-3.37-17.58-20.69-31.23-48.46-47.06-82.55-47.06-3.45,0-7.02.17-10.6.49-16.23,1.48-32.22,3.74-49.15,6.14-7.67,1.09-15.61,2.21-23.73,3.28-3.46.46-6.22,3.1-6.83,6.54-.61,3.44,1.08,6.87,4.18,8.49,3.23,1.69,6.3,3.38,9.27,5.01,6.43,3.54,12.5,6.89,19.04,9.55,19.61,7.99,34.47,19.68,45.44,35.73.46.67.91,1.34,1.36,2.02,2.25,3.36,4.59,6.83,7.57,10.03l1.14,1.23c4.76,5.13,9.67,10.44,15.61,14.83,8.67,6.41,16.09,9.4,23.36,9.4h0c4.51,0,8.62-1.19,12.34-3.05-3.11,5.76-4.24,11.44-4.39,16.41-.02.84-.02,1.67,0,2.51-12.2-13.24-27.36-19.94-45.18-19.94-4.17,0-8.55.38-13.01,1.11-32.45,5.37-64.12,19.71-99.69,45.13-2.36,1.68-4.09,3.71-5.33,5.28l-.07.09c-1.76,2.05-2.38,4.86-1.61,7.47.81,2.75,3.02,4.86,5.81,5.52l14.3,3.43c10.89,2.62,21.89,5.26,32.9,7.88,3.83.91,7.66,1.86,11.49,2.81,9.5,2.36,19.33,4.8,29.24,6.61,6.99,1.28,13.72,1.93,20.01,1.93,22.5,0,41.3-8.29,55.89-24.64,1.87-2.1,3.28-4.31,4.76-6.64.65-1.02,1.34-2.11,2.13-3.27.18-.27.34-.54.49-.82,6.75,9.56,14.97,17.1,20.93,20.85h-1.42c-4.42,0-8,3.58-8,8,0,16.19-.36,36.84-.74,58.7v.14c-1.06,60.94-2.33,134.47,2.16,187.03-.79-2.81-3.06-5.02-6-5.65-.56-.12-1.13-.18-1.69-.18-2.9,0-5.64,1.59-7.05,4.23-2.93,5.48-5.85,10.83-8.67,16-6.23,11.42-12.11,22.21-17.57,33.3-1.8,3.65-3.32,7.26-4.59,10.83-9.96-3.14-19.84-4.73-29.56-4.73-18.02,0-35.8,5.43-52.83,16.15-14.14,8.9-27.69,18.4-42.03,28.47-6.51,4.57-13.24,9.29-20.16,14.05-2.87,1.97-4.14,5.58-3.12,8.92,1.01,3.34,4.07,5.63,7.56,5.67,3.75.04,7.36.17,10.85.29,4.14.14,8.06.28,11.98.28,3.65,0,6.89-.12,9.9-.37,3.43-.28,6.84-.43,10.15-.43,17.69,0,33.53,3.96,48.43,12.1.73.4,1.47.81,2.2,1.22,3.63,2.02,7.39,4.11,11.61,5.66l1.62.6c6.76,2.49,13.75,5.07,21.23,6.33,3.97.67,7.48,1,10.72,1,20.39,0,27.87-13.45,32.06-27.44.54-.25,1.07-.5,1.59-.75l.46-.22c2-.96,3.48-2.68,4.15-4.74.93-.98,1.61-2.2,1.95-3.54.08-.31.15-.62.21-.92.24.34.5.66.79.97,1.55,1.61,3.65,2.46,5.78,2.46,1.3,0,2.62-.32,3.83-.98,3.08-1.68,5.77-3.4,8.1-5.19-3.21,6.72-8.32,14.06-13.64,21.69-12.72,18.24-27.13,38.92-26.27,64.84.93,28.06,17.29,43.24,50.02,46.4,34.77,3.36,140.32,5.63,144.88,5.72,3.65.04,7.33.05,11.04.05,48.37,0,100.03-2.9,129.76-5.77,32.73-3.17,49.09-18.34,50.02-46.4.34-10.2-1.69-19.59-5.05-28.33,1.07,1.06,2.2,1.98,3.4,2.73,1.29.8,2.75,1.2,4.22,1.2s2.92-.4,4.2-1.19c2.58-1.59,4.04-4.51,3.76-7.53l-.08-.86c.55-.23,1.08-.52,1.58-.87,0,0,.09.26.11.31-.51,1.65-.5,3.46.15,5.19l2.47,6.57c-2.46,1.37-4.06,3.95-4.11,6.84-.47,27.67,10.04,40.19,36.27,43.23,2.94.34,6.04.5,9.47.5,4.98,0,9.92-.35,14.69-.69l1.88-.13c4.85-.34,9.42-1.38,13.84-2.4.9-.21,1.8-.41,2.7-.61,7.75-1.72,15.62-2.59,23.39-2.59,13.98,0,27.82,2.69,42.31,8.22,7.38,2.82,14.94,4.73,22.94,6.76,3.72.94,7.56,1.92,11.53,3.02.71.2,1.43.29,2.14.29,2.66,0,5.2-1.33,6.7-3.63,1.9-2.92,1.7-6.74-.51-9.44ZM452.23,268.61l.3-.21c1.68-1.17,2.82-2.92,3.24-4.87.15-.25.29-.51.41-.78.87.31,1.79.47,2.7.47,1.74,0,3.47-.56,4.92-1.69,3.77-2.94,7.39-6.33,9.64-10.6,3.57,3.91,8.01,6.27,13.59,6.28h0c1.99,0,3.99-.32,6.01-.96-.07.3-.15.6-.21.92-.73,4.12-1.39,8.49-2.03,13.35-.05.36-.09.73-.14,1.09-7.6-1.18-15.12-1.6-21.95-1.6-8.78,0-16.18.68-20.65,1.22,1.55-.79,2.93-1.74,4.16-2.6Zm201.8,8.26c1.42,1.22,3.24,1.95,5.2,1.95.16,0,.33,0,.49-.01l2.88-.17c.09.39.21.79.36,1.17.02.06.06.11.08.16-3.52.48-7.2,1.34-11.17,2.6,1.04-1.82,1.77-3.72,2.17-5.69Zm-80.04,25.03c1.73-1.74,3.46-3.47,5.21-5.17.48-.46.88-.94,1.25-1.43.4.32.83.61,1.28.84-.14,1.07-.08,2.19.21,3.35.03.13.07.25.11.37-.09.1-.17.19-.26.29-1.72,1.15-2.9,2.92-3.34,4.9-1.77-.39-3.58-.6-5.44-.6-.55,0-1.09.03-1.64.07.88-.87,1.75-1.75,2.61-2.61Zm1.25,22.54c.65,0,1.29.04,1.92.09.02.03.03.07.05.1.62,1.05,1.18,2.08,1.73,3.07,1.3,2.38,2.64,4.83,4.41,6.98-.08.06-.16.12-.24.18-1.46,1.16-2.41,2.75-2.8,4.47-.39-.64-.78-1.28-1.17-1.92-1.38-2.29-2.8-4.65-4.41-6.99-1.43-2.07-2.97-3.89-4.61-5.45,1.83-.35,3.52-.53,5.12-.53Zm53.5-24.06c.03.08.05.16.08.23-1.1.59-2.03,1.43-2.75,2.43-.47-.32-.96-.63-1.45-.94,1.38-.54,2.76-1.12,4.12-1.72Zm-103.28,150.88c-.08-4.68-.16-9.3-.24-13.84,9.7-.7,25.34-6.36,36.74-15.43,8.26-6.57,17.94-10.19,27.27-10.19,4.47,0,8.79.81,12.86,2.41,14.67,5.76,24.56,20.9,27.85,42.62,2.58,17.05-7.63,49.04-26.64,83.5-20.01,36.28-48.32,73.16-80.68,105.32,5.29-52.91,3.95-130.55,2.85-194.38Zm62.49-93.04c.22-.52.38-1.05.48-1.6.58.62,1.19,1.2,1.81,1.75-.76-.06-1.53-.12-2.29-.16Zm-29.46-78.15c.64,1.71,1.47,3.14,2.15,4.29.22.38.44.75.64,1.13.16.31.35.6.55.87-6.74,6.65-13.74,12.29-21.12,16.95-1.26-2.69-2.75-5.24-4.48-7.64-5.31-7.36-12.36-12.7-20.24-16.54.89-2.29,1.79-4.52,2.76-6.72.46-1.05,1.48-2.36,2.55-3.74.68-.88,1.38-1.78,2.08-2.79.17-.25.33-.5.5-.75.96,2.94,3.53,5.1,6.64,5.46.72.08,1.45.13,2.19.13h0c6.66,0,13.67-3.57,19.76-10.04,1.46-1.55,2.81-3.24,4.08-5.01-1.74,7.94-1.11,16.16,1.95,24.39Zm-322.52-86.47c-2.21-2.13-4.5-4.33-6.67-6.5-1.18-1.17-2.49-2-3.75-2.63,1.54-1.09,2.64-2.69,3.11-4.5.85.25,1.73.39,2.66.39h0c.8,0,1.6-.11,2.35-.31.52-.14,1.02-.33,1.5-.55.42.42.85.81,1.29,1.17.06.05.13.11.19.16,1.47,2.29,4.01,3.66,6.72,3.66.19,0,.38,0,.57-.02-1.68,5.93-1.26,11.64-.04,16.9-2.62-2.65-5.29-5.22-7.93-7.76Zm-26.43-117.33c.83,8.23,3.25,16.1,6.05,23.19-3.96-3.33-8.27-5.56-12.91-6.15-.62-.24-1.69-.71-2.74-1.17,2.88-1.43,4.67-4.49,4.41-7.78l-.44-5.63c.98-.01,1.98-.21,2.93-.6,1.05-.43,1.95-1.08,2.7-1.86Zm26.17,43.41c.62,2.72,2.6,4.87,5.15,5.76-1.62,2.28-3.14,4.79-4.51,7.55-1.44-3.88-3.07-7.76-4.9-11.5,1.56-.17,3.05-.8,4.26-1.81Zm83.63,9.01c1.46,1.17,3.23,1.76,5.01,1.76,1.16,0,2.33-.25,3.4-.76.12.34.26.67.42,1,.13.99.45,1.94.92,2.81-.71.27-1.45.6-2.24,1-4.27,2.16-8.26,4.98-11.62,7.57-.04-6.03-.42-12.03-.99-18.05,1.6,1.71,3.35,3.26,5.1,4.66Zm-50.75,88.99c.15-3.24.35-7.26-1.12-11.23-3.06-8.26-4.17-14.5-3.5-20.18.35-.15.69-.33,1.03-.53,1.3-.8,2.62-1.55,3.91-2.28,3.19-1.82,6.21-3.53,8.81-5.85.27-.24.54-.49.8-.73.33.14.68.27,1.03.37l.16.04c.24.43.52.85.84,1.24,1.17,1.43,2.76,2.36,4.48,2.74-2.39,7.03-4.01,14.95-2.28,23.75,2.23,11.37,8.88,19.55,19.25,23.67.99.39,1.93.63,2.71.81.16,7.57-.69,14.62-2.56,21.34-11.08-5.51-21.41-9.26-30.94-11.2-2.11-3.88-4.29-7.78-6.6-11.64.61-.36,1.18-.8,1.67-1.32,1.49-1.55,2.29-3.63,2.23-5.78-.03-.94.02-2.04.08-3.21Zm72.29-164.35c-2.73,10.79-7.61,19.12-14.93,25.46-.32.28-.64.55-.97.83-1.7,1.45-3.64,3.1-5.38,5.18l-.58.69c-2.45,2.92-5.22,6.23-7.36,10.12-1.11,2.02-1.95,3.94-2.57,5.76-4.34-6.52-11.98-13.51-18.7-13.51-.04,0-.12,0-.16,0-3.81.05-8.89,2.56-13.72,5.79-.08-2.93-.45-5.86-1.04-8.77,3.25.29,5.66.42,7.78.42,11.4,0,17.24-4.01,26.97-12.54l11.58-10.13c7.51-6.57,15.02-13.15,22.53-19.73-1.31,3.46-2.54,6.8-3.45,10.4Zm-130.43-4.91c.55,2.93,1.18,6.24.72,7.82-.41,1.44-.75,2.88-1.02,4.32-.5-1.9-1.08-3.74-1.75-5.53.13-.15.27-.29.39-.45,1.54-2.03,2.03-4.68,1.3-7.12l-.04-.14c.06-.04.12-.09.18-.13.08.41.15.83.23,1.23Zm328.74,313.86c.14-.3.26-.6.37-.91,1.61-4.85,2.91-9.52,3.89-14.03,1.36,1.64,2.99,3.14,4.89,4.51,5.82,4.17,12.03,6.79,17.73,8.52-7.58,1.96-14.5,5.19-20.49,9.61-3.44,2.54-6.31,4.79-8.85,6.77-8.62,6.74-10.38,7.75-13.45,7.75-1.14,0-2.23.24-3.21.68-1.02-.47-2.15-.74-3.34-.74h-8.53c13.36-5.9,26.96-13.69,30.99-22.16Zm121.72,35.22c0,.14.04.28.05.42-.12-.16-.23-.31-.35-.47.1.01.2.04.3.05Zm-95.36-189.9c.47.29.93.57,1.37.85,1.04.65,2.12,1.32,3.29,1.96,7.36,4.02,13.58,7.09,20.99,7.09.06,0,.11,0,.17,0-9.43,4.26-18.86,10.14-26.15,19.84,1.56-5.7,2.26-11.57,1.91-17.18-.19-3.02-2.04-5.54-4.61-6.74.69-2.18,1.18-4.53,1.47-7.06.46.47.98.89,1.56,1.24Zm-244.08,54.14c-.67-.42-1.34-.82-2-1.23.01-.04.02-.08.03-.13.08-.31.16-.63.24-.95.81-.44,1.54-1.02,2.16-1.72.21-.25.56-.58.93-.94,1.36-1.33,3.22-3.14,4.36-5.86,1.92-4.59,3.66-6.93,6.31-8.38,1.11-.63,2.12-1.58,2.86-2.78l.81.43c.64,2.5,2.47,4.59,4.99,5.51,1.82.67,3.62,1.15,5.4,1.45-11.87,4.52-20.9,10.6-26.08,14.6Zm-114.02,11.4c-2.39,6.08-3.7,11.68-4.39,15.52-4.9,2.01-9.12,4.19-12.78,6.49.04-1.42-.26-2.86-.99-4.16-.6-1.08-1.42-1.97-2.39-2.65-.02-.15-.04-.3-.07-.45l-.42-2.27c-.21-1.14-.65-2.18-1.27-3.08,1.57.6,3.31,1.04,5.21,1.33.4.06.81.09,1.21.09,1.28,0,2.54-.31,3.67-.89.29.03.57.05.86.05,2.39,0,4.68-1.07,6.21-2.96l.43-.53c1.46-1.8,3.22-3.96,4.7-6.49Zm-10.76,391.7c1.02,6.6,2.88,14.03,4.86,21.9.78,3.12,1.58,6.33,2.36,9.57-6.18-9.28-9.02-20.49-8.65-34.21.11-4.07-.15-7.96-.49-11.96.57,5.17,1.21,10.09,1.92,14.69Zm-3.73,165.27v-.02s0,0,.01,0c0,0,0,0-.01.01Z"/><path class="cls-2" d="m595.18,182.53c2.58-3.19,5.17-6.39,8.33-10.29-7.55,3.52-10.96,11.7-18.44,13.57-.34-.39-.67-.78-1.01-1.16,4.29-4.19,8.58-8.39,12.77-12.48-5.64,2.44-11.01,5.63-15.24,10.8-1.39,1.7-3.19,3.19-5.06,4.29-.77.45-2.56-.03-3.22-.74-.45-.49-.08-2.36.49-3.2,7.39-10.77,18.06-15.97,29.95-18.42,22.63-4.66,44.15-2.08,64.09,9.64,3.94,2.32,8.04,4.36,12.73,6.89-7.7,2.57-14.84,4.99-22,7.35-17.48,5.76-34.97,11.5-52.45,17.24-15.12,4.97-18.43,4.69-32.09-2.77-1.42-.78-2.78-1.68-4.33-2.62,1.02-.9,2.01-1.77,2.87-2.52,4.98,2.36,9.73,4.62,14.49,6.88.11-.21.23-.43.34-.64-4.01-2.95-8.03-5.9-12.17-8.94,2.01-2.42,3.67-3.06,6.58-1.15,4.92,3.22,10.34,5.67,15.78,7.88-4.43-3.61-8.86-7.23-13.28-10.84.23-.56.46-1.11.69-1.67,1.52.37,3.21.42,4.52,1.16,6.28,3.56,12.47,7.3,19.18,10.13-5.53-3.81-11.06-7.62-16.59-11.43.19-.52.38-1.05.57-1.57,1.51.31,3.14.35,4.5.99,5.89,2.79,11.69,5.75,17.85,8.08-5.29-3.52-10.59-7.04-16.02-10.65,3.13-2.73,5.44-.72,7.8.36,4.2,1.93,8.34,4,12.58,5.84,1.32.57,2.88.57,5.2.99-5.56-3.15-10.33-5.85-15.1-8.54.15-.44.31-.88.46-1.32,8.13-1.87,14.02,5.48,22.85,5.97-5.3-3.05-9.65-5.55-14-8.05,8.41-1.95,14.71,4.18,22.61,4.63-3.27-1.7-6.53-3.4-9.8-5.09.11-.45.22-.91.34-1.36,6.85,1.06,13.69,2.13,20.54,3.19.03-.16.07-.32.1-.48-1.72-.63-3.44-1.27-5.16-1.9,0-.3.01-.6.02-.89,2.52-.14,5.04-.28,7.56-.42.03-.26.05-.53.08-.79-2.35-.19-4.69-.53-7.04-.52-2.55.01-5.11.36-7.67.56-.1-.34-.19-.68-.29-1.02,2.02-.84,4.03-1.67,6.05-2.51-.04-.26-.08-.52-.12-.79-6.9,1.56-13.8,3.13-20.7,4.69l-.36-1.09c3.49-1.96,6.98-3.92,10.47-5.87-.13-.39-.27-.77-.4-1.16-6.66,2.63-13.32,5.26-20.74,8.18,1.39-1.46,2.27-2.37,3.14-3.29-.12-.15-.25-.3-.37-.46-3.11,2.08-6.22,4.16-9.33,6.24-.33-.46-.66-.93-.99-1.39,3.84-3.2,7.68-6.41,11.52-9.61-.13-.24-.26-.47-.4-.71-7.41,4.41-14.82,8.82-22.23,13.23-.15-.13-.3-.27-.45-.4Z"/><path class="cls-9" d="m371.54,882.22c-3.68,0-7.34-.02-10.97-.05-4.52-.1-109.68-2.35-144.19-5.69-36.91-3.57-42.26-22.56-42.8-38.71-.77-23.26,12.83-42.78,24.84-60,8.71-12.5,16.94-24.3,18.28-35.39,2.29-19.05-2.86-39.61-7.4-57.74-1.93-7.69-3.74-14.95-4.71-21.19-7.93-51.11-6.39-140.44-5.14-212.22.38-21.94.74-42.67.74-58.96h10.93c0,16.39-.36,37.16-.74,59.15-1.24,71.36-2.77,160.17,5.01,210.35.89,5.75,2.65,12.77,4.51,20.21,4.54,18.11,10.18,40.65,7.65,61.71-1.66,13.8-10.65,26.69-20.16,40.34-11.57,16.6-23.53,33.76-22.88,53.38.2,5.88.92,12.01,4.88,16.97,4.87,6.11,14.31,9.89,28.04,11.21,34.11,3.3,142.22,5.61,143.31,5.64,50.17.5,107.1-2.58,138.73-5.64,13.73-1.33,23.17-5.1,28.04-11.21,3.96-4.97,4.68-11.09,4.88-16.97.65-19.63-11.31-36.79-22.88-53.39-9.52-13.65-18.5-26.54-20.16-40.34-2.53-21.06,3.11-43.6,7.65-61.7,1.86-7.44,3.62-14.46,4.51-20.21,7.79-50.18,6.25-138.99,5.01-210.35-.38-21.99-.74-42.76-.74-59.15h10.93c0,16.29.36,37.02.74,58.96,1.24,71.78,2.79,161.11-5.14,212.22-.97,6.24-2.79,13.5-4.71,21.19-4.54,18.13-9.69,38.69-7.4,57.74,1.33,11.09,9.56,22.89,18.28,35.39,12.01,17.22,25.61,36.74,24.84,60-.54,16.15-5.88,35.14-42.8,38.71-29.63,2.86-81.23,5.74-128.99,5.74Z"/><path class="cls-11" d="m158.87,754.55c-7.54,5.92-15.08,11.84-22.62,17.77.22.3.43.59.65.89,9.23-6.34,18.45-12.67,27.68-19.01.48.63.97,1.26,1.45,1.89-5.02,5.89-10.04,11.78-15.06,17.66.32.43.63.86.95,1.29,6.91-5.38,13.82-10.77,19.8-15.42-5.56,20.45-14.09,26.8-34.49,23.37-7.31-1.23-14.42-3.97-21.42-6.55-4.43-1.63-8.56-4.11-12.73-6.39-19.72-10.78-40.72-14.47-63.07-12.63-9.98.82-20.1-.08-31.99-.22,22-15.12,41.49-29.48,61.92-42.34,32.53-20.47,65.53-19.18,98.74-.42,9.81,5.54,7.96,12.79,6.32,20.64-4.01-3.87-8.1-7.82-12.2-11.77-.28.23-.56.46-.85.7,2.98,4.47,5.95,8.94,9.3,13.96-5.76,1.89-9.24.78-13.03-3.32-7.85-8.5-16.49-16.27-24.81-24.34-.48.5-.96.99-1.44,1.49,6.65,6.9,13.31,13.81,19.96,20.71-.41.45-.82.9-1.24,1.34-9.83-6.85-19.66-13.7-29.48-20.55-.39.52-.79,1.05-1.18,1.57,7.67,6.54,15.45,12.97,22.93,19.72,1.65,1.49,2.25,4.16,2.46,6.84-20.02-5.76-31.65-25.08-51.64-29.15,9.73,8.29,19.51,16.64,30.14,25.7-16.46-2.04-28.94-15.26-45.9-12.36,7.5,2.65,14.83,5.24,22.17,7.83-.11.38-.22.76-.33,1.14-9.78-.55-19.56-1.09-29.33-1.64-.08.35-.16.7-.23,1.05,2.22.8,4.44,1.6,7.35,2.65-5.41,3.52-10.52,6.85-15.64,10.18,14.24-4.54,28.2-8.98,43.83-6.23-7.53,3.39-14.61,6.57-21.69,9.76,13.04.21,24.22-10.51,39.59-5.27-7.16,3.82-13.24,7.06-20.73,11.06,15.57.51,26.57-14.48,43.12-6.42-9.02,5.19-17.2,9.89-25.38,14.59.3.68.61,1.36.91,2.04,11.76-4.82,23.53-9.65,35.29-14.47.65.89,1.3,1.78,1.95,2.67Z"/><path class="cls-13" d="m189.7,741.96c3.69-6.11,7.39-12.22,11.08-18.33.21.09.41.18.62.28-3.91,7.31-7.82,14.63-11.73,21.94.44.21.88.43,1.32.64,3.76-4.41,7.53-8.83,11.29-13.24.3.13.6.27.9.4-3.36,5.59-6.71,11.18-9.61,16.02,13.51-7.36,17.46-14.22,14.4-27.29-1.09-4.68-3.2-8.96-5.18-13.2-1.25-2.68-3.07-5.01-4.75-7.4-7.95-11.31-11.2-24.74-10.79-40.05.19-6.84-.79-13.47-1.33-21.41-9.33,17.44-18.24,33.06-26.12,49.06-12.53,25.46-10.45,47.36,3.35,66.29,4.08,5.59,8.87,3.06,14.08.57-2.74-2-5.54-4.04-8.34-6.09.15-.23.29-.46.44-.69,3.11,1.2,6.21,2.4,9.7,3.75,1.06-4.2.18-6.34-2.71-8.15-5.99-3.76-11.52-8.17-17.23-12.31.31-.41.63-.82.94-1.23,4.87,3.24,9.75,6.47,14.62,9.71.28-.36.57-.71.85-1.07-4.95-5.37-9.91-10.75-14.86-16.12.34-.36.67-.71,1.01-1.07,4.67,3.98,9.26,8.06,14.07,11.88,1.06.84,2.87.77,4.68.44-4.6-12.4-17.98-16.77-21.45-29.45,5.92,5.05,11.88,10.13,18.35,15.65-1.97-10.68-11.3-16.69-9.98-28.59,2.05,4.56,4.06,9.02,6.06,13.47.25-.14.5-.28.75-.43-.73-6.46-1.45-12.92-2.18-19.38.23-.11.46-.23.69-.34.62,1.35,1.24,2.69,2.05,4.46,2.16-4.25,4.21-8.27,6.25-12.3-2.52,10.36-4.98,20.51-2.56,30.5,2-5.66,3.87-10.97,5.75-16.28.62,8.71-6.16,18.11-2.08,27.49,2.3-5.48,4.25-10.13,6.65-15.87.91,10.35-8.73,20.39-2.72,30.06,3.15-6.97,6-13.29,8.85-19.61.47.08.93.17,1.4.25-2.8,8.75-5.6,17.49-8.41,26.24.62.28,1.24.55,1.87.83Z"/><path class="cls-18" d="m585.04,820.81c6.13,8.54,12.26,17.08,18.39,25.62-.32.25-.63.49-.95.74-7.78-9.49-15.56-18.99-23.34-28.48-.7.51-1.4,1.03-2.11,1.54,3.49,7.73,6.98,15.47,10.47,23.2-.46.36-.93.72-1.39,1.07-5.63-7.78-11.27-15.56-16.14-22.29-.39,23.24,6.65,32.54,29.19,35.15,8.07.94,16.4.22,24.56-.35,5.16-.36,10.27-1.71,15.36-2.84,24.06-5.33,47.31-2.8,70.28,5.97,10.26,3.92,21.2,6.06,33.75,9.54-18.55-22.64-34.69-43.72-52.28-63.51-28.01-31.5-63.15-40.22-103.86-30.61-12.03,2.84-12.29,11.04-12.97,19.81,5.4-2.85,10.92-5.76,16.44-8.67.23.33.45.66.68.99-4.5,3.8-9,7.59-14.06,11.86,5.48,3.75,9.49,3.65,14.74.48,10.87-6.55,22.34-12.09,33.56-18.05.35.67.71,1.34,1.06,2.01-9.12,5.24-18.23,10.47-27.35,15.71.3.6.59,1.19.89,1.79,12.44-4.21,24.89-8.42,37.33-12.63.25.67.51,1.34.76,2.01-10.08,4.55-20.24,8.93-30.18,13.76-2.2,1.07-3.64,3.69-4.68,6.45,22.84.05,40.99-16.74,63.29-14.93-12.78,5.76-25.63,11.56-39.6,17.86,17.96,2.88,35.14-7.23,52.12,1.01-8.7.5-17.22.98-25.73,1.47,0,.43,0,.87,0,1.3,10.47,2.41,20.93,4.82,31.4,7.23-.02.39-.05.78-.07,1.18-2.58.16-5.16.33-8.55.55,4.62,5.36,8.99,10.43,13.36,15.5-13.61-9.13-26.96-18.07-44.25-19.95,6.9,5.87,13.38,11.39,19.87,16.91-13.8-3.76-22.3-18.47-40.08-17.64,6.37,6.21,11.78,11.48,18.45,17.98-16.55-4.22-23.56-23.37-43.45-19.93,7.91,8.22,15.09,15.67,22.27,23.12-.53.62-1.05,1.24-1.58,1.87-10.92-8.67-21.83-17.35-32.75-26.02-.96.74-1.91,1.48-2.87,2.22Z"/><path class="cls-6" d="m553.88,805.63c-7.66-4.75-11.94-21.66-7.9-31.89,6.33-16.02,17.45-28.57,30.32-39.54,21.98-18.74,44.21-37.17,66.41-55.65,3.85-3.2,8.05-5.98,12.94-8.29-2.1,3.99-4.85,7.78-6.17,12.02-3.9,12.46-7.97,24.95-10.66,37.7-5.85,27.83-15.07,53.99-34.03,75.82-8.12,9.35-18.23,15.24-31.17,16.74-.75-1.99-1.5-3.99-2.52-6.69,5.35-2.41,10.74-4.85,16.14-7.28-.13-.37-.25-.74-.38-1.11-5.31,1.05-10.62,2.11-15.93,3.16-.3-.83-.59-1.66-.89-2.49,9.26-4.18,18.52-8.35,27.78-12.53l-.64-1.63c-7.29,2.4-14.58,4.8-21.87,7.19-.4-.51-.79-1.01-1.19-1.52,1.79-1.42,3.41-3.18,5.4-4.21,9.71-4.99,19.51-9.77,28.78-15.66-8.66,2.88-17.32,5.76-25.98,8.64-.49-1.12-.98-2.24-1.47-3.37,12.71-7.65,25.41-15.31,38.12-22.96-.18-.36-.36-.72-.54-1.09-6.82,2.64-13.63,5.28-20.45,7.93-.39-.59-.78-1.18-1.17-1.78,7.75-6.24,15.49-12.48,23.3-18.77-1.96.69-4.01,1.41-6.07,2.13,3.96-8.22,7.93-16.43,11.89-24.65-.64-.33-1.28-.66-1.92-.99-2.54,4.64-5.09,9.28-8.65,15.78-.05-5.69-.09-9.5-.12-12.74-2.63,7.56-5.38,15.48-8.13,23.39-.67-.19-1.34-.38-2.01-.57-.04-3.27-.08-6.54-.13-9.82-3.02,7.99-3,17.22-11.86,22.31.22-5.7.45-11.4.67-17.1-.53-.08-1.06-.16-1.59-.25-.62,3.55-1.2,7.11-1.87,10.65-.72,3.82-1.01,7.83-2.45,11.37-1.42,3.48-4.04,6.47-7.6,9.36-.48-6.68-.95-13.36-1.5-21.11-6.02,11.36,1.15,25.06-9.62,34.69-1.56-6.27-3.01-12.08-4.45-17.89-.59.03-1.18.07-1.77.1.36,5.6.52,11.22,1.12,16.8.63,5.89.07,11.28-5.33,16.81-2.13-7.84-4-14.73-5.87-21.62-.58.05-1.16.11-1.73.16.91,9.99,1.81,19.97,2.76,30.44Z"/><path class="cls-9" d="m527.38,736.6c-6.49,0-11.42-3.14-14.4-7.14-6.46-8.66-6.1-24.93,7.32-38.04,59.31-57.94,100.56-110.16,122.62-155.2,18.12-37.01,23.69-70.14,16.55-98.49-6.6-26.17-25.89-47.3-51.61-56.52-19.33-6.92-38.41-5.49-51.04,3.83-3.23,2.38-6,4.55-8.44,6.46-9.07,7.09-15.06,11.77-25.11,11.77v-10.93c5.98,0,9.39-2.43,18.38-9.45,2.5-1.95,5.33-4.17,8.68-6.64,15.56-11.49,38.45-13.48,61.22-5.33,29.16,10.45,51.04,34.42,58.53,64.14,7.79,30.92,1.96,66.57-17.33,105.97-22.61,46.17-64.6,99.4-124.8,158.21-8.64,8.44-9.94,18.67-6.2,23.68,2.61,3.5,7.53,3.61,13.48.29l5.33,9.55c-4.88,2.72-9.3,3.84-13.16,3.84Z"/><path class="cls-9" d="m522.59,671.73l-7.42-8.03c38.31-35.43,72.1-77.93,95.13-119.68,20.12-36.47,30.42-69.57,27.55-88.56-3.73-24.66-15.39-42.02-32.83-48.87-15.41-6.06-33.37-2.7-48.04,8.97-10.69,8.5-25.82,13.77-33.71,13.77v-10.93c5.26,0,18.03-4.33,26.9-11.39,17.76-14.13,39.76-18.09,58.85-10.59,20.92,8.22,35.37,29.15,39.65,57.41,3.26,21.6-7.23,56.4-28.78,95.48-23.58,42.74-58.13,86.22-97.28,122.42Z"/><path class="cls-3" d="m173.43,284.71c-9.18,1.81-18.35,3.61-27.53,5.42.05.35.11.7.16,1.05,10.82-1.42,21.65-2.85,32.47-4.27.14.76.28,1.51.42,2.27-6.98,2.88-13.96,5.77-20.93,8.65.08.51.16,1.02.24,1.53,8.39-1.62,16.78-3.23,24.04-4.63-13.94,15.24-24.17,16.98-40.32,5.04-5.78-4.28-10.72-9.77-15.65-15.07-3.11-3.35-5.59-7.32-8.18-11.12-12.28-17.98-28.83-30.4-49.02-38.63-9.02-3.67-17.39-8.9-27.62-14.25,25.81-3.4,49.11-7.25,72.56-9.39,37.33-3.4,65.35,12.22,85.76,43.02,6.03,9.1,1.19,14.55-3.73,20.62-1.75-5.1-3.53-10.32-5.32-15.54-.35.08-.7.15-1.05.23.58,5.17,1.17,10.34,1.83,16.15-5.83-.89-8.36-3.39-9.81-8.6-3.01-10.8-7.04-21.31-10.64-31.94-.64.22-1.27.44-1.91.65,2.69,8.89,5.37,17.78,8.06,26.67-.56.21-1.11.41-1.67.62-5.46-10.24-10.92-20.48-16.38-30.72-.57.28-1.15.56-1.72.84,3.73,9.03,7.61,18,11.08,27.13.77,2.02.1,4.58-.92,6.99-14.78-13.78-16.24-35.59-31.74-47.89,4.73,11.44,9.49,22.96,14.65,35.47-13.35-9-18.27-25.9-34.27-30.86,5.32,5.58,10.52,11.04,15.72,16.51-.27.28-.53.56-.8.84-8.23-4.77-16.46-9.54-24.69-14.31-.22.27-.45.54-.67.8,1.57,1.67,3.13,3.33,5.19,5.52-6.26.67-12.17,1.3-18.09,1.93,14.37,2.34,28.44,4.63,40.76,13.88-8.04-.38-15.6-.74-23.16-1.1,11.21,5.91,25.68,1.56,36.66,12.84-7.9.16-14.62.29-22.9.45,13.27,7.28,29.49-.84,40.23,13.4-10.13.52-19.32.99-28.51,1.46-.04.72-.08,1.44-.12,2.16,12.35,1,24.69,2,37.04,3,.17,1.06.33,2.11.5,3.17Z"/><path class="cls-12" d="m285.69,49.28c1.13-3.95,2.26-7.9,3.64-12.73-5.57,6.19-5.52,15.05-11.67,19.69-.46-.23-.92-.45-1.38-.68,2.31-5.54,4.62-11.08,6.88-16.48-4.24,4.45-7.93,9.49-9.81,15.89-.62,2.11-1.69,4.18-2.98,5.92-.53.71-2.37.97-3.26.57-.6-.27-1-2.14-.8-3.14,2.6-12.8,10.38-21.76,20.37-28.66,19-13.13,39.82-19.17,62.76-16.17,4.53.59,9.11.87,14.41,1.36-6.08,5.38-11.71,10.4-17.38,15.37-13.84,12.13-27.69,24.25-41.54,36.37-11.97,10.48-15.13,11.52-30.62,9.99-1.61-.16-3.22-.46-5.01-.72.59-1.23,1.16-2.41,1.65-3.44,5.5.23,10.77.45,16.03.67.02-.24.04-.48.06-.72-4.85-1.15-9.69-2.29-14.69-3.47.9-3.02,2.18-4.25,5.6-3.63,5.79,1.04,11.73,1.18,17.6,1.09-5.49-1.6-10.98-3.19-16.46-4.79,0-.6-.01-1.2-.02-1.8,1.54-.25,3.11-.87,4.61-.7,7.18.82,14.33,1.85,21.61,1.83-6.58-1.35-13.16-2.69-19.74-4.04-.03-.56-.06-1.11-.09-1.67,1.51-.3,3.03-.91,4.53-.85,6.51.26,13.01.72,19.59.46-6.25-1.17-12.5-2.34-18.91-3.54,1.82-3.74,4.72-2.79,7.32-2.72,4.62.13,9.24.43,13.87.46,1.43.01,2.87-.6,5.17-1.12-6.35-.72-11.79-1.34-17.23-1.97-.03-.47-.06-.93-.09-1.4,6.75-4.9,15.05-.44,23.37-3.43-6.07-.74-11.05-1.34-16.04-1.94,6.98-5.08,15.17-1.9,22.62-4.58-3.67-.29-7.34-.57-11.01-.86-.07-.46-.15-.92-.22-1.39,6.72-1.7,13.43-3.39,20.15-5.09-.03-.16-.06-.32-.09-.48-1.83.09-3.66.18-5.5.27-.11-.28-.22-.55-.33-.83,2.26-1.11,4.53-2.23,6.79-3.34-.08-.25-.16-.51-.24-.76-2.23.74-4.52,1.34-6.68,2.27-2.34,1.01-4.57,2.33-6.84,3.51-.22-.28-.44-.55-.66-.83,1.53-1.56,3.06-3.11,4.59-4.67-.14-.23-.28-.45-.41-.68-5.74,4.14-11.48,8.27-17.22,12.41l-.76-.86c2.45-3.17,4.9-6.33,7.35-9.5-.28-.3-.55-.61-.83-.91-5.1,5.02-10.21,10.04-15.89,15.64.71-1.89,1.16-3.07,1.61-4.25-.17-.09-.35-.18-.52-.28-2.05,3.13-4.1,6.26-6.15,9.39-.48-.3-.97-.6-1.45-.89,2.28-4.45,4.57-8.9,6.85-13.35-.21-.17-.43-.33-.64-.5-5.1,6.96-10.2,13.91-15.29,20.87-.19-.07-.38-.13-.57-.2Z"/><path class="cls-16" d="m102.5,335.38c8.04,4.32,16.07,8.63,24.11,12.95-.36,1.18-.72,2.37-1.08,3.55-15.81-3.79-31.62-7.59-47.43-11.38-.23.97-.46,1.93-.69,2.9,8.56,3.01,17.12,6.01,27.96,9.82-16.27,7.07-30.09-5.45-46.3.23,7.1,1.08,11.95,1.82,16.8,2.56.12.64.24,1.29.37,1.93-7.02,1.42-14.03,2.83-21.05,4.25.09.69.18,1.39.28,2.08,10.8-1.51,21.61-3.01,33.37-4.65-3.95,2.79-7.5,5.29-11.05,7.8.2.57.39,1.15.59,1.72,12.75-3.82,25.51-7.64,38.26-11.46.49,1.14.98,2.28,1.47,3.42-7,3.65-14.01,7.3-21.01,10.95.24.75.47,1.5.71,2.24,16.39-5.66,32.78-11.31,49.18-16.97.46.74.92,1.48,1.38,2.23-5.34,4.62-10.68,9.24-16.02,13.86.58,1.08,1.16,2.15,1.74,3.23,6.34-2.83,12.72-5.59,19.02-8.51,6.19-2.87,10.2-10.73,20.47-8.39-2.49,3.66-4.07,6.64-6.24,9.08-18.62,20.88-42.43,24.93-68.49,20.17-13.56-2.48-26.89-6.15-40.32-9.34-15.84-3.77-31.67-7.59-47.18-11.31.27-.28,1.86-2.55,3.99-4.07,29.23-20.9,60.25-37.78,96.34-43.75,23.15-3.83,41.67,3.24,55.68,22,1.36,1.81,2.07,4.1,2.14,7.31-16.7-5.96-28.05-22.97-46.28-21.3,8.85,5.68,18.81,12.07,30.17,19.36-11.89,4.92-18.45-2.05-26.05-5.1-7.95-3.19-16.04-6.02-24.07-9-.25.53-.5,1.06-.75,1.59Z"/><path class="cls-15" d="m329.15,116.83c-1.65-5.21-3.3-10.41-4.95-15.62-.19.04-.37.09-.56.13,1.56,6.17,3.13,12.33,4.69,18.5-.4.11-.8.21-1.2.32-2.08-3.9-4.15-7.81-6.23-11.71-.27.06-.54.13-.82.19,1.49,4.76,2.98,9.52,4.27,13.64-9.3-7.46-11-13.27-5.68-22.98,1.91-3.48,4.53-6.51,7.06-9.53,1.6-1.91,3.57-3.47,5.45-5.1,8.89-7.7,14.44-17.66,17.45-29.55,1.34-5.31,3.58-10.31,5.74-16.38,3.73,14.7,7.52,27.95,10.39,41.34,4.57,21.32-1.89,37.98-17.16,50.81-4.51,3.79-7.83,1.21-11.49-1.4,2.65-1.19,5.36-2.4,8.07-3.61-.07-.2-.13-.39-.2-.59-2.77.52-5.54,1.04-8.65,1.63.06-3.38,1.23-4.92,3.96-5.95,5.65-2.12,11.08-4.81,16.6-7.26-.16-.36-.33-.72-.49-1.07-4.64,1.86-9.28,3.73-13.93,5.59-.15-.31-.31-.62-.46-.94,5.17-3.51,10.35-7.01,15.52-10.52-.19-.32-.39-.64-.58-.96-4.64,2.47-9.24,5.02-13.95,7.34-1.04.51-2.49.22-3.87-.28,6.42-8.98,18.18-10.61,23.74-19.96-5.88,3.13-11.8,6.28-18.23,9.7,3.92-8,12.76-11.43,14.29-20.79-2.65,3.25-5.24,6.44-7.84,9.62-.17-.14-.34-.28-.51-.43,2-4.9,3.99-9.8,5.99-14.7-.16-.12-.32-.24-.49-.36-.79.96-1.59,1.92-2.63,3.18-.82-3.57-1.59-6.95-2.37-10.32-.22,8.34-.45,16.5-4.58,23.91-.38-4.63-.73-8.99-1.09-13.34-2.4,6.65,1.02,14.81-4.32,21.52-.66-4.53-1.22-8.39-1.91-13.14-3,7.88,2.6,16.91-4.36,23.59-1.02-5.8-1.94-11.06-2.87-16.32-.39,0-.79,0-1.18,0,.36,7.13.71,14.26,1.07,21.38-.56.13-1.13.27-1.69.4Z"/><path class="cls-4" d="m550.52,200.7c-.24-4.45-.48-8.89-.77-14.18,3.29,5.06,3.55,9.28.77,14.18Z"/><path class="cls-17" d="m113.62,106.73c-21.4-15.98-45.21-14.49-67.86-12.96,10.99,12.3,22.11,25.3,33.78,37.61,9.34,9.85,20.84,13.73,33.5,13.46,3.77-.08,4.41-1.92,3.24-6.05-5.39-.04-10.87-.08-16.36-.12-.01-.23-.03-.45-.04-.68,4.36-.82,8.73-1.63,13.09-2.45,0-.81,0-1.63,0-2.44-7.74-.76-15.48-1.52-23.22-2.29.03-.24.06-.48.09-.72,4.51-.77,9.03-1.53,13.54-2.3-.02-.73-.05-1.46-.07-2.19-7.26-.77-14.51-1.54-21.77-2.31l.14-1.02c2.27-.16,4.54-.33,8.31-.6-6.89-3.66-12.31-6.54-17.73-9.42,7.82.2,15.05,1.83,21.61,6.08-2.48-4.03-4.96-8.06-7.45-12.09,3.36,2.66,5.72,6.21,8.55,9.15,2.66,2.76,5.82,4.86,8.76,7.26.16-.3.31-.6.47-.9-2.58-3.88-5.16-7.76-7.74-11.64.55-.56,1.09-1.12,1.64-1.69,5.01,5.81,10.02,11.61,15.26,17.68-1.35-4.67-2.7-9.34-4.04-14.01.37-.22.75-.44,1.12-.66,3.1,6.98,6.2,13.97,9.54,21.5,3.78-11.96,1.67-20.23-6.35-26.22Z"/><path class="cls-19" d="m304.61,109.98c-.42-3.32-9.27-14.34-14.28-14.27-5.01.07-19.24,11.19-21.76,15.15-2.52,3.95-34.39,15.48-29.91,57.31.66,6.13,3.14,5.43,4.72,8.14l2.71-.21c4.49-10.7,8.99-21.4,13.98-33.3-2.78,11.76-5.27,22.34-8.11,34.37,3.11-1.87,5.69-2.87,6.94-4.3,3.25-3.71,5.91-7.61,8.81-11.43.7.13,1.41.25,2.11.38-2.8,5.26-5.6,10.52-9.01,16.93,4.43-2.73,8.69-4.71,11.59-7.29,3.23-2.88,5.46-6.24,7.67-9.5,2.18-3.21,3.79-6.54,5.66-9.82.54.06,1.09.11,1.63.17-1.89,5.68-3.77,11.36-5.66,17.05.72.2,1.44.4,2.15.6,4.35-4.85,8.71-9.71,13.06-14.56.54.12,1.09.23,1.63.35-4.11,6.1-8.23,12.2-11.83,17.53,13.92-5.86,20.11-15.52,20.45-26.04.41-12.48-1.01-24.9-2.56-37.25Zm-57.29,34.16c-3.72-4.46,2.96-13.76,14.03-20.51-4.53,6.62-9.06,13.24-14.03,20.51Zm29.41-17.74c-.32-.13-.63-.26-.95-.4,2.37-22.89,9.93-17.18,14.89-25.77-3.84,17.51-8.82,17.68-13.94,26.17Zm19.07-19.91c.69,8.95-1.42,9.16-6.74,13.65,2.17-4.41,4.35-8.81,6.74-13.65Zm-4.04,28.01c7.14-21.18,6.99-27.05,9.46-21.77-.7,10.89-4.73,23.36-9.46,21.77Z"/><path class="cls-19" d="m152.97,132.07c1.98.98,4.28,1.02,8.27,1.9-2.65-4.06-3.97-6.07-5.59-8.56,1.55.23,2.53.37,4.13.6-1.46-2.16-2.63-3.87-3.88-5.72q5.56-.83,1.48-20.87c3.19,6.37,6.38,12.75,9.22,18.43.99-1.73,3.06-3.79,3.48-6.3,2.01-12.06-.39-22.97-7.17-32.97-5.4-7.97-10.31-16.43-15.03-24.98-4.81-8.69-7.97-9.38-11.45.12-3.45,9.43-5.36,19.89-6.81,30.17-2.86,20.25,7.04,40.12,23.34,48.18Zm9.3-39.78c-.25.13-.5.26-.75.4-3-6.73-5.56-13.69-9.11-20.11-3.63-6.59-8.22-12.65-12.38-18.94,11.54,10.51,20.73,19.53,22.24,38.66Zm-29.89-6.33c.45-.14.91-.28,1.36-.42,2.08,9.7,4.15,19.4,6.23,29.1-9.39-11.84-5.77-18.94-7.59-28.68Zm9.44-24.22c.18,7.93.36,15.87.58,25.31-5.03-8.01-3.19-20.6-.58-25.31Z"/><path class="cls-19" d="m182.66,94.41c-2.37,1.34-6.15,14.97-7.16,17.24-8.75,19.74,9.02,48.89,19.17,50.92-1.17-4.27-2.01-7.36-2.85-10.46.29-.18.58-.36.87-.54,2.59,4.48,5.19,8.96,7.78,13.44.71-.54,1.42-1.08,2.13-1.61-4.13-12.26-8.27-24.52-12.88-38.22,15.45,12.5,14.48,41.65,28.69,53.75.84-.38,1.68-.77,2.51-1.15-.76-13.05-1.53-26.09-2.29-39.14,3.6,9.05,5.71,19.04,8.35,28.72.62,2.28,3.23,5.16,4.58,4.79,1.55-.42,3.12-3.94,3.9-6.54.55-1.82-.09-4.4-.41-6.58-3.17-22.07-17.96-56.74-33.92-58-1.79-.14-16.39-7.81-18.48-6.62Zm14.44,27.79c-1.79-4.3-3.32-8.75-5.44-12.86-2.17-4.21-4.91-8.09-7.4-12.11,6.89,6.72,13.29,7.32,13.29,24.72-.15.08-.3.17-.45.25Zm15.67,5.83s-.11-7.06-13.29-20.6c0,0,18.54,0,13.29,20.6Z"/><path class="cls-19" d="m202.41,49.57l-3.87-12.99c1.08,1.08,6.19,2.69,7.27,3.78.22-.18.43-.36.65-.54-1.95-3.11-5.58-6.05-7.76-9.53,5.79,2.63,7.19,4.62,8.99,6.19.27-.14.43-.71.7-.85-.84-3.48-2.89-5.66-3.73-9.14,1.62,2.27,1.39,1.01,2.72,3.49.31.58,1.32,1.24,1.77,1.07.51-.19.88-1.21,1.03-1.95.11-.52-.23-1.18-.43-1.75-2.05-5.8-14.4-12.33-19.44-12.55-6.45,15.92,8.55,34.7,12.09,34.76Z"/><path class="cls-19" d="m155.25,61.33c1.02.36,2.57.65,3.18.16.53-.43.26-2.07-.02-2.98-1.87-6.11-4.28-6.74,5.01.32.38-.22.75-.45,1.13-.67.76-8.54-5.06-9.22-4.03-18.34,2.69,5.26,1.85,3.6,4.25,8.31.38-.14.76-.27,1.14-.41-.54-2.14-1.09-4.27-1.63-6.41.14-.07.29-.13.43-.2.67,1.11,1.34,2.22,2.26,3.75,2.53-4.42-3.96-14.18-9.35-22.81-3.46,6.4-9.88,30.62-4.22,37.45.56.67,1.14,1.58,1.85,1.83Z"/><path class="cls-19" d="m249.69,219.81c-7.41-9.87-17.12-18.32-26.05-27.22-1.46-1.45-4.07-1.98-6.15-2.94-.43.49-.86.98-1.3,1.47,1.61,1.79,3.07,3.71,4.86,5.36,18.45,17.07,32.6,36.63,41.52,59.31,1,2.56,3.28,4.65,5.19,7.27,6.21-3.32,3.54-6.73,2.2-9.15-6.41-11.55-12.3-23.48-20.28-34.1Z"/><path class="cls-19" d="m187.46,87.55c-2.94-9.97-5.8-19.67-8.65-29.37.45-.09.89-.18,1.34-.27,4.61,9.22,9.23,18.44,13.84,27.67.79-.25,1.59-.51,2.38-.76-.62-7.97-1.23-15.94-1.97-25.47,3.34,3.99,5.75,6.86,9.4,11.21-1.87-22.67-18.86-35.25-28.28-55.9-5.49,22.15-10.24,40.71-5.33,60.07,2.18,8.57,5.99,15.46,17.27,12.81Zm7.57-35.49c-.27.2-.55.41-.82.61-8.25-6.67-7.86-13.14-11.79-19.72,6.29,4.98,8.85,12.45,12.62,19.11Zm-19.35-28.26c1.58,4.65,3.16,9.31,4.89,14.42-3.36-.84-5.47-7.49-4.89-14.42Zm-1.71,6.77c1.18,11.47,8.24,22.65,8.24,22.65l-3.53-2.1c-5.3-5.04-4.71-20.56-4.71-20.56Z"/><path class="cls-19" d="m256.44,177.59c-12.48,15.29-.88,29.11,2.35,43.38.57,0,1.15-.01,1.72-.02-.12-3.99.77-8.35-.55-11.89-3.75-10.13-5.9-20.13-2.42-30.73.03-.1-.6-.41-1.1-.74Z"/><path class="cls-19" d="m218.85,58.29c-4.2,14.59.18,29.65,7.17,45.11,1.14,2.53,2.3,5.05,4.55,9.99,3.59-4.24,6.24-7.37,9.9-11.68,1.08,5.71,1.93,10.17,3.04,16.04.89-3.41,1.46-5.63,2.04-7.85.33.08.67.15,1,.23.33,1.95.67,3.89,1,5.84.71.25,1.42.5,2.13.76,1.76-9.59,3.52-19.19,5.29-28.78.34-.02.68-.04,1.02-.07,1.01,7.24,2.01,14.48,3.06,22.01.95-1.59,1.86-3.13,3.17-5.31.73,2.08,1.28,3.64,2.21,6.31,8.52-16.08,2.42-31.62-6.59-49.79-6.15-12.41-19.96-23.17-42.73-32.5,1.08,5.98,1.93,9.77,2.4,13.53.69,5.45,2.7,11.45,1.34,16.18Zm27.44-.78c-4.54-4.5-9.07-9-14.47-14.36,8.28,1.15,12.14,4.84,14.47,14.36Zm-27.19-24.66l19.95,23.48c-20.03-15.96-13.88-15.01-20.42-22.91.16-.19.31-.38.47-.57Zm14.76,26.67l-2.83-1.91c-13.13-13.02-13.01-17.97-13.01-17.97,16.29,17.01,15.84,19.87,15.84,19.87Z"/><path class="cls-19" d="m212.39,186.17c-10.21-9.11-19.21-18.36-29.51-25.83-5.18-3.76-12.69-4.34-19.18-6.26-2.89-.86-5.86-1.46-9.49-2.34,6.49-8.38,13.46-1.68,19.97-3.28-4.19-9.07-12.72-9.39-20.65-10.6-2.85-.44-5.84-.33-8.74-.11-8.73.67-14.49,6.83-10.98,16.02,6.27,16.4,13.51,31.8,28.17,42.42,13.68,9.91,28.49,12.57,44.49,6.32,1.95-.76,3.71-2.02,5.55-3.05-16.99,3.44-32.7,2.08-46.5-9.1-9.23-7.48-17.41-15.88-21.71-27.31,15.15,17.76,31.17,33.62,58.13,30.93-7.48-3.94-14.23-7.5-20.97-11.06,10.63,1.47,19.98,8.7,31.41,3.26Zm-75.45-31.56c-1.74-4.78-1.67-7.88.71-10.48,3.17,11.14,1.64,13.3,6.75,18.44-2.93-.38-5.95-3.83-7.45-7.97Zm6.1-6.55c5.36.91,4.94,5.2,6.72,8.38-3.58-1.67-4.94-5.19-6.72-8.38Zm3.36-5.8c4.93-.87,7.14-4.39,11.08,4.02-3.47-1.26-6.94-2.52-11.08-4.02Z"/><path class="cls-5" d="m691.06,344.2c-4.27,8.26-10.02,14.56-17.78,18.53-1.64.84-3.34,1.61-4.83,2.71-2.35,1.75-4.78,3.48-6.77,5.69-5.54,6.17-5.35,10.83.02,18.24-.2-3.32-.43-7.16-.66-11,.21,0,.41.01.62.02.8,3.32,1.61,6.64,2.41,9.96h.92c-.03-4.9-.07-9.8-.1-14.7.14,0,.28,0,.43.01.27,4.2.54,8.41.8,12.61l1.28.04c1-5.38,2.01-10.75,3.01-16.13.28.08.57.15.85.23-.26,4.1-.53,8.2-.82,12.72,6.19-3.59,3.76-11.42,7.31-16.69-.34,3.67-.62,6.65-.94,10.16,5.03-3.94,4.01-10.69,6.91-15.16-.51,3.31-1.03,6.62-1.57,10.15,4.28-4.69,5.89-10.73,7.52-16.89-.04,2.67-.08,5.34-.12,8.16.97-.73,1.71-1.29,2.45-1.84.1.12.19.24.29.36-2.3,3.25-4.6,6.5-6.91,9.75.1.14.2.28.29.42,2.43-1.85,4.86-3.71,7.34-5.61-2.76,6.67-9.72,7.47-13.96,12.64,5.23-1.27,10.05-2.43,14.83-3.59-5.66,5.85-14.41,4.72-20.61,10.14.91.64,1.9,1.15,2.74.97,3.8-.79,7.56-1.78,11.34-2.69.08.28.17.55.25.83-4.34,1.58-8.68,3.16-13.03,4.74.05.26.11.53.16.79,3.67-.46,7.34-.93,11.01-1.39.06.3.11.6.17.9-4.41.73-8.79,1.65-13.23,2.11-2.15.22-3.26,1.13-3.9,3.64,2.35.18,4.43.34,6.52.51l.04.48c-2.16.36-4.33.73-6.44,1.09,2.17,2.67,4.1,5.25,8.02,3.33,13.26-6.52,20.85-17.63,21.33-34.41.3-10.54-.08-21.15-.17-32.84-2.63,4.09-5.12,7.36-7.03,11.05Z"/><path class="cls-19" d="m637.68,327.43c-3.1-2.04-11.79-27.4-44.94-24.41-4.86.44-4.33,2.42-6.5,3.63.04.71.09,1.43.13,2.14,8.4,3.69,16.81,7.39,26.16,11.5-9.27-2.35-17.6-4.46-27.08-6.86,1.44,2.48,2.2,4.54,3.31,5.54,2.89,2.62,5.94,4.78,8.92,7.12-.11.55-.22,1.11-.33,1.66-4.13-2.28-8.25-4.57-13.27-7.35,2.1,3.54,3.61,6.94,5.62,9.26,2.23,2.59,4.87,4.4,7.41,6.19,2.51,1.77,5.12,3.09,7.69,4.6-.05.43-.1.86-.16,1.29-4.47-1.57-8.94-3.13-13.41-4.7l-.5,1.7c3.78,3.51,7.57,7.02,11.35,10.52-.1.43-.2.86-.3,1.29-4.77-3.33-9.54-6.67-13.71-9.58,4.45,11.09,12.01,16.11,20.33,16.52,9.86.49,19.71-.48,29.5-1.54,2.63-.29,11.46-7.15,11.47-11.11.01-3.96-8.6-15.37-11.69-17.41Zm-10.23,26.58c3.65-5.71,9.4-5.63,14.83-6.46-3.5,6.02-9.37,5.65-14.83,6.46Zm-7.03-39.2s5.07-1.11,17.59,18.18l6.15,12.27s-17.87-19.53-23.74-30.45Z"/><path class="cls-19" d="m627.12,241.18c1.72-1.13,3.1-2.03,4.58-2.99q.58,4.41,16.48,1.44c-5.08,2.44-10.17,4.88-14.7,7.05,1.35.81,2.96,2.47,4.94,2.84,9.51,1.75,18.17-.01,26.18-5.24,6.38-4.16,13.13-7.94,19.95-11.56,6.93-3.69,7.53-6.18.06-9.06-7.41-2.86-15.66-4.5-23.78-5.78-15.98-2.53-31.82,5.04-38.42,17.83-.8,1.56-.86,3.37-1.61,6.51,3.25-2.05,4.86-3.06,6.84-4.31-.2,1.23-.32,2-.53,3.26Zm57.61-12.37c-2.74,3.92-8.36,3.58-13.48,4.02,2.92-3.71,8.39-3.57,13.48-4.02Zm-35.53-7.8c6.22-.16,10.02,1.55,12.74,6.51-9.06-5.37-16.69-4.41-24.03.68,1.05-4.25,5.9-7.05,11.29-7.19Z"/><path class="cls-19" d="m589.68,297.35c.31,1.23,3.08,2.52,5.12,3.17,1.44.46,3.49-.02,5.21-.23,17.5-2.21,45.12-13.46,46.32-26.07.13-1.41,6.39-12.86,5.48-14.53-1.03-1.89-11.76-5.06-13.54-5.89-15.5-7.18-38.79,6.5-40.53,14.5,3.39-.87,5.85-1.49,8.31-2.12.14.23.28.46.41.69-3.58,1.99-7.15,3.99-10.73,5.98.42.57.83,1.14,1.25,1.7,9.75-3.11,19.5-6.22,30.4-9.69-10.09,12.06-33.14,10.91-42.89,21.99.29.67.59,1.34.88,2,10.33-.43,20.66-.87,30.99-1.3-7.2,2.73-15.13,4.27-22.82,6.23-1.81.46-4.13,2.49-3.85,3.56Zm60.37-36.43c-4.25,3.73-9.83,4.25-15.19,5.36,4.35-3.58,9.85-4.24,15.19-5.36Zm-17.73,16.63c3.93-5.63,6.98-5.53,11.35-6.4-2.29,5.48-15.28,12.03-11.35,6.4Z"/><path class="cls-19" d="m687.02,275.9l10.33-2.89c-.87.84-2.21,4.86-3.08,5.7.14.17.28.35.42.52,2.48-1.5,4.86-4.34,7.64-6.01-2.16,4.55-3.75,5.63-5.02,7.03.11.21.56.35.67.56,2.76-.62,4.52-2.21,7.28-2.83-1.81,1.25-.82,1.09-2.8,2.1-.47.24-1,1.03-.87,1.38.14.4.95.72,1.53.84.41.09.94-.16,1.39-.32,4.61-1.55,9.94-11.23,10.18-15.21-12.51-5.31-27.56,6.31-27.65,9.1Z"/><path class="cls-19" d="m679.82,237.01c-.54.43-1.26.88-1.47,1.44-.3.81-.55,2.03-.17,2.51.33.42,1.63.23,2.36.02,4.86-1.4,5.38-3.3-.32,3.96.17.3.35.6.52.9,6.75.71,7.36-3.88,14.56-2.95-4.19,2.06-2.88,1.41-6.63,3.26.1.3.21.61.31.91,1.7-.4,3.39-.8,5.09-1.21.05.11.1.23.15.34-.89.51-1.77,1.03-3,1.74,3.46,2.06,11.27-2.94,18.17-7.1-5.01-2.82-24.09-8.22-29.57-3.83Z"/><path class="cls-19" d="m573.62,290.83c1.17-1.13,1.62-3.19,2.41-4.83-.38-.35-.76-.7-1.14-1.05-1.44,1.25-2.98,2.38-4.31,3.77-13.75,14.37-29.4,25.31-47.46,32.06-2.03.76-3.72,2.53-5.82,4.01,2.55,4.96,5.28,2.89,7.21,1.86,9.22-4.92,18.74-9.42,27.24-15.59,7.9-5.73,14.72-13.3,21.87-20.25Z"/><path class="cls-19" d="m714.99,255.09c-17.45-4.63-32.06-8.63-47.45-5-6.81,1.61-12.31,4.54-10.36,13.49,7.93-2.19,15.63-4.33,23.34-6.46.07.36.13.71.2,1.07-7.35,3.53-14.71,7.06-22.06,10.58.19.63.38,1.26.57,1.89,6.31-.38,12.62-.77,20.17-1.23-3.2,2.59-5.5,4.46-8.99,7.29,17.96-1.18,28.13-14.45,44.59-21.63Zm-8.87,1.33c-5.5-.78-11.01-1.56-17.56-2.5,5.38-2.98,10.6-2.28,17.56,2.5Z"/><path class="cls-19" d="m550.71,318.25c0,.45,0,.91,0,1.36,3.16-.04,6.59.71,9.42-.28,8.06-2.83,16-4.4,24.34-1.51.08.03.33-.47.6-.86-11.93-10.07-23.01-1.08-34.34,1.29Z"/><path class="cls-19" d="m679.91,288.79c-11.49-3.52-23.46-.24-35.77,5.08-2.01.87-4.03,1.75-7.96,3.47,3.31,2.9,5.75,5.03,9.11,7.98-4.53.78-8.07,1.39-12.72,2.19,2.69.75,4.43,1.23,6.18,1.71-.06.26-.13.53-.19.79-1.54.24-3.09.48-4.63.71-.21.56-.42,1.12-.63,1.68l22.7,4.56c.01.27.03.54.04.81-5.74.7-11.48,1.4-17.45,2.13,1.24.77,2.45,1.52,4.16,2.57-1.66.55-2.89.96-5.02,1.67,12.61,6.95,25.93,4.05,39.47-4.56,11.06-7.02,19.7-17.71,26.27-33.37-4.74.77-7.76,1.4-10.73,1.72-4.32.47-9.09,1.98-12.82.84Zm-27.06,10.17c.23-4.65,9.24-6.51,19.44-4.47-6.27,1.44-12.55,2.89-19.44,4.47Zm23.43,10.4c6.88-6.2,13.76-12.39,21.95-19.77-2.5,10.77-8.97,16.7-21.95,19.77Z"/><path class="cls-19" d="m568.33,281.55c-2.5-13.48-1.22-25.9,7.81-36.66,6.04-7.2,12.79-13.56,21.89-16.81-14.25,11.75-27,24.22-25.22,45.58,3.22-5.86,6.12-11.15,9.02-16.44-1.3,8.39-7.14,15.69-2.99,24.8,7.34-7.96,14.77-14.96,20.81-23,3.04-4.05,3.6-9.98,5.2-15.09.71-2.28,1.23-4.62,1.98-7.47,6.54,5.25,1.15,10.67,2.33,15.84,7.23-3.2,7.59-9.94,8.66-16.19.38-2.25.34-4.61.2-6.91-.41-6.91-5.22-11.55-12.53-8.9-13.05,4.74-25.33,10.27-33.92,21.72-8.02,10.69-10.31,22.37-5.59,35.11.58,1.55,1.55,2.96,2.34,4.43Zm45.15-58.08c2.12,5.24.77,10.68.05,16.11-1.94-5.29-.76-10.7-.05-16.11Zm-2.97-1.65c-14.75,22.52-15.27,17.53-15.27,17.53,7.67-14.34,15.27-17.53,15.27-17.53Z"/><path class="cls-1" d="m568.13,334.81c-3.97-5.74-9.16-9.42-16.52-9-.86.05-1.71.31-2.85.53,1.48,2.35,3.69,1.63,5.38,2.25,1.72.63,3.42,1.3,5.13,1.96-.09.31-.18.62-.28.93-1.86-.13-3.71-.27-5.57-.4-.05.22-.1.45-.16.67,4.11,2,8.21,4,12.32,6-.1.18-.19.37-.29.55-1.98-.62-3.97-1.25-5.95-1.87-.12.3-.24.61-.36.91,3.09,1.66,6.17,3.33,9.26,4.99-.07.14-.14.29-.21.43-1.13-.19-2.26-.39-3.51-.61,2.5,1.89,4.79,3.62,7.08,5.35-.11.15-.22.29-.34.44-1.57-1.04-3.14-2.09-4.71-3.13-.1.14-.19.29-.29.43.77,1.04,1.53,2.08,2.65,3.61-4.08-1.96-4.32-6.87-8.67-8.58,1.31,2.73,2.34,4.88,3.38,7.04l-.67.41c-2.24-3.65-4.48-7.3-6.72-10.96-.29.15-.58.31-.86.46.69,2.3,1.39,4.6,2.08,6.9-.15.05-.29.1-.44.16-.94-2.05-1.92-4.09-2.81-6.16-.85-1.98-.77-4.5-3.9-5.8.76,3.47,1.42,6.52,2.01,9.23-3.71-3.09-2.65-8.37-4.65-12.59-.58.61-.88,1.17-.96,1.76-.89,6.11,1.25,10.87,6.27,14.47,7.83,5.61,16.76,8.24,26.1,9.8.68.11,1.4-.01,1.5-.02-2.2-3.58-4.43-7.24-6.68-10.9-1.91-3.09-3.71-6.26-5.77-9.25Z"/><path class="cls-19" d="m373.13,210.42c-1.89-1.71-11.04-2.51-13.34-1.91-2.31.6-18.15-6.16-30.99,10.94-1.88,2.51-.71,3.11-1.07,4.66.36.29.72.57,1.08.86,5.38-2.42,10.76-4.84,16.74-7.54-5.11,3.41-9.7,6.48-14.93,9.97l13.77,7.4c.2.32.4.65.59.97,3.3-.3,6.6-.59,9.91-.89.16.23.32.46.49.7-3.64.84-7.29,1.68-10.47,2.42,7.21,2.65,12.86,1.2,16.63-2.59,4.48-4.5,8.26-9.61,11.96-14.74,1-1.38,1.52-8.55-.36-10.26Zm-15.81,21.33c4.03-5.31,8.06-10.62,12.49-16.46,3.31,3.58-2.64,11.05-12.49,16.46Z"/><path class="cls-19" d="m311.87,179.91c.42-2.43.63-3.63.89-5.12.5.62.81,1.01,1.33,1.66.2-1.31.37-2.35.54-3.47q2.35,1.62,7.78-7.25c-1.02,3.48-2.05,6.95-2.96,10.05.97-.3,2.45-.35,3.48-1.14,4.93-3.78,7.82-8.68,8.76-14.75.76-4.83,1.86-9.68,3.07-14.5,1.22-4.9.29-6.25-4.3-3.93-4.55,2.31-8.89,5.54-12.99,8.86-8.08,6.54-11.29,17.36-8.02,26.01.4,1.05,1.24,1.86,2.41,3.57Zm18.18-35.03c-9.39,14.34-9.72,11.16-9.72,11.16,4.89-9.13,9.72-11.16,9.72-11.16Z"/><path class="cls-19" d="m324.79,218.48c.72.38,2.53-.38,3.72-1.08.84-.49,1.49-1.67,2.13-2.59,6.47-9.3,12.99-27.33,7.49-33.33-.62-.67-3.39-8.58-4.57-8.87-1.35-.32-7.48,3.44-8.64,3.93-10.1,4.31-13.59,21.31-10.52,25.58,1.05-1.99,1.81-3.44,2.56-4.88.17.03.34.07.51.1-.59,2.56-1.18,5.13-1.76,7.69.45.05.9.09,1.35.14l.49,11.26c.44.15.89.3,1.33.44,4.24-5.12,8.48-10.23,12.71-15.35-1.8,4.61-4.48,9.06-6.85,13.57-.56,1.06-.59,3.04.04,3.37Zm5.21-43.34c.57,4.74-3.39,8.29-6.52,12.07-.32-4.71,3.41-8.29,6.52-12.07Zm-7.38,27.63c1.37-8.28,7.07-16.05,12.12-23.92-1.09,8.24-7.04,16.03-12.12,23.92Z"/><path class="cls-19" d="m356.43,162.79l3.06-6.17c.03.78,1.37,3.15,1.39,3.92l.43.03c.35-1.83.02-4.19.42-6.23,1.24,2.99,1.07,4.21,1.2,5.42.15.04.41-.11.56-.07.9-1.58.89-3.11,1.78-4.69-.18,1.41.17.86-.2,2.24-.09.32.06.92.28,1.01.25.11.75-.14,1.06-.37.22-.16.33-.52.45-.8,1.25-2.87-1.08-9.58-2.88-11.4-7.92,3.69-8.85,15.87-7.55,17.12Z"/><path class="cls-19" d="m334.83,150.82c.26.49.73,1.13,1.13,1.16.35.03.81-.68,1.02-1.12,1.42-2.92.74-3.99,1.75,1.86l4.78-3.27c.54-.98,1.08-1.97,1.61-2.95.08.03.15.05.23.08-.14.64-.27,1.29-.46,2.18,2.47-.77,3.44-6.64,4.43-11.73-3.5,1.18-14.29,7.96-14.55,12.46-.03.44-.12.98.06,1.32Z"/><path class="cls-19" d="m314.76,223.34c-.04-1.05-.83-2.15-1.27-3.22-.33.03-.66.06-.99.1-.02,1.23-.14,2.45-.05,3.68.94,12.74-.57,24.92-5.12,36.45-.51,1.3-.39,2.87-.59,4.5,3.46.92,3.65-1.27,3.99-2.64,1.62-6.52,3.56-13,4.28-19.71.67-6.24-.02-12.75-.25-19.15Z"/><path class="cls-19" d="m335.73,160.98c-2.16,3.94-3.13,7.83,1.98,10.75,2.36-4.73,4.66-9.32,6.96-13.92.2.12.4.24.59.36-1.48,5.03-2.96,10.06-4.44,15.08.38.18.76.36,1.15.54,2.53-3.18,5.07-6.35,8.09-10.15-.14,2.64-.24,4.55-.39,7.43,7.16-9.08,5.21-19.64,8.86-30.59-9.72,6.33-17.92,11.59-22.8,20.49Z"/><path class="cls-19" d="m315.24,251.68l.65.59c1.34-1.52,3.18-2.84,3.92-4.61,2.12-5.07,4.78-9.53,9.75-12.26.05-.02-.08-.36-.15-.66-9.94,1.36-10.42,10.52-14.16,16.95Z"/><path class="cls-19" d="m359.53,171.73c-6.62,3.97-10.21,11.09-12.97,19.26-.45,1.34-.9,2.68-1.77,5.29,2.81-.33,4.88-.58,7.73-.91-1.58,2.5-2.81,4.45-4.43,7.02,1.51-.96,2.49-1.59,3.48-2.21.1.14.2.29.29.43-.55.84-1.1,1.68-1.65,2.52.18.34.35.68.53,1.02,3.98-2.96,7.96-5.91,11.94-8.87.13.11.27.22.4.33-2.14,3.04-4.27,6.08-6.49,9.25.9-.26,1.78-.52,3.02-.88-.45,1.03-.79,1.79-1.36,3.11,8.74-3.03,13.09-10.63,14.81-20.8,1.41-8.3.02-17.03-4.62-26.9-1.67,2.6-2.67,4.3-3.8,5.86-1.63,2.26-2.97,5.19-5.11,6.48Zm2.13,14.21c-.23-4.71,2.46-8.29,4.7-12.07.41,4.74-2.44,8.29-4.7,12.07Z"/><path class="cls-19" d="m293.92,202.36l12.29,13.97c-1.41-4.06-2.69-7.72-3.97-11.38,3.45,4.23,4.41,10.16,10.55,12.1-.64-6.93-.78-13.49-2.02-19.83-.62-3.19-3.21-6.01-4.96-8.98-.78-1.32-1.68-2.57-2.72-4.16,5.32-.86,5.59,4.04,8.56,5.7,1.59-4.83-1.48-7.9-4-11.1-.91-1.15-2.06-2.15-3.21-3.07-3.48-2.78-7.76-2.48-9.64,2.15-3.35,8.27-6,16.51-4.23,25.54,1.65,8.43,6.24,14.55,14.35,17.77.99.39,2.08.53,3.12.79-7.51-4.61-12.88-10.56-14.14-19.5Z"/><path class="cls-8" d="m460.7,224.96c-1.21-1.77-2.79-3.23-4.28-4.74-7.03-7.16-10.94-16.4-12.46-27.42-.67-4.92-2.16-9.55-3.48-15.18-4.63,13.59-9.17,25.84-12.92,38.22-5.97,19.71-1.9,35.16,10.22,47.09,3.58,3.53,6.72,1.15,10.15-1.25-2.2-1.11-4.45-2.24-6.69-3.38.08-.18.15-.36.23-.55,2.37.49,4.73.99,7.39,1.54.26-3.13-.62-4.56-2.9-5.52-4.73-1.98-9.21-4.49-13.8-6.79.18-.33.35-.66.53-.99,3.87,1.74,7.75,3.48,11.62,5.23.16-.29.32-.58.49-.87-4.18-3.26-8.37-6.53-12.55-9.79.2-.3.4-.59.6-.89,3.82,2.3,7.59,4.68,11.48,6.85.86.48,2.15.21,3.4-.24-4.76-8.34-14.86-9.89-18.84-18.56,4.84,2.92,9.7,5.85,14.99,9.04-2.67-7.41-10.06-10.62-10.52-19.3,2.01,3.02,3.97,5.98,5.93,8.94.16-.13.32-.26.49-.39-1.28-4.54-2.57-9.08-3.85-13.63.15-.11.3-.22.46-.33.6.89,1.2,1.78,1.99,2.95,1.05-3.3,2.04-6.42,3.03-9.55-.58,7.72-1.15,15.28,1.76,22.15.76-4.29,1.48-8.31,2.19-12.34,1.47,6.16-2.27,13.7,1.76,19.93,1-4.19,1.85-7.76,2.89-12.15,1.88,7.31-3.85,15.64,1.6,21.85,1.43-5.36,2.73-10.23,4.03-15.09.34,0,.69,0,1.03.01-.97,6.6-1.95,13.19-2.93,19.79.48.13.96.25,1.43.38,1.93-4.81,3.85-9.62,5.78-14.44.16.04.32.08.48.12-1.94,5.7-3.88,11.4-5.81,17.1.34.1.68.2,1.02.3,2.18-3.61,4.35-7.21,6.53-10.82.23.06.46.12.69.18-1.74,4.4-3.49,8.8-4.99,12.61,8.81-6.87,10.83-12.24,7.1-21.25-1.34-3.22-3.35-6.04-5.27-8.85Z"/><path class="cls-19" d="m515.31,260.36c-4.51,4.75-7.69,10.34-9.7,16.52-3.46,10.65-6.96,21.27-12.46,31.11-.19.35-.02.91-.01,1.37.45-.26,1.13-.42,1.31-.8,2.94-6.21,5.98-12.38,8.66-18.71,2.92-6.88,5.3-13.99,8.31-20.82,1.26-2.85,3.55-5.25,5.37-7.86.53-.76,1.01-1.55,1.52-2.32-.18-.17-.36-.34-.53-.51-.83.67-1.74,1.25-2.47,2.02Z"/><path class="cls-19" d="m498.74,271.37c-.7,5.39-1.29,10.8-1.9,16.21-.15,1.34-.18,2.69-.03,4.07,4.52-11.97,3.1-24.88,6.17-37.07-.25-.08-.51-.15-.76-.23-.52,1.35-1.27,2.65-1.52,4.04-.76,4.31-1.4,8.64-1.97,12.98Z"/><path class="cls-19" d="m542.7,190.69c-5.25,4.28-7.47,10.92-8.84,18.36-.22,1.22-.44,2.44-.87,4.82,2.4-.64,4.16-1.11,6.6-1.77-1.05,2.37-1.88,4.22-2.96,6.65,1.19-1.03,1.97-1.69,2.74-2.36.1.11.21.23.31.34-.37.8-.75,1.6-1.12,2.4.2.27.39.55.59.82,3.09-3.07,6.17-6.14,9.26-9.21.13.08.26.16.39.24-1.47,2.91-2.94,5.82-4.48,8.85.75-.34,1.48-.67,2.51-1.14-.26.95-.46,1.66-.79,2.88,7.21-3.73,10.03-10.88,10.25-19.93.18-7.39-2.12-14.79-7.4-22.78-1.12,2.47-1.78,4.07-2.56,5.57-1.13,2.17-1.92,4.89-3.63,6.27Z"/><path class="cls-19" d="m516.59,248.7c11.64-7.44,16.71-21.78,11.76-34.67-2.51-6.55-5.4-13.16-9.35-18.88-3.99-5.77-6.36-4.89-8.95,1.44-2.54,6.23-5.24,12.42-8.39,18.36-3.94,7.45-4.36,14.93-1.18,22.56.66,1.59,2.55,2.67,3.56,3.67,1.46-4.1,3.09-8.7,4.73-13.3q-.5,13.67,3.95,13.48c-.73,1.38-1.41,2.66-2.26,4.26,1.22-.36,1.96-.59,3.14-.94-.93,1.84-1.69,3.34-3.22,6.35,2.99-1.11,4.78-1.44,6.2-2.34Zm-10.05-29.62c-.23-4.71,2.46-8.29,4.7-12.07.41,4.74-2.44,8.29-4.7,12.07Zm17.47.15c-3.19-5.85-6.39-11.71-9.9-18.14,4.62-1.55,9,6.93,9.9,18.14Z"/><path class="cls-19" d="m510.63,184.49c-.08.72-.27,1.59-.06,2.18.29.85.85,2,1.37,2.12.45.11,1.29-.88,1.47-1.64.77-3.23,1.37-6.56,2.46-9.6-.11,4.33-.22,8.65-.33,12.98.28.12.57.24.85.35,4.6-4.16,3.95-13.8,8.96-18.11-1.39,4.58-2.63,8.69-3.87,12.79.24.17.48.34.73.51.81-1.51,1.63-3.02,2.44-4.53.1.06.2.11.29.17-.25,1.03-.49,2.07-.83,3.49,3.35-.79,6.48-.8,8.33,4.55-.22-7.65-1.56-18.77-5.76-24.16-4.76,1.27-15.24,11.56-16.05,18.89Z"/><path class="cls-19" d="m559.14,220.49c-7.38.07-14.29,1.36-20.21,6.25-1.75,1.44-3.73,2.6-5.6,3.89-.18.17-.37.34-.56.51-4.23,7.25-8.45,14.51-12.92,22.17,4.42,2.14,7.04-3.59,12.41-4.59-1.93,2.71-3.34,4.69-4.75,6.67q2.1.98,12.85-3.16c-1.09,1.41-1.89,2.44-2.69,3.47l.36.51c3.18-1.95,6.36-3.9,9.53-5.85.26.39.51.77.77,1.16-5.85,3.8-11.7,7.6-16.87,10.96,12.74,1.5,29.04-20.5,27.69-41.99Zm-19.06,19.33c-.23-4.71,2.46-8.29,4.7-12.07.41,4.74-2.44,8.29-4.7,12.07Zm4.97,1.3c3.64-5.31,7.27-10.62,11.26-16.46,2.98,3.58-2.38,11.05-11.26,16.46Z"/><path class="cls-19" d="m483.27,232.9c5.42,2.64,10.32,5.02,15.22,7.4.24-.68.47-1.35.71-2.03-5.18-8.26-7.77-21.88-17.29-21.12-2.69.22-4.91-2.56-7.25-4.26-2.53-1.84-4.04-2.48-7.33-5.2,5.17,36.86,14.62,49.85,31.62,35.83-9.04-.92-10.7,3.13-15.68-10.63Zm-12.4-18.6c22.19,14.53,17.28,15.05,17.28,15.05-14.13-7.56-17.28-15.05-17.28-15.05Z"/><path class="cls-19" d="m531.98,162.29c2.68.88,3.92-.45,5.03-2.8.43,1.35.8,2.56.67,3.69-.39,3.23-1.09,6.42-1.44,9.66-.12,1.11.42,2.3.67,3.46.29-.05.58-.11.87-.16-.51,1.47-1.03,2.94-1.9,5.44,1.73-.68,2.83-.81,3.53-1.44,2.66-2.38,4.23-5.56,3.97-9.21-.31-4.35-1.15-8.68-1.95-12.98-.18-.97-.57-4.12-1.65-4.85-1.08-.73-8.05,3.18-9.21,5.67-.78,1.68-.75,2.8,1.42,3.51Z"/><path class="cls-19" d="m508.52,174.29c.19-.17.37-.34.56-.51,2.19-4.55,4.37-9.1,6.75-14.05.56,1.35.88,2.12,1.32,3.16.98-2.01,1.84-3.79,2.71-5.58.21.06.43.12.64.18-.16,1.64-.32,3.28-.48,4.92.44.13.88.25,1.32.38,1.55-4.24,3.11-8.49,4.77-13.02-11.9-.92-18.63,5.04-19.42,17.24,1.44-2.93,2.39-4.86,3.96-8.03-.84,6.01-1.48,10.66-2.13,15.32Z"/><path class="cls-19" d="m484.37,212.19c.75.85,1.28,1.45,1.82,2.07-.15-3.39-.3-6.65-.45-9.91.15-.02.3-.04.45-.05,1.55,4.07,3.11,8.13,4.66,12.2.29-.17.58-.34.87-.51-.01-.88-.02-1.76-.04-2.64.14-.06.28-.12.42-.18.43.93.87,1.85,1.53,3.28.01-2.66.02-4.69.03-7.28,1.95,1.6,3.37,2.75,5.29,4.32.58-2.35.89-3.55,1.18-4.75,1.81-7.35,2.51-14.31-.52-20.37-.98-1.96-.59-4.76-.73-7.21-.1-1.69-.03-3.42-.05-6.13-8.09,5.12-13.23,10.93-16.1,17.74-3.52,8.34-3.88,16.02,1.16,22.38.19-1.25.31-1.97.46-2.95Zm9.28-31.51c1.6,6.82-2.66,11.33-5.87,16.27-1.29-6.74,2.7-11.33,5.87-16.27Z"/><path class="cls-9" d="m444.87,279.57c-64.57-63.77-122.79-8.08-122.79-8.08-104.43-68.83-111.77,22.79-111.77,22.79-67.84,24.4-14.63,79.13-2.15,84.48,0,0,38.4-32.37,71.99-13.51,33.6,18.86,44.09,27.92,60.47,25.12,33.96-5.79,52.79-34.55,138.22-3.69,0,0,46.71-14.57,53.11-28,33.15-99.57-87.09-79.1-87.09-79.1Zm-239.14,76.59c1.26,4.18,4.49,6.49,3.25,7.43-.92.7-1.83-.57-2.38-1.12-5.5-6.93-1.82-9.43-.88-6.3Zm.33,11.45c-15.5-13.63-14.64-15.49-22.74-30.94-2.19-3.5-.18-6.04,1.66-3.24,4.59,6.96,6.29,14.68,24.28,33.4.59,1.57-.13,4.29-3.2.77Zm107.92-73.62c1.93,0,3.49,1.56,3.49,3.49s-1.56,3.49-3.49,3.49-3.49-1.56-3.49-3.49,1.56-3.49,3.49-3.49Zm-35.49-27.69c.13-.33.46-.18.86-.21,10.74-.85,10.29,7.22,10.58,8.1.1.3.22.6.13.93-.13.49-.58.64-.89.24-.84-1.1-1.85-2.02-2.84-2.96-2.09-1.98-4.18-3.96-6.89-5.1-.21-.09-.41-.21-.59-.34-.22-.16-.47-.36-.36-.66Zm-38.23-1.95c.1-.09.2-.19.31-.26,3.84-2.31,7.7-4.6,12.4-4.63,1.29,0,2.55.2,3.79.5.75.19,1.46.55,1.93,1.22.18.26.35.57.14.89-.19.28.36.74.1.7-2.09-.35-4.18-.27-6.28-.18-3.99.17-7.58,1.43-10.91,3.71-.44.3-1.04.14-1.3-.32-.36-.64-.62-1.19-.17-1.63Zm-15.66,66.62c-1.84,0-3.34-1.49-3.34-3.34s1.49-3.34,3.34-3.34,3.34,1.49,3.34,3.34-1.49,3.34-3.34,3.34Zm10.62-27.76c.19-.25.38-.5.57-.75,14.15-3.5,46.68-9.56,59.12,16.8-12.6,2.32-7.5-17.43-59.69-16.06Zm83.39,72.65c-10.68,1.76-24.92-12.07-25.97-15.71-.91-3.14-1.51-3.44.67-1.93,5.42,3.77,10.58,7.57,16.4,10.97l11.23,6.18c.31.2.54.3.69.35-.35-.06-1.28-.15-3.03.14Zm164.79-85.99c2.02,0,3.65,1.64,3.65,3.65s-1.64,3.65-3.65,3.65-3.65-1.64-3.65-3.65,1.64-3.65,3.65-3.65Zm-133.53-25.28c14.61-4.9,53.56-13.92,69.66,16.62,3.78,7.17,2.42,10.4-4.66,2.55-5.02-5.56-9.6-10.66-17.4-12.73-13.46-3.56-27.07-5.18-40.91-2.24-7.03,1.5-18.16-.36-6.68-4.2Zm56.5,19.09l-4.3-3.26c1.5.99,2.92,2.1,4.3,3.26Zm-28.31-6.81c-.74,0-1.36-.31-1.55-1.07-.24-.94-.05-1.84.76-2.45.94-.71,2.04-.99,3.2-1,1.03,0,2.05.05,2.68.07,3.15.19,5.78.93,8.36,1.83.64.22,1.27.53,1.81.92.69.5,1.03,1.24.73,2.1-.35.99-1.14,1.51-2.13,1.26-4.56-1.14-9.17-1.72-13.86-1.67Zm13.19,60.41c0,1.65-1.33,2.98-2.98,2.98s-2.98-1.33-2.98-2.98,1.33-2.98,2.98-2.98,2.98,1.33,2.98,2.98Zm-54.74,44.2c14.68-1.68,66.12-28.91,70.83-14.81-11.92-1.18-64.19,24.34-70.83,14.81Zm119.68-55.6c-5.39,1.54-10.5,4.02-13.71,5.29-6.16-1.75-10.68-3.99-15.22-4.05-4.16-.05-8.43,2.04-12.51,3.57-4.28,1.6-8.39,2.46-12.11.52,4.33-2.23,8.97-4.42,13.41-6.96,7.52-4.31,14.91-4.77,22.92-1,2.39,1.12,5.91.37,8.79-.17,6.09-1.14,12.09-3.78,18.14-3.84,8.47-.09,16.06,3.36,21.16,11.24-2.87.11-5.67-.21-8.07-1.37-7.31-3.51-14.86-5.48-22.8-3.22Zm17.24,53.7c-3.4-.35-3-4.07-1.09-2.87.75.47,1.62.37,2.44.5,7.54,1.22,14.1-1.24,20.16-5.47.57-.49,1.58-1.75,2.42-1.1,2.49,1.93-9.43,10.44-23.92,8.95Zm35.07-26.44c-1.54,0-2.8-1.25-2.8-2.8s1.25-2.8,2.8-2.8,2.8,1.25,2.8,2.8-1.25,2.8-2.8,2.8Zm17.57-32.58l-6.75-7.51c-3.28-3.36-6.46-5.86-8.26-7.14-2.29-1.63-1.26-.7.94-.8,11.2-.54,11.75,7.55,15.24,14.55.52,1.03-.33,1.74-1.18.91Z"/><circle class="cls-7" cx="441.11" cy="460.43" r="3.61"/><path class="cls-7" d="m338.03,462.43c-.04-9.01.08-21.24-.24-28.54-2.55,12.82-3.78,36.7-4.23,64.48,2.52-1.38,5.05-2.75,7.58-4.13-.79-11.59-1.82-22.37-3.11-31.81Z"/><path class="cls-7" d="m341.03,577.11l1.39,1.57c.26-.29.53-.55.8-.79.01-1.08.02-2.17.03-3.26l-2.22,2.49Z"/><path class="cls-7" d="m339.87,597.72l.27,2.55c.66-.12,1.59-.19,2.67-.23.04-1.44.08-2.89.11-4.36-.96.73-1.98,1.42-3.05,2.04Z"/><path class="cls-7" d="m380.16,430.21c2.07,0,3.75-1.68,3.75-3.75s-1.68-3.75-3.75-3.75-3.75,1.68-3.75,3.75,1.68,3.75,3.75,3.75Z"/><path class="cls-7" d="m402.03,683.8c-1.99,0-3.61,1.62-3.61,3.61s1.62,3.61,3.61,3.61,3.61-1.62,3.61-3.61-1.62-3.61-3.61-3.61Z"/><path class="cls-7" d="m291.21,464.04c1.99,0,3.61-1.62,3.61-3.61s-1.62-3.61-3.61-3.61-3.61,1.62-3.61,3.61,1.62,3.61,3.61,3.61Z"/><path class="cls-7" d="m287.61,658.97c-1.99,0-3.61,1.62-3.61,3.61s1.62,3.61,3.61,3.61,3.61-1.62,3.61-3.61-1.62-3.61-3.61-3.61Z"/><path class="cls-7" d="m270,591.81c-2.73,0-4.95,2.22-4.95,4.95s2.22,4.95,4.95,4.95c1.93,0,3.59-1.1,4.41-2.71v-4.48c-.82-1.61-2.48-2.71-4.41-2.71Z"/><path class="cls-7" d="m331.81,788.13c-2.56,0-4.63,2.07-4.63,4.63s2.07,4.63,4.63,4.63,4.63-2.07,4.63-4.63-2.07-4.63-4.63-4.63Z"/><path class="cls-10" d="m516.75,823.35l-100.16,1.35,89.35-16.41c-11.08-2.88-80.15.26-80.15.26l69.77-17.6-62.02,4.22,52.71-16.7-21.9,1.77,18.31-10.24-36.21,2.53,30.22-12.23h-20.58c6.37-.69,19.11-7.56,19.11-7.56l-32.96,2.34,32.69-8.77h-13.9c10.9-3.12,16.1-10.54,16.1-10.54l-51.32,6.97,48.01-28.13-47.72,15.42s64.27-35.44,64.15-78.64c-.11-43.19-.6-226.62-.6-226.62l-9.64-2.89c-8.29,11.17-6.79,103.35-5.76,142.34l-4.8-158.7c-2.98-7.62-30.06-11.45-33.81-12.07-3.75-.61-16.19-1.18-16.19-1.18,0,0-2.82,66.11-4.53,116.58,9.07,4.94,18.13,9.88,27.18,14.81-.04.17-.08.35-.12.52-7.59-1.85-15.19-3.7-22.78-5.56-1.52-.37-3.04-.75-4.57-1.12-.04,0-.08-.02-.12-.03-15.17-3.73-30.33-7.49-45.52-11.14-2.07-.5-2.74-1.33-2.68-3.45.15-5.86.05-11.72.05-17.59v-2.9c16.21,8.83,32.23,17.56,48.19,26.26.19-49.45-.09-113.89-1.59-114.97,0,0-13.37-.62-31.47,1.87-18.1,2.49-46.08,25.54-77.36,7.2-31.29-18.33-56.31-4.85-59.3,2.77l-4.8,158.7c1.02-38.99,2.53-131.17-5.76-142.34l-9.64,2.89s-5.82,170.2-.6,226.62c2.28,24.66,11.42,60.87,60.49,77.45l-44.06-14.24,48.01,28.13-51.32-6.97s5.2,7.42,16.1,10.54h-13.9l32.69,8.77-32.96-2.34s12.73,6.86,19.11,7.56h-20.58l30.22,12.23-36.21-2.53s2.15,7.03,18.31,10.24l-21.9-1.77,52.71,16.7-62.02-4.22,69.77,17.6-80.15-.26,89.35,16.41-100.16-1.35,81.01,20-81.01-6.83s16.2,13.04,66.7,17.43c0,0,86.13,12.26,185.84,0,50.29-6.18,66.7-17.43,66.7-17.43l-81.01,6.83,81.01-20Zm-136.6-400.64c2.07,0,3.75,1.68,3.75,3.75s-1.68,3.75-3.75,3.75-3.75-1.68-3.75-3.75,1.68-3.75,3.75-3.75Zm74.72,212.52c-.71-.31-1.29-.5-1.81-.8-6.86-3.96-13.7-7.95-20.58-11.87-1.14-.65-1.76-1.21-1.31-2.68,7.71-25.23,15.38-50.48,23.06-75.72.07-.22.19-.42.29-.63.12,0,.24,0,.36,0v91.7Zm-13.76-171.19c-1.99,0-3.61-1.62-3.61-3.61s1.62-3.61,3.61-3.61,3.61,1.62,3.61,3.61-1.62,3.61-3.61,3.61Zm-26.63,57.03s.01,0,.02,0c13.34,3.28,26.66,6.54,40.04,9.83-8.8,28.95-17.51,57.62-26.42,86.95-20.13-36.27-39.93-71.94-60.04-108.17,15.58,3.82,31,7.61,46.4,11.39Zm-46.64-4.54c19.28,34.72,38.39,69.14,57.65,103.84h-121.8c10.01-18.05,19.98-36.01,29.96-53.99,3.18-5.72,6.35-11.45,9.53-17.18,5.71-10.28,11.42-20.59,17.16-30.93,1.41-2.54,2.82-5.07,4.23-7.62,1.09,1.96,2.18,3.92,3.26,5.88Zm-76.64-59.71c1.99,0,3.61,1.62,3.61,3.61s-1.62,3.61-3.61,3.61-3.61-1.62-3.61-3.61,1.62-3.61,3.61-3.61Zm42.35,41.55c.45-27.78,1.68-51.66,4.23-64.48.32,7.3.2,19.53.24,28.54,1.29,9.43,2.32,20.22,3.11,31.81,7.19-3.92,14.4-7.85,21.64-11.8,0,7.69.05,14.86-.1,22.03-.01.6-1.29,1.5-2.12,1.71-6.15,1.54-12.31,3.06-18.47,4.57-2.9.71-5.8,1.42-8.7,2.13-4.56,1.12-9.12,2.23-13.68,3.35-10.33,2.54-20.66,5.09-30.99,7.63-.47.12-.94.19-1.42.29-.06-.15-.13-.3-.19-.46,15.45-8.42,30.9-16.85,46.45-25.32Zm-.19,18.15c2.96-.73,5.92-1.45,8.88-2.18,6.26-1.54,12.53-3.08,18.84-4.63-.08.14-.16.28-.23.42-.8,1.45-1.6,2.89-2.41,4.34-5.13,9.25-10.25,18.47-15.36,27.68-3.18,5.72-6.35,11.44-9.53,17.16-10.79,19.44-21.59,38.89-32.49,58.55-8.89-29.3-17.59-57.98-26.37-86.92,19.58-4.81,39.05-9.59,58.67-14.41Zm-63.37,85.19c-2.73,0-4.95-2.22-4.95-4.95s2.22-4.95,4.95-4.95c1.93,0,3.59,1.1,4.41,2.71v-50.98c.12-.03.23-.05.35-.08.2.59.41,1.18.59,1.77,7.46,24.62,14.89,49.24,22.43,73.84.62,2.02.17,2.86-1.58,3.84-7.18,4.02-14.28,8.21-21.79,12.55v-36.47c-.82,1.61-2.48,2.71-4.41,2.71Zm17.6,64.47c-1.99,0-3.61-1.62-3.61-3.61s1.62-3.61,3.61-3.61,3.61,1.62,3.61,3.61-1.62,3.61-3.61,3.61Zm44.2,131.21c-2.56,0-4.63-2.07-4.63-4.63s2.07-4.63,4.63-4.63,4.63,2.07,4.63,4.63-2.07,4.63-4.63,4.63Zm22.21-114.66c-25.85-14.62-51.7-29.25-77.97-44.11,8.3-4.81,16.14-9.35,24.21-14.03,12.01,12.83,24,25.64,35.98,38.44.5.54,1,1.07,1.5,1.61,5.52,5.9,11.05,11.8,16.57,17.71-.1.13-.2.26-.3.39Zm-15.44-22.37c-.84-.9-1.69-1.8-2.53-2.71-10.34-11.06-20.7-22.12-31.13-33.28h119.39c-15.1,16.14-30.06,32.12-45.11,48.21-1.89,2.02-3.78,4.04-5.67,6.06-2.97,3.17-5.94,6.35-8.92,9.53-8.7-9.3-17.36-18.55-26.02-27.81Zm34.85,22.82h0s.05.05,0,0Zm0,0h0c1.4-1.5,4.28-3.81,5.68-5.31,16.58-17.72,33.16-35.44,49.87-53.3,8.11,4.7,15.96,9.24,24.26,14.05-24.93,14.1-49.56,28.04-74.18,41.96-1.26.71-4.36,1.88-5.62,2.59Zm28.62,7.84c-1.99,0-3.61-1.62-3.61-3.61s1.62-3.61,3.61-3.61,3.61,1.62,3.61,3.61-1.62,3.61-3.61,3.61Z"/><path class="cls-9" d="m347.92,600.09l.8.04c1.57.13,3.62.27,5.55.27,1.61,0,3.17-.09,4.25-.45l2.95-7.74-1.92-.58c-1.48,2.86-4.92,3.53-7.83,3.53-1.52,0-2.91-.18-3.8-.31,7.02-5.05,12.25-10.73,12.25-16.37,0-1.61-.45-3.17-1.34-4.61-1.65-2.59-5.28-3.58-8.45-3.58-1.43,0-2.77.22-3.76.54l-3.37,3.77c0,1.09-.02,2.18-.03,3.26,1.5-1.31,3.25-1.89,4.87-1.89.72,0,1.43.13,2.06.36,1.97.76,2.77,2.33,2.82,4.56v.13c0,2.77-1.21,5.55-3.76,8.63-1.35,1.65-3.59,3.96-6.3,6.01-.04,1.46-.07,2.92-.11,4.36.59-.02,1.23-.03,1.89-.03,1.03,0,2.1,0,3.22.09Z"/><path class="cls-9" d="m363.57,586.45c0,4.11,1.34,7.87,3.85,10.64,2.1,2.28,4.92,3.53,7.78,3.58h.22c3.85,0,6.84-1.43,9.35-4.2,2.73-2.95,4.34-7.24,4.61-11.18,0-.4.04-.76.04-1.16,0-4.11-1.39-7.87-3.89-10.6-2.06-2.28-4.92-3.62-7.78-3.62-3.49,0-6.75,1.43-9.39,4.2-3,3.09-4.52,7.29-4.74,11.18-.04.4-.04.8-.04,1.16Zm8.85-11.13c.67-.89,1.52-1.39,2.46-1.48h.22c3.4,0,5.95,4.43,6.93,10.73.18,1.43.31,2.73.31,3.93,0,2.59-.49,4.61-1.52,5.95-.72.94-1.7,1.52-2.82,1.57h-.27c-3.4,0-6.13-4.29-6.93-10.6-.13-1.07-.22-2.1-.22-3.09,0-2.95.63-5.5,1.83-7.02Z"/><path class="cls-4" d="m358.45,514.37s0,.06,0,.09"/></g></svg>