<?xml version="1.0" encoding="UTF-8"?><svg id="Layer_2" xmlns="http://www.w3.org/2000/svg" viewBox="0 0 661.37 216.77"><defs><style>.cls-1{fill:#d9b166;}</style></defs><g id="Layer_1-2"><path class="cls-1" d="M36.54,33.77c-1.76.08-3.59.27-5.48.57-1.89.3-3.42.65-4.6,1.07-2.77,3.36-4.87,7.41-6.3,12.16-1.43,4.75-2.14,9.72-2.14,14.93,0,6.47,1.55,12.27,4.66,17.39,3.11,5.12,7.54,9.18,13.29,12.16,5.75,2.98,12.58,4.47,20.48,4.47,4.87,0,9.3-.48,13.29-1.45,3.99-.96,7.5-2.18,10.52-3.65,3.02-1.47,5.5-3,7.43-4.6.67-1.93,1.18-3.59,1.51-4.98.33-1.39.67-3.25,1.01-5.61-4.12,2.19-8.3,3.82-12.54,4.91-4.24,1.09-8.67,1.64-13.29,1.64-6.85,0-12.7-1.12-17.6-3.31,3.36-2.06,5.9-4.25,7.58-6.58,2.39-3.32,3.59-7.5,3.59-12.54,0-1.68-.04-3.82-.13-6.43-.08-2.6-.19-5.29-.31-8.06s-.19-5.21-.19-7.31c0-1.85.04-3.88.13-6.11.08-2.22.25-4.39.5-6.49-1.51.67-3.23,1.57-5.17,2.71-1.93,1.13-3.8,2.31-5.61,3.53-1.81,1.22-3.34,2.42-4.6,3.59-.25,1.34-.42,2.84-.5,4.47-.08,1.64-.13,3.38-.13,5.23,0,1.34.06,3,.19,4.98.13,1.97.23,4.05.31,6.24.08,2.19.13,4.41.13,6.68s-.46,4.71-1.39,7.06c-.54,1.38-1.31,2.62-2.29,3.71-4.1-4.32-6.15-10.55-6.15-18.7,0-3.95.29-7.58.88-10.9.59-3.32,1.55-6.91,2.9-10.77Z"/><path class="cls-1" d="M101.11,14.74c1.64-2.1,3.04-4.62,4.22-7.56-.84-.67-1.87-1.3-3.09-1.89-1.22-.59-2.42-1.05-3.59-1.39-1.68,1.93-3.28,3.38-4.79,4.35-1.51.97-3.99,1.45-7.43,1.45-2.69,0-6.15-.21-10.4-.63-4.24-.42-8.78-.88-13.61-1.39-4.83-.5-9.45-.96-13.86-1.39-4.41-.42-8.13-.63-11.15-.63-5.63,0-10.75.76-15.37,2.27-4.62,1.51-8.57,3.53-11.84,6.05-3.28,2.52-5.8,5.38-7.56,8.57-1.76,3.19-2.65,6.43-2.65,9.7,0,.84.06,1.66.19,2.46.13.8.3,1.53.5,2.21.21.67.44,1.26.69,1.76.93.42,2.1.88,3.53,1.39,1.43.5,2.88.97,4.35,1.39,1.47.42,2.62.76,3.47,1.01.67-.59,1.64-1.64,2.9-3.15,1.26-1.51,2.5-3.11,3.72-4.79,1.22-1.68,1.99-3.07,2.33-4.16-1.85-.5-4.18-.99-6.99-1.45-1.71-.28-3.3-.48-4.8-.62.58-.64,1.17-1.26,1.78-1.83,1.72-1.59,3.59-2.88,5.61-3.84,2.02-.96,4.2-1.68,6.55-2.14,2.35-.46,4.83-.69,7.43-.69,2.85,0,5.77.13,8.76.38,2.98.25,5.98.59,9.01,1.01,3.02.42,5.96.84,8.82,1.26,2.85.42,5.52.76,8,1.01.24.02.46.04.7.06-.04.15-.09.29-.13.44-.84,3.11-1.41,6.13-1.7,9.07-.29,2.94-.44,5.75-.44,8.44,0,3.86.06,7.16.19,9.89.13,2.73.19,5.31.19,7.75,0,4.2-.04,7.69-.13,10.46-.08,2.77-.25,5.5-.5,8.19,1.43.08,2.92,0,4.47-.25,1.55-.25,2.88-.63,3.97-1.13.25-1.85.42-3.67.5-5.48.08-1.81.15-3.74.19-5.8.04-2.06.06-4.35.06-6.87s-.06-5.21-.19-7.81c-.13-2.6-.19-5.75-.19-9.45s.33-8,1.01-12.41c.24-1.57.58-3.15,1.01-4.75,4.18-.08,7.79-.39,10.83-.92,3.61-.63,6.68-1.62,9.2-2.96,2.52-1.34,4.6-3.06,6.24-5.17Z"/><path class="cls-1" d="M103.44,32.76c.17,4.2,1.3,7.79,3.4,10.77,1.16,1.65,2.54,2.98,4.12,4,.09,1.26.17,2.53.23,3.81.13,2.48.23,5.02.31,7.62.08,2.6.13,5.25.13,7.94,0,1.43-.08,3.32-.25,5.67-.17,2.35-.38,4.73-.63,7.12s-.59,4.47-1.01,6.24c2.52,1.6,5,3.05,7.43,4.35,2.44,1.3,4.96,2.46,7.56,3.47,2.6,1.01,5.38,1.93,8.32,2.77,2.35-.67,4.72-1.53,7.12-2.58,2.39-1.05,4.66-2.27,6.8-3.65.85-.55,1.64-1.11,2.39-1.69.17.1.33.2.51.3,1.81,1.05,3.74,2.08,5.8,3.09,2.06,1.01,4.07,1.91,6.05,2.71,1.97.8,3.8,1.41,5.48,1.83,6.63-2.1,11.8-4.37,15.5-6.8,3.7-2.44,6.32-5.17,7.88-8.19,1.55-3.02,2.33-6.34,2.33-9.95,0-1.34-.11-2.92-.31-4.73-.21-1.81-.4-3.67-.57-5.61-.17-1.93-.25-3.65-.25-5.17,0-2.85.15-5.63.44-8.32.29-2.69.82-5.25,1.58-7.69-1.6-1.59-3.26-3.02-4.98-4.28-1.72-1.26-3.47-2.44-5.23-3.53-1.76-1.09-3.61-2.1-5.54-3.02-1.09.76-2.21,1.74-3.34,2.96-1.13,1.22-2.16,2.52-3.09,3.91-.93,1.39-1.72,2.71-2.39,3.97,2.29,1.01,4.7,1.95,7.18,2.86.06.9.12,1.92.19,3.12.13,2.14.25,4.47.38,6.99s.23,5.08.31,7.69c.08,2.6.15,5.02.19,7.25.04,2.23.06,4.01.06,5.35,0,2.27-.17,4.18-.5,5.73-.34,1.56-1.11,2.92-2.33,4.09-.29.28-.64.57-1.02.86-.44-.16-.87-.33-1.31-.48-2.86-1.01-5.59-1.93-8.19-2.77-1.65-.53-3.18-1.02-4.63-1.49-.08-1.18-.17-2.51-.29-3.99-.17-2.14-.3-4.39-.38-6.74-.08-2.35-.17-4.56-.25-6.62-.08-2.06-.13-3.76-.13-5.1,0-3.44.19-6.49.57-9.13.38-2.65.95-5.19,1.7-7.62-1.26-1.18-2.75-2.44-4.47-3.78-1.72-1.34-3.55-2.62-5.48-3.84-1.93-1.22-3.86-2.29-5.8-3.21-1.09.76-2.25,1.74-3.46,2.96s-2.33,2.52-3.34,3.91c-1.01,1.39-1.85,2.71-2.52,3.97,2.55,1.02,5.12,1.98,7.7,2.91.05.65.11,1.34.17,2.07.13,1.47.25,3.02.38,4.66.13,1.64.23,3.38.31,5.23.08,1.85.15,3.78.19,5.8.04,2.02.06,4.08.06,6.17,0,4.37-.15,7.79-.44,10.27-.3,2.48-1.05,4.39-2.27,5.73-.45.5-1,.98-1.66,1.47-.7-.28-1.39-.57-2.12-.84-2.73-1.01-5.38-1.93-7.94-2.77-1.07-.35-2.1-.69-3.09-1.01-.07-1.06-.15-2.22-.25-3.53-.17-2.27-.3-4.64-.38-7.12-.08-2.48-.17-4.81-.25-6.99-.08-2.18-.13-3.95-.13-5.29,0-3.44.23-6.55.69-9.32.46-2.77,1.11-5.33,1.95-7.69-4.37-1.26-7.46-3-9.26-5.23-1.81-2.22-2.75-4.85-2.83-7.88-.08-2.69.63-5.25,2.14-7.69,1.51-2.44,3.95-4.91,7.31-7.43-.34-.92-.9-1.89-1.7-2.9-.8-1.01-1.66-1.81-2.58-2.39-5.8,3.11-10.35,7.04-13.67,11.78-3.32,4.75-4.85,9.64-4.6,14.68Z"/><path class="cls-1" d="M211.55,51.22v9.38c0,5.71-.15,10.61-.44,14.68-.3,4.08-.9,7.62-1.83,10.65,1.59,1.34,3.34,2.67,5.23,3.97,1.89,1.3,3.91,2.52,6.05,3.65,2.14,1.13,4.39,2.21,6.74,3.21,1.26-1.01,2.41-2.06,3.47-3.15,1.05-1.09,2.02-2.29,2.9-3.59.88-1.3,1.7-2.67,2.46-4.09-2.6-1.51-5.8-2.71-9.58-3.59-.26-.06-.49-.11-.74-.17.01-1.05.03-2.13.05-3.24.04-2.22.08-4.3.13-6.24.04-1.93.06-3.32.06-4.16,0-4.62.42-8.84,1.26-12.66.84-3.82,2.12-7.37,3.84-10.65,1.72-3.28,3.93-6.3,6.61-9.07-.34-1.26-1.13-2.58-2.39-3.97-1.26-1.39-2.65-2.37-4.16-2.96-1.6,1.09-3.17,2.69-4.73,4.79-1.56,2.1-2.86,4.56-3.91,7.37-.21.56-.38,1.13-.56,1.71-.21-.29-.42-.6-.64-.89-1.76-2.35-3.51-4.64-5.23-6.87-1.72-2.22-3.46-4.3-5.23-6.24-.76.59-1.6,1.34-2.52,2.27s-1.83,1.91-2.71,2.96c-.88,1.05-1.68,2.06-2.39,3.02-.71.97-1.2,1.79-1.45,2.46,1.93,2.86,4.11,5.59,6.55,8.19,1.03,1.11,2.09,2.17,3.15,3.22Z"/><path class="cls-1" d="M215.83,15.44c1.85,1.72,3.78,3.3,5.8,4.72,2.02-1.43,3.95-3,5.8-4.72,1.85-1.72,3.44-3.51,4.79-5.35-1.34-1.93-2.94-3.76-4.79-5.48-1.85-1.72-3.78-3.25-5.8-4.6-2.02,1.34-3.95,2.88-5.8,4.6-1.85,1.72-3.49,3.55-4.91,5.48,1.43,1.85,3.07,3.63,4.91,5.35Z"/><path class="cls-1" d="M298.24,81.21c-.25-2.65-.44-5.23-.57-7.75s-.21-5-.25-7.43c-.04-2.44-.06-4.83-.06-7.18,0-1.93.06-3.86.19-5.8.13-1.93.36-3.95.69-6.05.33-2.1.8-4.33,1.39-6.68-2.52-1.43-5.35-2.83-8.5-4.22-3.15-1.39-6.36-2.69-9.64-3.91-3.28-1.22-6.43-2.21-9.45-2.96-2.35,3.11-4.41,6.49-6.17,10.14-1.03,2.14-1.9,4.14-2.65,6.03-.57-.86-1.15-1.75-1.76-2.69-1.6-2.44-3.17-4.85-4.73-7.25-1.56-2.39-2.96-4.47-4.22-6.24-1.09.5-2.25,1.16-3.47,1.95-1.22.8-2.39,1.68-3.53,2.65-1.13.97-2.16,1.97-3.09,3.02-.93,1.05-1.72,2.04-2.39,2.96.76.93,1.7,2,2.83,3.21,1.13,1.22,2.39,2.44,3.78,3.65.4.35.8.67,1.19.99.05.73.09,1.47.13,2.22.17,3.11.27,6.3.31,9.58.04,3.28.06,6.6.06,9.95,0,2.86-.13,5.57-.38,8.13-.25,2.56-.84,5.35-1.76,8.38,1.51,1.43,3.09,2.77,4.73,4.03,1.64,1.26,3.36,2.46,5.17,3.59,1.81,1.13,3.72,2.21,5.73,3.21,1.18-.84,2.35-1.85,3.53-3.02s2.27-2.46,3.28-3.84c1.01-1.39,1.85-2.71,2.52-3.97-2.67-1.1-5.42-2.14-8.23-3.12-.22-1.84-.34-3.69-.34-5.57,0-8.23,1.03-15.22,3.09-20.98,1.65-4.61,3.89-8.71,6.69-12.32,1.96.74,3.99,1.47,6.16,2.18,1.39.46,2.69.87,3.92,1.25.05.8.09,1.62.11,2.46.04,1.72.1,3.59.19,5.61.08,2.02.13,4.18.13,6.49v7.5c0,2.86-.13,5.57-.38,8.13-.25,2.56-.84,5.35-1.76,8.38,1.43,1.43,2.85,2.75,4.28,3.97,1.43,1.22,2.96,2.37,4.6,3.46,1.64,1.09,3.38,2.23,5.23,3.4,1.18-.84,2.33-1.85,3.46-3.02,1.13-1.18,2.21-2.46,3.21-3.84,1.01-1.39,1.85-2.71,2.52-3.97-1.67-1.14-3.55-2.1-5.61-2.92-.06-.6-.13-1.22-.18-1.8Z"/><path class="cls-1" d="M435.07,13.1c-2.44-1.09-5.92-2.44-10.46-4.03-4.54-1.59-9.12-2.94-13.73-4.03-5.12,1.26-9.12,4.01-11.97,8.25-2.86,4.24-4.28,10.31-4.28,18.21,0,3.02.06,5.57.19,7.62.13,2.06.25,4.03.38,5.92s.19,4.05.19,6.49c0,4.2-.06,8.44-.19,12.73-.13,4.28-.36,8.78-.69,13.48,1.18.25,2.52.36,4.03.32,1.51-.04,2.98-.23,4.41-.57.42-4.79.69-9.47.82-14.05.13-4.58.19-8.76.19-12.54,0-3.19-.13-6.26-.38-9.2-.25-2.94-.38-6.59-.38-10.96,0-3.7.48-7.06,1.45-10.08.26-.81.58-1.61.95-2.4,1.49.56,3.08,1.14,4.78,1.77,3.19,1.18,6.4,2.35,9.64,3.53,3.23,1.18,6.03,2.23,8.38,3.15,1.26-1.34,2.35-2.81,3.28-4.41.92-1.59,1.68-3.19,2.27-4.79.59-1.59.96-3.06,1.13-4.41Z"/><path class="cls-1" d="M360.16,84.04c4.24,4.03,9.09,7.12,14.55,9.26,5.46,2.14,11.17,3.21,17.14,3.21,4.62,0,9.05-.55,13.29-1.64,4.24-1.09,8.08-2.5,11.53-4.22,3.44-1.72,6.22-3.46,8.32-5.23.67-1.93,1.2-3.76,1.58-5.48.38-1.72.69-3.42.94-5.1-4.54,2.6-9.13,4.58-13.8,5.92-4.66,1.34-9.51,2.02-14.55,2.02s-9.43-.82-13.92-2.46c-3.35-1.22-6.42-2.88-9.23-4.99,2.41-1.35,4.45-2.75,6.08-4.21,2.31-2.06,3.99-4.37,5.04-6.93,1.05-2.56,1.57-5.52,1.57-8.88,0-1.26-.04-2.79-.13-4.6-.08-1.81-.15-3.74-.19-5.8-.04-2.06-.11-4.1-.19-6.11-.08-2.02-.13-3.82-.13-5.42,0-1.26.02-2.85.06-4.79.04-1.93.17-3.91.38-5.92.21-2.02.48-3.74.82-5.17-1.51.34-3.34,1.07-5.48,2.21-2.14,1.13-4.2,2.35-6.17,3.65-1.97,1.3-3.46,2.46-4.47,3.46-.08.67-.17,1.64-.25,2.9-.08,1.26-.15,2.63-.19,4.1-.04,1.47-.06,2.92-.06,4.35,0,1.6.04,3.26.13,4.98.08,1.72.15,3.49.19,5.29.04,1.81.1,3.65.19,5.54.08,1.89.13,3.76.13,5.61,0,2.52-.46,4.71-1.39,6.55-.54,1.08-1.3,2.1-2.27,3.07-1.93-2.43-3.57-5.17-4.91-8.23-2.1-4.79-3.15-10.33-3.15-16.63,0-4.11.5-8.57,1.51-13.36,1.01-4.79,2.39-9.45,4.16-13.99,1.76-4.54,3.74-8.4,5.92-11.59-1.76,0-3.53.15-5.29.44-1.76.3-3.49.78-5.17,1.45-3.19,3.02-6.03,6.89-8.5,11.59-2.48,4.71-4.41,9.81-5.8,15.31-1.39,5.5-2.08,11.07-2.08,16.69,0,6.89,1.24,13.13,3.72,18.71,2.48,5.59,5.84,10.4,10.08,14.43Z"/><path class="cls-1" d="M446.29,15.44c1.85,1.72,3.78,3.3,5.8,4.72,2.02-1.43,3.95-3,5.8-4.72,1.85-1.72,3.44-3.51,4.79-5.35-1.34-1.93-2.94-3.76-4.79-5.48-1.85-1.72-3.78-3.25-5.8-4.6-2.02,1.34-3.95,2.88-5.8,4.6-1.85,1.72-3.49,3.55-4.91,5.48,1.43,1.85,3.07,3.63,4.91,5.35Z"/><path class="cls-1" d="M442,51.22v9.38c0,5.71-.15,10.61-.44,14.68-.3,4.08-.9,7.62-1.83,10.65,1.59,1.34,3.34,2.67,5.23,3.97,1.89,1.3,3.91,2.52,6.05,3.65,2.14,1.13,4.39,2.21,6.74,3.21,1.26-1.01,2.41-2.06,3.47-3.15,1.05-1.09,2.02-2.29,2.9-3.59.88-1.3,1.7-2.67,2.46-4.09-2.6-1.51-5.8-2.71-9.58-3.59-.26-.06-.49-.11-.74-.17.01-1.05.03-2.13.05-3.24.04-2.22.08-4.3.13-6.24.04-1.93.06-3.32.06-4.16,0-4.62.42-8.84,1.26-12.66.84-3.82,2.12-7.37,3.84-10.65,1.72-3.28,3.93-6.3,6.61-9.07-.34-1.26-1.13-2.58-2.39-3.97-1.26-1.39-2.65-2.37-4.16-2.96-1.6,1.09-3.17,2.69-4.73,4.79-1.56,2.1-2.86,4.56-3.91,7.37-.21.56-.38,1.13-.56,1.71-.21-.29-.42-.6-.64-.89-1.76-2.35-3.51-4.64-5.23-6.87-1.72-2.22-3.46-4.3-5.23-6.24-.76.59-1.6,1.34-2.52,2.27s-1.83,1.91-2.71,2.96c-.88,1.05-1.68,2.06-2.39,3.02-.71.97-1.2,1.79-1.45,2.46,1.93,2.86,4.11,5.59,6.55,8.19,1.03,1.11,2.09,2.17,3.15,3.22Z"/><path class="cls-1" d="M471.23,42.34c1.43.25,3.25.5,5.48.76.97.11,1.83.19,2.64.25-.04.97-.08,1.93-.12,2.9-.13,3.45-.21,6.97-.25,10.58-.04,3.61-.06,7.39-.06,11.34,0,2.86-.17,5.86-.5,9.01-.34,3.15-.84,6.07-1.51,8.76,1.85,1.34,3.78,2.67,5.8,3.97,2.02,1.3,4.11,2.52,6.3,3.65,2.18,1.13,4.33,2.12,6.43,2.96,1.51-1.09,2.98-2.33,4.41-3.72,1.43-1.39,2.83-2.9,4.22-4.54,1.39-1.64,2.75-3.34,4.09-5.1-.59-.92-1.47-1.87-2.65-2.83-1.18-.96-2.23-1.78-3.15-2.46-1.34.93-2.77,2.16-4.28,3.72-.27.28-.53.54-.78.81-1.03-.46-2.07-.92-3.12-1.38-.06-.03-.12-.05-.18-.08-.15-1.8-.28-3.85-.38-6.16-.13-2.9-.19-5.98-.19-9.26v-8.25c0-2.39.02-4.81.06-7.25.03-1.84.07-3.85.13-6.03,1.26.13,2.51.25,3.78.36,2.9.25,5.52.38,7.88.38.25-1.01.46-2.41.63-4.22.17-1.81.29-3.63.38-5.48.08-1.85.08-3.28,0-4.28h-12.46c.11-2.08.29-4.12.55-6.11.46-3.57.99-6.32,1.57-8.25-.5-.59-1.47-1.26-2.9-2.02-1.43-.76-2.6-1.26-3.53-1.51-2.19,2.44-4.37,4.91-6.55,7.43-2.19,2.52-4.28,5.12-6.3,7.81-2.02,2.69-3.82,5.46-5.42,8.32-.08.5-.15,1.16-.19,1.95-.04.8-.04,1.56,0,2.27.04.71.1,1.28.19,1.7Z"/><path class="cls-1" d="M544,90.03c.88-1.3,1.7-2.67,2.46-4.09-2.6-1.51-5.8-2.71-9.58-3.59-.26-.06-.49-.11-.74-.17.01-1.05.03-2.13.05-3.24.04-2.22.08-4.3.13-6.24.04-1.93.06-3.32.06-4.16,0-4.62.42-8.84,1.26-12.66.84-3.82,2.12-7.37,3.84-10.65,1.72-3.28,3.93-6.3,6.61-9.07-.34-1.26-1.13-2.58-2.39-3.97-1.26-1.39-2.65-2.37-4.16-2.96-1.6,1.09-3.17,2.69-4.73,4.79-1.56,2.1-2.86,4.56-3.91,7.37-.21.56-.38,1.13-.56,1.71-.21-.29-.42-.6-.64-.89-1.76-2.35-3.51-4.64-5.23-6.87-1.72-2.22-3.46-4.3-5.23-6.24-.76.59-1.6,1.34-2.52,2.27s-1.83,1.91-2.71,2.96c-.88,1.05-1.68,2.06-2.39,3.02-.71.97-1.2,1.79-1.45,2.46,1.93,2.86,4.11,5.59,6.55,8.19,1.03,1.11,2.09,2.17,3.15,3.22v9.38c0,5.71-.15,10.61-.44,14.68-.3,4.08-.9,7.62-1.83,10.65,1.59,1.34,3.34,2.67,5.23,3.97,1.89,1.3,3.91,2.52,6.05,3.65,2.14,1.13,4.39,2.21,6.74,3.21,1.26-1.01,2.41-2.06,3.47-3.15,1.05-1.09,2.02-2.29,2.9-3.59Z"/><path class="cls-1" d="M526.17,15.44c1.85,1.72,3.78,3.3,5.8,4.72,2.02-1.43,3.95-3,5.8-4.72,1.85-1.72,3.44-3.51,4.79-5.35-1.34-1.93-2.94-3.76-4.79-5.48-1.85-1.72-3.78-3.25-5.8-4.6-2.02,1.34-3.95,2.88-5.8,4.6-1.85,1.72-3.49,3.55-4.91,5.48,1.43,1.85,3.07,3.63,4.91,5.35Z"/><path class="cls-1" d="M554.39,85.93c3.02,1.51,6.09,2.92,9.2,4.22,3.11,1.3,6.32,2.48,9.64,3.53,3.32,1.05,6.7,1.99,10.14,2.84,2.27-1.09,4.47-2.37,6.62-3.84,2.14-1.47,4.2-3.13,6.17-4.98,1.97-1.85,3.84-3.82,5.61-5.92-.34-.76-1.09-1.76-2.27-3.02-1.18-1.26-2.23-2.18-3.15-2.77-2.1,1.6-4.22,3.34-6.36,5.23-.97.85-1.95,1.7-2.95,2.55-.11-.03-.22-.06-.33-.09-3.4-.92-6.66-1.81-9.77-2.65-1.99-.54-3.74-1-5.32-1.4-.05-.78-.1-1.65-.16-2.64-.04-.67-.08-1.38-.11-2.1,1.72-1.11,3.47-2.24,5.28-3.45,2.9-1.93,5.77-3.95,8.63-6.05,2.85-2.1,5.67-4.24,8.44-6.43,2.77-2.18,5.38-4.33,7.81-6.43.08-.42.13-.84.13-1.26v-1.32c0-.46-.04-.9-.13-1.32-1.6-2.18-3.4-4.43-5.42-6.74-2.02-2.31-4.14-4.56-6.36-6.74-2.23-2.18-4.39-4.16-6.49-5.92-5.29,1.43-10.06,3.32-14.3,5.67-4.24,2.35-7.58,5.12-10.02,8.32-2.44,3.19-3.65,6.85-3.65,10.96,0,3.19.19,6.26.57,9.2.38,2.94.57,5.88.57,8.82,0,2.19-.15,4.35-.44,6.49-.3,2.14-.82,4.56-1.58,7.25ZM571.53,45.55c.59-1.39,1.76-2.62,3.53-3.72.26-.16.53-.32.82-.49.6.68,1.22,1.38,1.89,2.12,1.81,2.02,3.67,4.01,5.61,5.99,1.41,1.44,2.71,2.79,3.9,4.03-1,.75-2.12,1.6-3.4,2.59-1.85,1.43-3.8,2.94-5.86,4.54-2.06,1.6-4.03,3.13-5.92,4.6-.37.29-.73.57-1.08.84-.04-1.16-.08-2.34-.12-3.49-.08-2.48-.15-4.73-.19-6.74-.04-2.02-.06-3.57-.06-4.66,0-2.35.29-4.22.88-5.61Z"/><path class="cls-1" d="M654.06,56.89c-1.68-.6-3.25-1.18-4.74-1.74,2-2,3.75-4.12,5.24-6.39,1.76-2.69,3.02-5.17,3.78-7.43-.08-.76-.34-1.68-.76-2.77-.42-1.09-.84-1.81-1.26-2.14-2.52.34-4.98.29-7.37-.13-2.39-.42-4.54-1.22-6.43-2.39-1.89-1.18-3.42-2.73-4.6-4.66-5.97.84-10.77,2.33-14.43,4.47-3.65,2.14-6.3,4.83-7.94,8.06-1.64,3.23-2.46,6.91-2.46,11.02,0,.34-.02,1.09-.06,2.27-.04,1.18-.27,3.11-.69,5.8,3.19,1.6,5.67,2.75,7.43,3.46.99.4,2.06.77,3.18,1.1-1.91,1.43-3.73,3.04-5.45,4.82-3.19,3.32-5.86,6.93-8,10.84-2.14,3.91-3.63,7.88-4.47,11.91,1.01.59,2.21,1.11,3.59,1.58,1.39.46,2.79.9,4.22,1.32,1.01-3.19,2.08-6.11,3.21-8.76.85-1.98,1.88-3.79,3.08-5.42,1.28.2,2.61.57,3.98,1.13,2.14.88,4.3,2.42,6.49,4.6,2.18,2.19,4.33,5.21,6.43,9.07,4.96-1.09,9.26-2.46,12.92-4.1,3.65-1.64,6.49-3.88,8.5-6.74,2.02-2.85,3.02-6.63,3.02-11.34,0-2.27.06-4.62.19-7.06.13-2.44.36-4.96.69-7.56-2.19-.92-4.62-1.87-7.31-2.84ZM642.97,45.49c1.51,0,3.04-.13,4.6-.38.05,0,.09-.02.14-.03-.48.96-1.06,1.89-1.77,2.8-1.72,2.19-3.91,4.31-6.55,6.36-1.41,1.1-2.89,2.21-4.43,3.34-.26-.1-.51-.2-.8-.32-1.76-.71-3.65-1.53-5.67-2.46-.34-.16-.68-.31-1.01-.46v-5.33c0-2.52.71-4.56,2.14-6.11.1-.1.2-.2.3-.3.87.4,1.77.78,2.72,1.12,3.28,1.18,6.72,1.76,10.33,1.76ZM644.42,83.41c-.11.13-.25.24-.37.36-.45-.96-1.02-1.88-1.71-2.75-1.34-1.68-2.96-3.15-4.85-4.41-1.89-1.26-3.91-2.22-6.05-2.9-1.75-.55-3.51-.86-5.28-.96,1.65-1.7,3.69-3.33,6.16-4.9,1.72-1.09,3.79-2.16,6.2-3.23,1.22.48,2.47.99,3.76,1.53,1.25.53,2.46,1.07,3.64,1.63,0,.62.02,1.23.08,1.83.17,1.89.25,4.35.25,7.37,0,2.86-.61,5-1.83,6.43Z"/><path class="cls-1" d="M83.35,169.83c-2.52-1.39-5.36-2.56-8.52-3.51,2.21-.98,4.17-2.06,5.88-3.23,2.81-1.93,4.96-4.24,6.43-6.93,1.47-2.69,2.21-5.96,2.21-9.83,0-1.85.06-3.38.19-4.6.13-1.22.33-2.35.63-3.4.29-1.05.61-2.21.94-3.47-3.78-1.59-7.54-3.02-11.28-4.28-3.74-1.26-7.39-2.37-10.96-3.34-3.57-.96-7.12-1.7-10.65-2.21-3.95,1.26-7.27,4.01-9.95,8.25-2.69,4.24-4.03,10.31-4.03,18.21,0,4.54.15,8.84.44,12.92.29,4.08.44,7.96.44,11.65,0,2.35-.11,4.87-.31,7.56-.21,2.69-.57,5.25-1.07,7.69,1.43-.17,2.77-.29,4.03-.38,1.26-.08,2.6-.04,4.03.13.76-2.44,1.26-5.12,1.51-8.06.23-2.63.33-5.34.36-8.11.99-.32,1.97-.63,2.94-.96,3.14.62,6,1.35,8.55,2.21,4.62,1.56,8.15,3.55,10.58,5.98,2.44,2.44,3.65,5.34,3.65,8.69,0,2.52-.53,4.75-1.58,6.68-.72,1.32-1.48,2.47-2.29,3.49-2.27-1.07-4.71-2.05-7.35-2.93-4.71-1.55-10.25-2.33-16.63-2.33-3.19,0-6.26.21-9.2.63-2.94.42-5.97,1.13-9.07,2.14-1.67.54-3.42,1.19-5.24,1.93,1.11-.95,2.15-1.94,3.1-3,2.35-2.65,4.14-5.65,5.35-9.01,1.22-3.36,1.83-7.1,1.83-11.21,0-2.18-.06-4.89-.19-8.13-.13-3.23-.27-6.47-.44-9.7-.17-3.23-.25-5.9-.25-8,0-3.36.23-6.15.69-8.38.46-2.23,1.11-4.64,1.95-7.25-1.26-.67-3.21-1.58-5.86-2.71-2.65-1.13-5.71-2.39-9.2-3.78-3.49-1.39-7.16-2.79-11.02-4.22-.84.76-1.62,1.68-2.33,2.77-.71,1.09-1.37,2.25-1.95,3.46-.59,1.22-1.11,2.48-1.57,3.78-.46,1.3-.82,2.54-1.07,3.72,2.18.84,4.64,1.74,7.37,2.71,2.73.97,5.52,1.91,8.38,2.83.79.26,1.56.5,2.31.73-.59,1.98-1.1,4.1-1.5,6.39-.4,2.32-.66,4.82-.81,7.47-.74-.05-1.43-.11-2.09-.16-2.65-.21-5.27-.36-7.88-.44-.34,1.09-.63,2.44-.88,4.03-.25,1.6-.38,3.02-.38,4.28h11.15c.04,1.16.1,2.32.19,3.46.14,1.78.26,3.62.37,5.49-1.1-.07-2.2-.13-3.27-.2-3.53-.21-6.6-.36-9.2-.44-.84,2.69-1.26,5.46-1.26,8.32h13.98c0,.17,0,.33,0,.5,0,3.28-.36,6.26-1.07,8.95-.71,2.69-2.14,5.38-4.28,8.06-2.14,2.69-5.35,5.67-9.64,8.95.33,1.01,1.01,2.27,2.02,3.78,1.01,1.51,1.93,2.6,2.77,3.28,3.11-2.18,6.03-3.91,8.76-5.17,2.73-1.26,5.61-2.18,8.63-2.77,3.02-.59,6.55-.88,10.58-.88,5.46,0,10.23.74,14.3,2.21,4.07,1.47,8.29,3.68,12.66,6.62,7.81-1.68,14.17-4.98,19.09-9.89s7.37-10.94,7.37-18.08c0-4.54-1.01-8.34-3.02-11.4-2.02-3.07-4.81-5.59-8.38-7.56ZM63.38,163.6c-1.6.67-3.4,1.37-5.42,2.08-1.41.5-2.91,1.01-4.48,1.53-.07-1.29-.15-2.6-.25-3.99-.3-3.95-.44-8.1-.44-12.47,0-3.11.13-5.82.38-8.13.16-1.47.42-2.85.75-4.17,1.71.39,3.51.82,5.43,1.27,4.03.97,8.13,1.87,12.29,2.71,1.03.21,2.02.41,2.99.6.04.36.07.72.1,1.1.17,2.14.25,4.31.25,6.49,0,1.85-.61,3.84-1.83,5.99-1.22,2.14-3.09,3.84-5.61,5.1-1.18.59-2.56,1.22-4.16,1.89Z"/><path class="cls-1" d="M141.88,153.89c-.25,1.6-.76,3.78-1.51,6.55-.76,2.77-1.58,5.5-2.46,8.19-.19.57-.37,1.1-.55,1.61-.08-1.16-.15-2.4-.2-3.75-.13-3.11-.21-6.22-.25-9.32-.04-3.11-.06-5.75-.06-7.94-2.02.59-3.8,1.45-5.35,2.58-1.56,1.13-2.98,2.54-4.28,4.22-1.3,1.68-2.46,3.63-3.46,5.86-.51,1.12-1.01,2.3-1.49,3.54-.57-.87-1.16-1.77-1.78-2.73-1.6-2.44-3.17-4.85-4.73-7.25-1.56-2.39-2.96-4.47-4.22-6.24-1.09.5-2.25,1.16-3.47,1.95-1.22.8-2.39,1.68-3.53,2.65-1.13.97-2.16,1.97-3.09,3.02-.93,1.05-1.72,2.04-2.39,2.96.76.93,1.7,2,2.83,3.21,1.13,1.22,2.39,2.44,3.78,3.65.41.36.82.69,1.23,1.02.01.21.02.4.03.61.13,2.73.21,5.48.25,8.25.04,2.77.08,5.29.13,7.56.04,2.27.06,4.03.06,5.29,0,2.86-.13,5.69-.38,8.5-.25,2.82-.84,6.15-1.76,10.02,1.59,1.09,3.76,2.19,6.49,3.28,2.73,1.09,5.56,2.1,8.5,3.02,2.94.92,5.46,1.68,7.56,2.27,2.18-1.09,4.7-2.71,7.56-4.85,2.85-2.14,5.58-4.51,8.19-7.12-.34-.92-1.05-2.02-2.14-3.28-1.09-1.26-2.1-2.18-3.02-2.77-.84.5-1.81,1.18-2.9,2.02-1.09.84-2.19,1.7-3.28,2.58-.25.2-.49.4-.73.59-1.88-.49-3.74-1-5.63-1.47-1.33-.34-2.64-.65-3.93-.95-.19-1.34-.29-2.69-.29-4.03,0-5.46.46-10.37,1.39-14.74.92-4.37,2.29-8.29,4.09-11.78.11-.21.23-.4.34-.61.33,1.34.67,2.68,1.05,4.01.55,1.98,1.13,3.89,1.76,5.73.63,1.85,1.28,3.49,1.95,4.91,2.27-1.26,4.33-2.83,6.17-4.72,1.85-1.89,3.51-4.1,4.98-6.62,1.47-2.52,2.81-5.29,4.03-8.32,1.22-3.02,2.25-6.3,3.09-9.83-.93-.42-2.35-.78-4.28-1.07-1.93-.29-3.36-.4-4.28-.31Z"/><path class="cls-1" d="M196.43,195.98c-2.1,1.6-4.22,3.34-6.36,5.23-.97.85-1.95,1.7-2.95,2.55-.11-.03-.22-.06-.33-.09-3.4-.92-6.66-1.81-9.77-2.65-1.99-.54-3.74-1-5.32-1.4-.05-.78-.1-1.65-.16-2.64-.04-.67-.08-1.38-.11-2.1,1.72-1.11,3.47-2.24,5.28-3.45,2.9-1.93,5.77-3.95,8.63-6.05,2.85-2.1,5.67-4.24,8.44-6.43,2.77-2.18,5.38-4.33,7.81-6.43.08-.42.13-.84.13-1.26v-1.32c0-.46-.04-.9-.13-1.32-1.6-2.18-3.4-4.43-5.42-6.74-2.02-2.31-4.14-4.56-6.36-6.74-2.23-2.18-4.39-4.16-6.49-5.92-5.29,1.43-10.06,3.32-14.3,5.67-4.24,2.35-7.58,5.12-10.02,8.32-2.44,3.19-3.65,6.85-3.65,10.96,0,3.19.19,6.26.57,9.2.38,2.94.57,5.88.57,8.82,0,2.19-.15,4.35-.44,6.49-.3,2.14-.82,4.56-1.58,7.25,3.02,1.51,6.09,2.92,9.2,4.22,3.11,1.3,6.32,2.48,9.64,3.53,3.32,1.05,6.7,1.99,10.14,2.84,2.27-1.09,4.47-2.37,6.62-3.84,2.14-1.47,4.2-3.13,6.17-4.98,1.97-1.85,3.84-3.82,5.61-5.92-.34-.76-1.09-1.76-2.27-3.02-1.18-1.26-2.23-2.18-3.15-2.77ZM171.61,165.55c.59-1.39,1.76-2.62,3.53-3.72.26-.16.53-.32.82-.49.6.68,1.22,1.38,1.89,2.12,1.81,2.02,3.67,4.01,5.61,5.99,1.41,1.44,2.71,2.79,3.9,4.03-1,.75-2.12,1.6-3.4,2.59-1.85,1.43-3.8,2.94-5.86,4.54-2.06,1.6-4.03,3.13-5.92,4.6-.37.29-.73.57-1.08.84-.04-1.16-.08-2.34-.12-3.49-.08-2.48-.15-4.73-.19-6.74-.04-2.02-.06-3.57-.06-4.66,0-2.35.29-4.22.88-5.61Z"/><path class="cls-1" d="M296.85,160.07c-1.6-1.59-3.26-3.02-4.98-4.28-1.72-1.26-3.47-2.44-5.23-3.53-1.76-1.09-3.61-2.1-5.54-3.02-1.09.76-2.21,1.74-3.34,2.96-1.13,1.22-2.16,2.52-3.09,3.91-.93,1.39-1.72,2.71-2.39,3.97,2.29,1.01,4.7,1.95,7.18,2.86.06.9.12,1.92.19,3.12.13,2.14.25,4.47.38,6.99s.23,5.08.31,7.69c.08,2.6.15,5.02.19,7.25.04,2.23.06,4.01.06,5.35,0,2.27-.17,4.18-.5,5.73-.34,1.56-1.11,2.92-2.33,4.09-.29.28-.64.57-1.02.86-.44-.16-.87-.33-1.31-.48-2.86-1.01-5.59-1.93-8.19-2.77-1.65-.53-3.18-1.02-4.63-1.49-.08-1.18-.17-2.51-.29-3.99-.17-2.14-.3-4.39-.38-6.74-.08-2.35-.17-4.56-.25-6.62-.08-2.06-.13-3.76-.13-5.1,0-3.44.19-6.49.57-9.13.38-2.65.95-5.19,1.7-7.62-1.26-1.18-2.75-2.44-4.47-3.78-1.72-1.34-3.55-2.62-5.48-3.84-1.93-1.22-3.86-2.29-5.8-3.21-1.09.76-2.25,1.74-3.46,2.96s-2.33,2.52-3.34,3.91c-1.01,1.39-1.85,2.71-2.52,3.97,2.55,1.02,5.12,1.98,7.7,2.91.05.65.11,1.34.17,2.07.13,1.47.25,3.02.38,4.66.13,1.64.23,3.38.31,5.23.08,1.85.15,3.78.19,5.8.04,2.02.06,4.08.06,6.17,0,4.37-.15,7.79-.44,10.27-.3,2.48-1.05,4.39-2.27,5.73-.45.5-1,.98-1.66,1.47-.7-.28-1.39-.57-2.12-.84-2.73-1.01-5.38-1.93-7.94-2.77-1.07-.35-2.1-.69-3.09-1.01-.07-1.06-.15-2.22-.25-3.53-.17-2.27-.3-4.64-.38-7.12-.08-2.48-.17-4.81-.25-6.99-.08-2.18-.13-3.95-.13-5.29,0-3.44.23-6.55.69-9.32.46-2.77,1.11-5.33,1.95-7.69-4.37-1.26-7.46-3-9.26-5.23-1.81-2.22-2.75-4.85-2.83-7.88-.08-2.69.63-5.25,2.14-7.69,1.51-2.44,3.95-4.91,7.31-7.43-.34-.92-.9-1.89-1.7-2.9-.8-1.01-1.66-1.81-2.58-2.39-5.8,3.11-10.35,7.04-13.67,11.78-3.32,4.75-4.85,9.64-4.6,14.68.17,4.2,1.3,7.79,3.4,10.77,1.16,1.65,2.54,2.98,4.12,4,.09,1.26.17,2.53.23,3.81.13,2.48.23,5.02.31,7.62.08,2.6.13,5.25.13,7.94,0,1.43-.08,3.32-.25,5.67-.17,2.35-.38,4.73-.63,7.12s-.59,4.47-1.01,6.24c2.52,1.6,5,3.05,7.43,4.35,2.44,1.3,4.96,2.46,7.56,3.47,2.6,1.01,5.38,1.93,8.32,2.77,2.35-.67,4.72-1.53,7.12-2.58,2.39-1.05,4.66-2.27,6.8-3.65.85-.55,1.64-1.11,2.39-1.69.17.1.33.2.51.3,1.81,1.05,3.74,2.08,5.8,3.09,2.06,1.01,4.07,1.91,6.05,2.71,1.97.8,3.8,1.41,5.48,1.83,6.63-2.1,11.8-4.37,15.5-6.8,3.7-2.44,6.32-5.17,7.88-8.19,1.55-3.02,2.33-6.34,2.33-9.95,0-1.34-.11-2.92-.31-4.73-.21-1.81-.4-3.67-.57-5.61-.17-1.93-.25-3.65-.25-5.17,0-2.85.15-5.63.44-8.32.29-2.69.82-5.25,1.58-7.69Z"/><path class="cls-1" d="M406.47,125.04c-5.12,1.26-9.12,4.01-11.97,8.25-2.86,4.24-4.28,10.31-4.28,18.21,0,3.02.06,5.57.19,7.62.13,2.06.25,4.03.38,5.92s.19,4.05.19,6.49c0,4.2-.06,8.44-.19,12.73-.13,4.28-.36,8.78-.69,13.48,1.18.25,2.52.36,4.03.32,1.51-.04,2.98-.23,4.41-.57.42-4.79.69-9.47.82-14.05.13-4.58.19-8.76.19-12.54,0-3.19-.13-6.26-.38-9.2-.25-2.94-.38-6.59-.38-10.96,0-3.7.48-7.06,1.45-10.08.26-.81.58-1.61.95-2.4,1.49.56,3.08,1.14,4.78,1.77,3.19,1.18,6.4,2.35,9.64,3.53,3.23,1.18,6.03,2.23,8.38,3.15,1.26-1.34,2.35-2.81,3.28-4.41.92-1.59,1.68-3.19,2.27-4.79.59-1.59.96-3.06,1.13-4.41-2.44-1.09-5.92-2.44-10.46-4.03-4.54-1.59-9.12-2.94-13.73-4.03Z"/><path class="cls-1" d="M394.75,202.78c-4.79,0-9.43-.82-13.92-2.46-3.35-1.22-6.42-2.88-9.23-4.99,2.41-1.35,4.45-2.75,6.08-4.21,2.31-2.06,3.99-4.37,5.04-6.93,1.05-2.56,1.57-5.52,1.57-8.88,0-1.26-.04-2.79-.13-4.6-.08-1.81-.15-3.74-.19-5.8-.04-2.06-.11-4.1-.19-6.11-.08-2.02-.13-3.82-.13-5.42,0-1.26.02-2.85.06-4.79.04-1.93.17-3.91.38-5.92.21-2.02.48-3.74.82-5.17-1.51.34-3.34,1.07-5.48,2.21-2.14,1.13-4.2,2.35-6.17,3.65-1.97,1.3-3.46,2.46-4.47,3.46-.08.67-.17,1.64-.25,2.9-.08,1.26-.15,2.63-.19,4.1-.04,1.47-.06,2.92-.06,4.35,0,1.6.04,3.26.13,4.98.08,1.72.15,3.49.19,5.29.04,1.81.1,3.65.19,5.54.08,1.89.13,3.76.13,5.61,0,2.52-.46,4.71-1.39,6.55-.54,1.08-1.3,2.1-2.27,3.07-1.93-2.43-3.57-5.17-4.91-8.23-2.1-4.79-3.15-10.33-3.15-16.63,0-4.11.5-8.57,1.51-13.36,1.01-4.79,2.39-9.45,4.16-13.99,1.76-4.54,3.74-8.4,5.92-11.59-1.76,0-3.53.15-5.29.44-1.76.3-3.49.78-5.17,1.45-3.19,3.02-6.03,6.89-8.5,11.59-2.48,4.71-4.41,9.81-5.8,15.31-1.39,5.5-2.08,11.07-2.08,16.69,0,6.89,1.24,13.13,3.72,18.71,2.48,5.59,5.84,10.4,10.08,14.43,4.24,4.03,9.09,7.12,14.55,9.26,5.46,2.14,11.17,3.21,17.14,3.21,4.62,0,9.05-.55,13.29-1.64,4.24-1.09,8.08-2.5,11.53-4.22,3.44-1.72,6.22-3.46,8.32-5.23.67-1.93,1.2-3.76,1.58-5.48.38-1.72.69-3.42.94-5.1-4.54,2.6-9.13,4.58-13.8,5.92-4.66,1.34-9.51,2.02-14.55,2.02Z"/><path class="cls-1" d="M475.77,153.89c-.25,1.6-.76,3.78-1.51,6.55-.76,2.77-1.58,5.5-2.46,8.19-.19.57-.37,1.1-.55,1.61-.08-1.16-.15-2.4-.2-3.75-.13-3.11-.21-6.22-.25-9.32-.04-3.11-.06-5.75-.06-7.94-2.02.59-3.8,1.45-5.35,2.58-1.56,1.13-2.98,2.54-4.28,4.22-1.3,1.68-2.46,3.63-3.46,5.86-.51,1.12-1.01,2.3-1.49,3.54-.57-.87-1.16-1.77-1.78-2.73-1.6-2.44-3.17-4.85-4.73-7.25-1.56-2.39-2.96-4.47-4.22-6.24-1.09.5-2.25,1.16-3.47,1.95-1.22.8-2.39,1.68-3.53,2.65-1.13.97-2.16,1.97-3.09,3.02-.93,1.05-1.72,2.04-2.39,2.96.76.93,1.7,2,2.83,3.21,1.13,1.22,2.39,2.44,3.78,3.65.41.36.82.69,1.23,1.02.01.21.02.4.03.61.13,2.73.21,5.48.25,8.25.04,2.77.08,5.29.13,7.56.04,2.27.06,4.03.06,5.29,0,2.86-.13,5.69-.38,8.5-.25,2.82-.84,6.15-1.76,10.02,1.59,1.09,3.76,2.19,6.49,3.28,2.73,1.09,5.56,2.1,8.5,3.02,2.94.92,5.46,1.68,7.56,2.27,2.18-1.09,4.7-2.71,7.56-4.85,2.85-2.14,5.58-4.51,8.19-7.12-.34-.92-1.05-2.02-2.14-3.28-1.09-1.26-2.1-2.18-3.02-2.77-.84.5-1.81,1.18-2.9,2.02-1.09.84-2.19,1.7-3.28,2.58-.25.2-.49.4-.73.59-1.88-.49-3.74-1-5.63-1.47-1.33-.34-2.64-.65-3.93-.95-.19-1.34-.29-2.69-.29-4.03,0-5.46.46-10.37,1.39-14.74.92-4.37,2.29-8.29,4.09-11.78.11-.21.23-.4.34-.61.33,1.34.67,2.68,1.05,4.01.55,1.98,1.13,3.89,1.76,5.73.63,1.85,1.28,3.49,1.95,4.91,2.27-1.26,4.33-2.83,6.17-4.72,1.85-1.89,3.51-4.1,4.98-6.62,1.47-2.52,2.81-5.29,4.03-8.32,1.22-3.02,2.25-6.3,3.09-9.83-.93-.42-2.35-.78-4.28-1.07-1.93-.29-3.36-.4-4.28-.31Z"/><path class="cls-1" d="M530.33,195.98c-2.1,1.6-4.22,3.34-6.36,5.23-.97.85-1.95,1.7-2.95,2.55-.11-.03-.22-.06-.33-.09-3.4-.92-6.66-1.81-9.77-2.65-1.99-.54-3.74-1-5.32-1.4-.05-.78-.1-1.65-.16-2.64-.04-.67-.08-1.38-.11-2.1,1.72-1.11,3.47-2.24,5.28-3.45,2.9-1.93,5.77-3.95,8.63-6.05,2.85-2.1,5.67-4.24,8.44-6.43,2.77-2.18,5.38-4.33,7.81-6.43.08-.42.13-.84.13-1.26v-1.32c0-.46-.04-.9-.13-1.32-1.6-2.18-3.4-4.43-5.42-6.74-2.02-2.31-4.14-4.56-6.36-6.74-2.23-2.18-4.39-4.16-6.49-5.92-5.29,1.43-10.06,3.32-14.3,5.67-4.24,2.35-7.58,5.12-10.02,8.32-2.44,3.19-3.65,6.85-3.65,10.96,0,3.19.19,6.26.57,9.2.38,2.94.57,5.88.57,8.82,0,2.19-.15,4.35-.44,6.49-.3,2.14-.82,4.56-1.58,7.25,3.02,1.51,6.09,2.92,9.2,4.22,3.11,1.3,6.32,2.48,9.64,3.53,3.32,1.05,6.7,1.99,10.14,2.84,2.27-1.09,4.47-2.37,6.62-3.84,2.14-1.47,4.2-3.13,6.17-4.98,1.97-1.85,3.84-3.82,5.61-5.92-.34-.76-1.09-1.76-2.27-3.02-1.18-1.26-2.23-2.18-3.15-2.77ZM505.51,165.55c.59-1.39,1.76-2.62,3.53-3.72.26-.16.53-.32.82-.49.6.68,1.22,1.38,1.89,2.12,1.81,2.02,3.67,4.01,5.61,5.99,1.41,1.44,2.71,2.79,3.9,4.03-1,.75-2.12,1.6-3.4,2.59-1.85,1.43-3.8,2.94-5.86,4.54-2.06,1.6-4.03,3.13-5.92,4.6-.37.29-.73.57-1.08.84-.04-1.16-.08-2.34-.12-3.49-.08-2.48-.15-4.73-.19-6.74-.04-2.02-.06-3.57-.06-4.66,0-2.35.29-4.22.88-5.61Z"/><path class="cls-1" d="M630.75,160.07c-1.6-1.59-3.26-3.02-4.98-4.28-1.72-1.26-3.47-2.44-5.23-3.53-1.76-1.09-3.61-2.1-5.54-3.02-1.09.76-2.21,1.74-3.34,2.96-1.13,1.22-2.16,2.52-3.09,3.91-.93,1.39-1.72,2.71-2.39,3.97,2.29,1.01,4.7,1.95,7.18,2.86.06.9.12,1.92.19,3.12.13,2.14.25,4.47.38,6.99s.23,5.08.31,7.69c.08,2.6.15,5.02.19,7.25.04,2.23.06,4.01.06,5.35,0,2.27-.17,4.18-.5,5.73-.34,1.56-1.11,2.92-2.33,4.09-.29.28-.64.57-1.02.86-.44-.16-.87-.33-1.31-.48-2.86-1.01-5.59-1.93-8.19-2.77-1.65-.53-3.18-1.02-4.63-1.49-.08-1.18-.17-2.51-.29-3.99-.17-2.14-.3-4.39-.38-6.74-.08-2.35-.17-4.56-.25-6.62-.08-2.06-.13-3.76-.13-5.1,0-3.44.19-6.49.57-9.13.38-2.65.95-5.19,1.7-7.62-1.26-1.18-2.75-2.44-4.47-3.78-1.72-1.34-3.55-2.62-5.48-3.84-1.93-1.22-3.86-2.29-5.8-3.21-1.09.76-2.25,1.74-3.46,2.96s-2.33,2.52-3.34,3.91c-1.01,1.39-1.85,2.71-2.52,3.97,2.55,1.02,5.12,1.98,7.7,2.91.05.65.11,1.34.17,2.07.13,1.47.25,3.02.38,4.66.13,1.64.23,3.38.31,5.23.08,1.85.15,3.78.19,5.8.04,2.02.06,4.08.06,6.17,0,4.37-.15,7.79-.44,10.27-.3,2.48-1.05,4.39-2.27,5.73-.45.5-1,.98-1.66,1.47-.7-.28-1.39-.57-2.12-.84-2.73-1.01-5.38-1.93-7.94-2.77-1.07-.35-2.1-.69-3.09-1.01-.07-1.06-.15-2.22-.25-3.53-.17-2.27-.3-4.64-.38-7.12-.08-2.48-.17-4.81-.25-6.99-.08-2.18-.13-3.95-.13-5.29,0-3.44.23-6.55.69-9.32.46-2.77,1.11-5.33,1.95-7.69-4.37-1.26-7.46-3-9.26-5.23-1.81-2.22-2.75-4.85-2.83-7.88-.08-2.69.63-5.25,2.14-7.69,1.51-2.44,3.95-4.91,7.31-7.43-.34-.92-.9-1.89-1.7-2.9-.8-1.01-1.66-1.81-2.58-2.39-5.8,3.11-10.35,7.04-13.67,11.78-3.32,4.75-4.85,9.64-4.6,14.68.17,4.2,1.3,7.79,3.4,10.77,1.16,1.65,2.54,2.98,4.12,4,.09,1.26.17,2.53.23,3.81.13,2.48.23,5.02.31,7.62.08,2.6.13,5.25.13,7.94,0,1.43-.08,3.32-.25,5.67-.17,2.35-.38,4.73-.63,7.12s-.59,4.47-1.01,6.24c2.52,1.6,5,3.05,7.43,4.35,2.44,1.3,4.96,2.46,7.56,3.47,2.6,1.01,5.38,1.93,8.32,2.77,2.35-.67,4.72-1.53,7.12-2.58,2.39-1.05,4.66-2.27,6.8-3.65.85-.55,1.64-1.11,2.39-1.69.17.1.33.2.51.3,1.81,1.05,3.74,2.08,5.8,3.09,2.06,1.01,4.07,1.91,6.05,2.71,1.97.8,3.8,1.41,5.48,1.83,6.63-2.1,11.8-4.37,15.5-6.8,3.7-2.44,6.32-5.17,7.88-8.19,1.55-3.02,2.33-6.34,2.33-9.95,0-1.34-.11-2.92-.31-4.73-.21-1.81-.4-3.67-.57-5.61-.17-1.93-.25-3.65-.25-5.17,0-2.85.15-5.63.44-8.32.29-2.69.82-5.25,1.58-7.69Z"/></g></svg>