<?xml version="1.0" encoding="UTF-8" standalone="no"?>
<!--
version: "2.30"
unicode: "fc26"
-->

<svg
   width="24"
   height="24"
   viewBox="0 0 24 24"
   fill="currentColor"
   version="1.1"
   id="svg3"
   sodipodi:docname="cards.svg"
   inkscape:version="1.4 (86a8ad7, 2024-10-11)"
   xmlns:inkscape="http://www.inkscape.org/namespaces/inkscape"
   xmlns:sodipodi="http://sodipodi.sourceforge.net/DTD/sodipodi-0.dtd"
   xmlns="http://www.w3.org/2000/svg"
   xmlns:svg="http://www.w3.org/2000/svg">
  <defs
     id="defs3" />
  <sodipodi:namedview
     id="namedview3"
     pagecolor="#000000"
     bordercolor="#000000"
     borderopacity="0.25"
     inkscape:showpageshadow="2"
     inkscape:pageopacity="0.0"
     inkscape:pagecheckerboard="0"
     inkscape:deskcolor="#d1d1d1"
     inkscape:zoom="48.625"
     inkscape:cx="12"
     inkscape:cy="12"
     inkscape:window-width="2072"
     inkscape:window-height="1211"
     inkscape:window-x="1312"
     inkscape:window-y="141"
     inkscape:window-maximized="0"
     inkscape:current-layer="svg3" />
  <path
     d="M10.348 3.169l-7.15 3.113a2 2 0 0 0 -1.03 2.608l4.92 11.895a1.96 1.96 0 0 0 2.59 1.063l7.142 -3.11a2.002 2.002 0 0 0 1.036 -2.611l-4.92 -11.894a1.96 1.96 0 0 0 -2.588 -1.064z"
     id="path1"
     style="fill:#fbd794;fill-opacity:1" />
  <path
     d="M16 3a2 2 0 0 1 1.995 1.85l.005 .15v3.5a1 1 0 0 1 -1.993 .117l-.007 -.117v-3.5h-1a1 1 0 0 1 -.117 -1.993l.117 -.007h1z"
     id="path2"
     style="fill:#fbd794;fill-opacity:1" />
  <path
     d="M19.08 5.61a1 1 0 0 1 1.31 -.53c.257 .108 .505 .21 .769 .314a2 2 0 0 1 1.114 2.479l-.056 .146l-2.298 5.374a1 1 0 0 1 -1.878 -.676l.04 -.11l2.296 -5.371l-.366 -.148l-.402 -.167a1 1 0 0 1 -.53 -1.312z"
     id="path3"
     style="fill:#fbd794;fill-opacity:1" />
</svg>
